<?xml version="1.0" encoding="UTF-8"?>
<svg xmlns="http://www.w3.org/2000/svg" viewBox="0 0 1080 1080">
  <defs>
    <style>
      .cls-1 {
        fill: #ed6237;
      }

      .cls-2 {
        fill: #fff;
      }

      .cls-3 {
        fill: #333;
      }
    </style>
  </defs>
  <g id="France">
    <g>
      <g>
        <path class="cls-1" d="M563.6,91.26c.43-54.64,72.83-39.14,74-18.73,1.18,20.41,45.67,32.02,78.79,52.73,33.13,20.71,39.05,54.61,50,61.6s27.99-8.65,43.74-2.44c15.75,6.21,18.97,27.8,18.97,27.8,3.27,34.21,39.5,35.62,68.01,41.79,28.51,6.16,31.7,20.16,56.88,36.71,25.18,16.54,69.32,16.24,80.61,26.41,16.14,17.59-21.49,68.75-28.27,85.25-6.78,16.51-4.87,69.2-10.6,81.28s-12.24,5.76-35.74,7.87c-23.5,2.11-106.58,134.33-93.59,142.5,12.99,8.16,25.28-29.95,40.84-29.56,15.56.39,32.44,45.77,32.92,60.06s-15.04,4.13-12.59,20.92c2.45,16.79,21.94,13.18,20.22,33.42-2.45,19.14-31.19,22.73-33.18,33.98s13.72,22.74,12.73,39.59c-.43,7.29-8.65,25.12.23,45.45,10.95,24.95,48.91,8.43,54.3,24.6,5.39,16.17-23.45,43.8-42.28,54.05-9.23,5.02-40.17,35.17-67.61,44.36-39.71,14.83-58.22-11.88-76.77-19.85-33.52-13.84-69.32-29.91-99.29-27.78-47.63,3.53-66.95,39.91-68.74,56.98-1.8,17.07,6.52,50.84-38.41,55.6-72.22,6.05-100.14-53.72-127.24-60.07-27.1-6.35-49.48,14.79-72.77,11.04-13.26-3.63-128.55-55.66-128.6-68.34.51-17.67,25.67-28.6,31.41-53.37,5.74-24.77,61.6-244.32,3.61-280.03-57.99-35.71-29-77.07-58.15-106.92s-78.64-54.17-119.14-61.84c-40.5-7.67-48.57-19.77-47.32-28.68s26.23-15.62,25.16-21.24c-2.12-11.09-36.65-10.22-35.93-26.95s23.33-23.86,60.34-19.69c37.01,4.16,23.95-16.42,51.27-16s17.42,13.71,55.98,25.09c38.56,11.39,97.96,5.37,94.71-26.92-3.25-32.29-42.95-71.48-16.3-86.56s28.62,11.99,59.42,34.01c30.8,22.03,74.73,11.8,81.47,2.82,6.74-8.98-3.4-25.17,5.42-36.01s72.62-26.37,87.27-37.39c14.65-11.03,23.77-22.89,24.2-77.53Z"/>
        <path class="cls-1" d="M566.1,91.26c.04-4.23.39-7.68,1.47-11.71.23-.86.49-1.7.77-2.54.13-.37.26-.74.4-1.1.08-.22.17-.43.25-.65.06-.14.11-.28.17-.43-.1.25-.1.24.02-.03.65-1.47,1.4-2.9,2.26-4.27.41-.66.85-1.29,1.31-1.92.05-.07.47-.62.11-.16.08-.11.17-.22.26-.32.28-.34.56-.69.86-1.02,1-1.13,2.08-2.19,3.24-3.17.25-.21.51-.42.77-.63-.46.36.45-.34.6-.44.59-.42,1.19-.82,1.81-1.21,1.28-.8,2.62-1.5,4-2.13.15-.07.3-.13.45-.2.37-.16-.56.22.04-.02.37-.15.73-.3,1.1-.43.68-.26,1.37-.49,2.06-.71,1.46-.46,2.94-.83,4.44-1.13.66-.13,1.31-.24,1.97-.35.2-.03.4-.06.6-.09-.65.09.02,0,.13-.02.4-.05.8-.09,1.2-.13,1.5-.15,3.01-.23,4.53-.24s3.02.03,4.52.14c.73.05,1.46.12,2.19.2.33.04.66.08.99.12.67.08-.55-.08.12.02.2.03.39.06.59.09,2.87.43,5.7,1.07,8.47,1.94,1.34.42,2.67.89,3.98,1.42.11.04.22.09.33.14.57.23-.5-.22.06.03.27.12.54.24.8.36.63.29,1.25.59,1.86.9,1.1.56,2.17,1.18,3.2,1.85.46.3.91.61,1.35.93.12.09.24.18.37.27.44.32-.45-.36-.03-.02.23.19.46.37.69.56.78.67,1.53,1.38,2.21,2.15.18.2.33.41.51.61.16.18-.33-.48.08.11.29.41.57.82.82,1.26.22.38.39.79.6,1.18-.25-.49-.12-.32,0,.06.07.22.15.44.21.66.12.4.17.81.26,1.22-.2-.87-.03-.25-.02,0,.04.61.11,1.21.19,1.81,1.08,7.5,7.1,13.1,12.9,17.36,8.18,6.01,17.5,10.45,26.61,14.86,10.76,5.21,21.62,10.24,32.06,16.08,5.23,2.92,10.42,5.99,15.17,9.66,4.25,3.28,8.17,6.99,11.76,10.97,6.23,6.93,11.28,14.77,15.82,22.88,3.36,6,6.29,12.42,10.44,17.93,1.71,2.27,3.68,4.46,6.29,5.7,4.32,2.06,9.09,1.66,13.63.63,9.47-2.15,19.4-7.26,29.16-3.62,3.96,1.48,7.29,4.33,9.89,7.72,1.03,1.35,2.26,3.33,3.16,5.05.4.77.78,1.54,1.14,2.33.4.89.55,1.24.95,2.32.92,2.45,1.67,4.98,2.2,7.55.08.4.17.81.22,1.21-.13-.87,0,.25.02.36.05.45.11.89.17,1.33.07.55.15,1.09.25,1.63.21,1.25.48,2.49.8,3.71,2.26,8.46,7.41,15.52,14.54,20.54s15.45,7.74,23.71,9.82c8.84,2.22,17.86,3.62,26.79,5.42,5.39,1.08,10.72,2.37,15.83,4.43,4.3,1.74,8.34,4.09,12.08,6.82,7.49,5.47,14.16,12.58,21.54,18.44,4.57,3.63,9.33,7.16,14.46,9.97,4.52,2.48,9.32,4.47,14.19,6.16,9.84,3.42,20.05,5.6,30.23,7.71,8.35,1.73,16.94,3.18,24.96,6.14.42.16.85.32,1.27.49-.01,0,.65.27.31.12s.3.13.29.13c.74.33,1.46.68,2.17,1.07.59.33,1.17.68,1.72,1.06.09.07.19.14.28.2.49.34-.42-.35.03.02.27.23.52.44.75.71.12.14.24.29.36.43-.4-.5,0,0,.06.09.17.26.35.51.51.77s.31.53.46.8c.11.2.61,1.34.38.75.53,1.32.87,2.69,1.09,4.09-.1-.66.05.46.06.64.03.38.06.76.07,1.14.04.86.03,1.72-.01,2.58-.04.75-.1,1.5-.18,2.24-.03.23-.05.46-.08.69.08-.56-.03.21-.04.26-.08.47-.15.94-.24,1.41-.71,3.84-1.86,7.6-3.2,11.26-5.67,15.56-14.81,30.1-22.96,44.68-2.88,5.14-5.7,10.28-7.07,16.05-1.91,8.03-2.58,16.39-3.23,24.61-.72,9.18-1.2,18.39-1.9,27.57-.31,4.05-.66,8.11-1.17,12.14-.03.24-.06.48-.09.72-.1.78.07-.5-.04.27-.05.38-.11.76-.16,1.14-.13.86-.27,1.71-.43,2.57-.25,1.35-.53,2.7-.9,4.02-.16.55-.32,1.1-.52,1.64-.08.22-.17.44-.25.66.31-.84-.18.35-.28.56-.35.7-.73,1.39-1.16,2.05-.1.16-.79,1.11-.41.62-.23.29-.46.56-.71.83-.2.21-.41.4-.62.6-.12.11-.25.22-.38.32.53-.44.11-.08-.02,0-.23.14-.44.29-.68.42-.22.12-1.06.48-.4.23-.56.22-1.13.39-1.71.52-.31.07-.62.12-.93.17-.38.06.65-.06.04,0-.25.02-.49.05-.74.07-3.59.28-7.24-.07-10.83-.16-5.1-.14-10.34-.18-15.4.5-3.38.45-6.45,2.4-9.12,4.41-4.05,3.03-7.7,6.54-11.17,10.2-9.41,9.92-17.75,20.88-25.72,31.98-9.07,12.63-17.59,25.66-25.58,38.99-6.84,11.43-13.42,23.1-18.87,35.26-1.97,4.4-3.86,8.88-5.18,13.52-.83,2.94-1.68,6.35-.91,9.39,1.13,4.45,6.83,5.6,10.66,4.21,3.05-1.11,5.59-3.31,7.81-5.62,2.58-2.68,4.86-5.63,7.15-8.55s4.77-6.14,7.42-8.98c1.19-1.28,2.43-2.51,3.77-3.63.17-.14.35-.29.52-.43.57-.46-.39.28.19-.15.29-.21.58-.42.88-.62.68-.46,1.4-.88,2.14-1.24.15-.07.3-.14.45-.21.36-.17-.56.2.04-.01.33-.12.66-.24,1-.34s.67-.17,1.01-.24c.13-.03.76-.09.08-.02.19-.02.37-.04.56-.05.36-.02.71-.01,1.07,0,.11,0,.21.03.32.03.55,0-.54-.17-.02,0,.64.21,1.3.32,1.94.56-.6-.23.17.08.37.18.27.14.54.28.81.44.33.19.65.4.97.61.14.1,1.06.78.62.43,1.3,1.02,2.48,2.18,3.58,3.41,2.45,2.73,4.49,5.78,6.49,9.19,2.25,3.82,4.22,7.81,6.01,11.86,3.25,7.36,6.07,15.37,7.88,23.37.34,1.51.65,3.04.88,4.58.03.19.05.37.08.56-.09-.69-.01-.08,0,.06.03.29.06.57.09.86.07.77.11,1.54.1,2.31,0,.45-.03.9-.08,1.35.04-.38-.13.65-.18.84s-.44,1.22-.18.66c-.15.34-.34.64-.53.96-.3.5.36-.39-.02.04-.11.12-.22.25-.34.37-.14.14-.82.68-.23.25-.53.38-1.09.68-1.67.97-.1.05-.2.09-.3.13-.52.24.53-.21,0,0-.25.1-.51.2-.76.3-.61.23-1.22.46-1.83.71-1.43.59-2.76,1.26-3.89,2.33-2.91,2.74-3.12,7.04-2.64,10.75.55,4.29,2.14,8.13,5.03,11.38,2.32,2.6,5.26,4.54,8.02,6.62.18.13.35.27.53.4-.36-.28-.05-.04.01.01.34.27.68.55,1.02.83.64.54,1.26,1.11,1.84,1.71.28.29.55.58.81.89.12.14.24.28.35.42.27.33-.33-.47.08.11.53.75.99,1.52,1.4,2.34.29.57.09.11.31.73.17.48.32.95.45,1.44.28,1.05.38,1.71.45,2.63.18,2.28.08,4.34-.55,6.51-1,3.45-3.06,6.29-5.79,8.88s-5.73,4.54-9.11,6.6c-3.13,1.9-6.36,3.67-9.4,5.72-2.66,1.79-5.37,3.85-7.03,6.66-4.37,7.39,1.34,16.27,4.92,22.69,2.34,4.2,4.6,8.47,5.76,13.16.59,2.38.84,4.8.73,7.25-.02.38-.05.75-.09,1.13s.1-.64,0-.02c-.03.2-.06.39-.09.59-.15.89-.34,1.76-.53,2.64-1,4.49-2.05,8.94-2.64,13.5-.78,6-.72,12.04.38,18,1.03,5.57,2.9,11.5,6.34,16.08,2.44,3.24,5.58,5.85,9.24,7.61,7.15,3.45,15.18,4.06,22.97,4.67,1.77.14,3.55.28,5.32.46.42.04.85.09,1.27.14.19.02.38.05.57.07.07,0,.82.11.23.03.86.12,1.73.26,2.58.43,1.44.28,2.85.67,4.23,1.17.65.24-.17-.11.42.18.32.16.64.31.96.49.25.14.5.29.75.45.14.09.28.2.42.29.45.31-.34-.3.03.03.47.41.9.84,1.3,1.32-.46-.55.19.3.29.47.18.3.34.61.49.93.26.53-.13-.37,0-.01.05.15.11.29.16.44.14.4.25.82.34,1.23.04.18.2,1.18.13.61.05.44.08.87.1,1.31.02.83-.02,1.67-.12,2.49.06-.47-.09.54-.13.74-.11.56-.24,1.12-.39,1.67-.53,1.97-1.12,3.41-1.94,5.1-4.24,8.67-11.04,16.05-18.06,22.54-3.65,3.38-7.49,6.56-11.53,9.46-3.33,2.39-6.83,4.39-10.31,6.52-2.55,1.56-4.91,3.45-7.27,5.29-3.37,2.62-6.68,5.31-10.03,7.96-16.81,13.33-34.71,26.9-55.74,32.61-9.51,2.58-19.33,2.88-28.7.13-7.73-2.26-14.71-6.39-21.51-10.96-5.95-3.99-11.76-8.45-18.41-11.23-12.82-5.36-25.64-10.77-38.68-15.59-12.35-4.56-24.99-8.63-37.99-10.83-11.89-2.01-23.79-2.18-35.63.26-18.16,3.73-34.6,13.58-45.94,28.3-7.44,9.66-12.8,21.21-13.21,33.53-.19,5.76,0,11.53-.55,17.28-.07.72-.15,1.44-.24,2.16s.08-.54-.02.16c-.03.21-.06.41-.09.62-.06.41-.13.82-.2,1.23-.27,1.51-.6,3-1.02,4.47-.93,3.29-1.77,5.32-3.63,8.26-.43.67-.88,1.33-1.36,1.96.29-.38-.32.39-.43.53-.33.4-.68.79-1.04,1.18-.52.56-1.07,1.1-1.63,1.61-.35.32-.7.63-1.07.93-.15.13-.31.25-.46.38-.42.34-.02.03-.36.28-3.32,2.45-6.89,4.15-10.68,5.38-10.15,3.29-21.21,3.56-31.77,2.73-18.01-1.42-34.77-7.81-49.81-17.6-12.31-8.02-22.9-18-34.17-27.7-4.48-3.86-9.09-7.69-14.19-10.72-6.29-3.74-13.2-5.31-20.53-5.33-11.23-.03-21.9,3.73-32.39,7.29-4.95,1.68-9.92,3.33-15.05,4.39-2.38.49-4.79.84-7.22.96-2.3.11-4.81.18-7.07-.31-2.95-.65-5.87-2.06-8.66-3.19-1.06-.43-2.12-.86-3.18-1.3-.57-.24-1.15-.48-1.72-.72-.33-.14-.65-.27-.98-.41-.12-.05-.44-.19.1.04-.22-.09-.45-.19-.67-.28-2.75-1.17-5.5-2.35-8.24-3.56-13.66-5.99-27.19-12.27-40.6-18.8s-27.28-13.55-40.45-21.18c-4.95-2.87-9.87-5.84-14.53-9.16-.47-.33-.93-.67-1.39-1.01-.2-.15-.4-.3-.6-.45-.12-.09-.23-.18-.35-.27-.35-.27.48.38-.06-.05-.75-.6-1.5-1.2-2.22-1.84-.63-.56-1.25-1.14-1.82-1.76-.22-.23-.42-.47-.63-.71-.42-.49.04.07.01.03-.08-.14-.19-.26-.28-.4-.15-.22-.28-.46-.41-.69-.02-.03-.16-.29-.14-.3.33-.31.22.8.16.36,0-.02-.04-.16-.06-.17-.06-.03-.06-.27-.09-.33-.13-.25-.04.59.05.35s.01-.64.03-.9c.01-.16.03-.33.04-.49.02-.16.03-.33.05-.49-.04.26-.03.24.01-.06.63-3.83,2.07-6.65,4.27-9.92s4.98-6.43,7.8-9.64c3.09-3.51,6.17-7.03,8.98-10.77,4.99-6.63,8.53-13.85,10.44-21.93.67-2.83,1.35-5.66,2.02-8.49,2.29-9.64,4.5-19.29,6.59-28.97,2.96-13.63,5.71-27.3,8.2-41.02,2.89-15.88,5.44-31.82,7.54-47.82s3.79-32.64,4.61-49.05c.76-15.1.85-30.3-.55-45.37-1.16-12.5-3.2-25.21-7.94-36.91-3.84-9.48-9.52-18.36-18.34-23.88-9.73-6.08-18.94-13.3-25.79-22.61-5.22-7.11-8.71-14.78-11.02-23.19-4.12-15.01-4.16-31.02-10.48-45.42-3.6-8.19-9.37-14.64-15.87-20.66-8.61-7.97-18.06-15.04-27.92-21.4-20.3-13.1-42.59-23.46-65.71-30.48-5.33-1.62-10.72-3.05-16.16-4.24-6.13-1.34-12.29-2.41-18.36-4-8.58-2.25-17.13-4.96-24.45-10.03-.28-.2-.56-.4-.84-.6-.16-.12-.32-.24-.48-.36.48.37-.03-.03-.11-.09-.52-.43-1.04-.87-1.54-1.33-.46-.43-.9-.87-1.32-1.33-.18-.2-.36-.4-.53-.6-.1-.12-.2-.24-.3-.36-.45-.53.17.25-.08-.1-.6-.84-1.15-1.7-1.6-2.63-.06-.12-.1-.24-.16-.35-.22-.42.19.49.08.19-.08-.22-.17-.43-.24-.64-.16-.45-.29-.92-.39-1.39-.04-.19-.08-.38-.11-.57-.13-.68,0,.18,0-.01,0-.44-.08-.89-.08-1.33,0-.4.03-.79.06-1.19.05-.76-.14.45,0-.04.09-.34.16-.68.27-1.01.19-.57-.26.48.03-.07.09-.16.17-.33.26-.49.16-.28.34-.54.53-.81.38-.54-.34.38.11-.13.14-.16.27-.32.41-.47.3-.32.61-.63.93-.93,1.3-1.21,2.3-1.91,3.98-2.99,3.33-2.15,6.87-3.95,10.32-5.91,2.67-1.52,5.86-3.19,7.57-5.85s.46-5.69-1.44-7.84-4.71-3.6-7.35-4.76c-3.34-1.46-6.8-2.63-10.22-3.88-1.67-.61-3.34-1.23-4.98-1.92.35.15-.53-.23-.71-.31-.43-.19-.85-.39-1.28-.59-.75-.36-1.5-.74-2.23-1.15s-1.39-.81-2.05-1.26c-.18-.12-.35-.24-.52-.37-.06-.05-.62-.47-.16-.11-.32-.25-.64-.51-.94-.79-.54-.49-1.04-1.01-1.5-1.56-.08-.09-.28-.38.03.05-.11-.15-.23-.31-.33-.47-.21-.32-.41-.64-.59-.98-.09-.17-.17-.34-.25-.51-.28-.58.17.5-.04-.11-.1-.3-.21-.61-.29-.92s-.15-.64-.21-.96c-.12-.66.03.54-.01-.14-.02-.28-.04-.55-.04-.83,0-.35,0-.7.03-1.05.01-.2.03-.4.05-.61,0-.02.08-.68.03-.27s.04-.24.04-.26c.04-.19.07-.39.11-.58.08-.38.17-.76.28-1.14.1-.34.2-.68.32-1.01.05-.15.11-.3.17-.45.23-.61-.23.48.04-.11.32-.7.67-1.37,1.09-2.02.17-.27.36-.53.54-.8.4-.58-.14.12.33-.42.52-.61,1.06-1.2,1.65-1.74.25-.23.51-.46.77-.68.16-.14.32-.27.49-.4-.45.36.11-.08.17-.13.66-.47,1.33-.92,2.03-1.34,1.63-.97,3.18-1.68,4.63-2.23,8.97-3.39,18.78-3.92,28.28-3.76,6.35.11,12.62.78,18.93,1.36,4.98.46,10.03.54,14.97-.32,3.18-.55,6.32-1.62,9.07-3.34,2.19-1.36,4.1-3.11,5.93-4.91.8-.8,1.6-1.6,2.44-2.36.42-.39.86-.76,1.3-1.13.12-.1.25-.2.37-.3-.51.4-.19.14-.06.05.29-.2.57-.41.87-.61.52-.35,1.06-.67,1.61-.96.26-.14.53-.27.8-.4.17-.08.33-.15.5-.23-.59.27,0,0,.1-.04,1.53-.58,3.11-1.01,4.72-1.28.77-.13,1.06-.17,2.11-.25,1.15-.1,2.31-.14,3.47-.14,2.27,0,4.55.1,6.81.34.89.1,1.19.13,2.23.32.89.16,1.78.35,2.65.58.72.19,1.44.41,2.15.66.3.11.6.22.9.34.6.23-.49-.22.09.04.17.07.34.15.5.23,1.22.57,2.38,1.24,3.5,1.99.52.35,1.03.72,1.53,1.1.53.4-.22-.19.31.24.27.22.55.44.82.66,2.4,1.95,4.74,3.96,7.22,5.8,8.2,6.05,17.84,9.84,27.54,12.71,18.17,5.36,37.97,6.78,56.73,4.24,8.38-1.14,16.77-3.17,24.35-7.01,6.13-3.11,11.93-7.76,14.8-14.16,3.33-7.42,2.08-15.49-.1-23.07-2.74-9.53-7.15-18.52-11.48-27.41-3.97-8.14-8.16-16.11-10.57-24.82-1.01-3.66-1.56-6.45-1.23-10.24.01-.14.03-.29.04-.43.07-.72-.09.52.02-.19.06-.35.12-.7.2-1.05.18-.82.43-1.63.73-2.42.25-.65-.22.46.08-.18.06-.13.12-.25.18-.38.19-.38.39-.75.61-1.12.55-.91.7-1.1,1.21-1.69,2.51-2.87,6.14-4.85,9.91-6.29.97-.37,1.97-.7,2.98-.96.47-.12.93-.23,1.41-.32.21-.04.41-.08.62-.11.31-.05.33-.05.07-.01.16-.02.32-.04.48-.05.81-.06,1.62-.1,2.43-.05.18,0,1.32.13.77.05.43.06.86.14,1.28.24.77.18,1.52.42,2.25.72-.48-.19.42.2.59.28.46.23.91.47,1.35.74.65.39,1.28.82,1.89,1.26.03.02.64.48.24.18.19.15.37.3.56.45.38.31.75.63,1.11.95,3.14,2.8,5.89,6.03,8.65,9.2,7.64,8.79,15.55,17.16,25.08,23.96,8.96,6.39,19.51,10.41,30.33,12.24,9.95,1.68,20.1,1.69,30.06.11,6.96-1.1,14.46-2.92,20.45-6.79,2.8-1.81,4.79-4.08,5.9-7.27,1.58-4.53.91-9.59.48-14.26s-.99-9.98.9-14.54c.61-1.47,1.5-2.89,2.67-3.99.15-.15.31-.29.47-.42.1-.08.73-.59.38-.32s.34-.25.45-.33c.25-.18.51-.36.77-.53,2.42-1.6,5.03-2.89,7.65-4.11,3.45-1.6,6.29-2.75,9.98-4.18,8.25-3.2,16.61-6.08,24.96-9s16.18-5.64,24.14-8.8c5.76-2.29,11.94-4.61,16.98-8.32,3.95-2.91,7.73-6.11,10.83-9.93,3.65-4.5,6.3-9.6,8.23-15.06,2.48-7.03,3.76-14.43,4.67-21.81,1.35-10.93,1.73-21.97,1.82-32.98.03-3.22-4.97-3.22-5,0-.1,11.58-.48,23.48-2.06,34.82-1.03,7.39-2.55,14.83-5.45,21.74.23-.56-.22.51-.3.67-.13.29-.27.59-.4.88-.32.68-.66,1.34-1.01,2.01-.61,1.14-1.27,2.26-1.98,3.34-.34.52-.69,1.03-1.05,1.53-.19.27-.39.53-.59.8-.08.11-.29.37.09-.12-.13.17-.27.34-.4.51-.74.91-1.51,1.8-2.32,2.65-1.63,1.71-3.39,3.29-5.22,4.77-.45.37-.91.73-1.37,1.09s.45-.35,0,0c-.13.1-.26.2-.38.29-.25.19-.49.38-.74.56-.95.69-1.95,1.31-2.97,1.89-6.26,3.57-12.25,5.74-19,8.26-8.39,3.13-16.87,6.02-25.32,9-7.97,2.8-15.95,5.63-23.74,8.91-5.35,2.25-11.36,4.59-15.65,8.64-7.61,7.17-5.02,18.39-4.59,27.56.11,2.33.1,4.5-.49,6.61-.29,1.06-.53,1.62-1.11,2.54-.1.16-.22.32-.32.48-.48.75.36-.29,0,0-.18.15-.33.38-.5.55-.19.19-.39.37-.59.55-.12.11-.81.63-.17.16-.52.39-1.05.75-1.6,1.09-1.2.73-2.45,1.35-3.73,1.92-.07.03-.72.3-.19.08-.2.08-.4.17-.61.25-.35.14-.7.27-1.05.4-.89.33-1.79.64-2.69.92-1.82.57-3.67,1.06-5.53,1.48-4.39.98-8.44,1.53-12.91,1.8-10.21.62-20.53-.44-30.29-3.54-11.26-3.58-20.86-10.2-29.37-18.29-3.94-3.74-7.6-7.76-11.16-11.85-2.9-3.32-5.73-6.72-8.87-9.81-2.59-2.54-5.47-4.92-8.83-6.37-3.6-1.55-7.39-1.85-11.23-1.14-4.42.81-8.95,2.88-12.64,5.42-3.18,2.19-5.72,5.04-7.19,8.63-2.88,7.02-.9,15.11,1.55,21.94,3.22,9,7.74,17.49,11.85,26.09s8.13,17.4,10.01,26.78c.42,2.09.68,3.7.76,5.8.03.83.02,1.66-.04,2.49-.03.37-.06.73-.11,1.1.07-.61-.02.11-.03.2-.04.25-.09.49-.13.74-.15.73-.33,1.45-.55,2.15-.13.4-.27.79-.41,1.18-.05.13-.1.26-.15.39.23-.56-.12.26-.17.35-.61,1.31-1.65,2.97-2.32,3.83-1.87,2.41-4.43,4.54-7.03,6.18-3.32,2.09-6.43,3.46-9.94,4.67-8.4,2.89-17.03,4.15-25.79,4.61-19.79,1.03-40.47-1.82-58.67-9.95-3.93-1.76-7.72-3.82-11.26-6.28-.65-.45-1.29-.92-1.93-1.4-.17-.13-.34-.26-.52-.39.45.35-.1-.08-.16-.13-.32-.25-.64-.51-.96-.76-1.11-.89-2.19-1.81-3.29-2.72-2.12-1.75-4.3-3.49-6.73-4.79-2.82-1.51-5.9-2.49-9.05-3.02-7.68-1.3-16.53-1.55-23.68,1.96-4.52,2.22-7.61,6.23-11.4,9.39-.12.1-.45.34.06-.04-.13.1-.26.2-.4.3-.23.16-.46.33-.69.48-.58.39-1.19.75-1.81,1.08-.27.14-.55.28-.83.42-.17.08-.35.16-.52.24-.6.27.5-.19-.13.05-.75.29-1.51.55-2.29.77-4.03,1.14-8.02,1.26-12.43,1.07-6.35-.27-12.64-1.24-18.99-1.51-5.62-.25-11.27-.21-16.88.31-8.27.77-17.22,2.4-24.17,7.25-5.44,3.8-9.28,9.79-9.01,16.61.29,7.33,6.44,11.77,12.56,14.54,3.43,1.55,6.98,2.8,10.52,4.07,1.64.59,3.28,1.19,4.9,1.84.21.08.41.17.62.25-.43-.18-.08-.03,0,0,.39.17.78.34,1.17.52.7.33,1.4.67,2.07,1.05.57.32,1.13.66,1.67,1.03.15.1.29.2.43.31-.54-.39-.07-.06.03.03.25.22.5.43.73.66.19.19.36.38.53.58.37.4-.31-.47-.02-.03.08.12.17.24.25.37.13.21.22.44.35.64.27.41-.13-.54-.03-.06.03.16.1.33.15.48.25.76.04-.43.02.11,0,.18.16-.62-.03-.02-.13.4.36-.47.06-.17-.07.07-.15.24-.2.33-.18.33.12-.14.15-.18-.13.15-.25.3-.39.44-.18.2-.38.38-.58.56-.13.12-.99.79-.47.4-.64.47-1.29.91-1.96,1.34-3.25,2.04-6.69,3.75-10.01,5.68s-6.65,3.94-9.1,6.81c-1.89,2.21-2.86,4.71-2.79,7.62.05,2.17.6,4.23,1.52,6.19,2.37,5.1,7.26,8.77,12.03,11.47,8.81,4.98,18.85,7.79,28.67,9.99,5.85,1.31,11.75,2.31,17.56,3.76s11.08,3.01,16.53,4.82c22.89,7.61,44.89,18.47,64.74,32.2,9.33,6.45,18.2,13.62,26.13,21.74,2.92,2.99,5.15,5.87,7.24,9.51,1.98,3.45,3.19,6.33,4.39,10.07,4.8,14.94,4.76,30.97,10.19,45.77,3.29,8.97,8.26,17.13,14.71,24.19,3.97,4.34,8.42,8.2,13.13,11.72,3.77,2.82,7.87,5.15,11.67,7.92.13.1.44.35-.09-.07.12.09.24.19.36.28.2.16.39.32.58.48.47.39.92.79,1.37,1.21.85.79,1.66,1.61,2.43,2.48.37.41.72.83,1.07,1.25.2.24.4.49.6.74.07.08.13.17.2.25-.46-.59,0,0,.09.13.73.98,1.42,1.99,2.08,3.02,1.39,2.19,2.62,4.49,3.71,6.85.25.54.49,1.09.73,1.63.05.11.29.69.03.07.07.17.14.34.21.5.14.34.28.68.41,1.02.53,1.34,1.02,2.69,1.47,4.05,1.95,5.81,3.32,11.81,4.34,17.85.27,1.59.52,3.19.74,4.79.03.22.06.44.09.67-.07-.51,0-.01.01.12.05.41.11.82.16,1.23.11.91.22,1.81.32,2.72.39,3.51.68,7.04.9,10.57.96,15.47.55,31.02-.48,46.48-.55,8.22-1.29,16.43-2.18,24.62s-1.92,16.35-3.05,24.28c-2.22,15.68-4.87,31.29-7.82,46.84-2.49,13.1-5.19,26.15-8.08,39.16-1.95,8.77-3.98,17.52-6.07,26.25-.83,3.47-1.53,7.02-2.69,10.4-3.12,9.07-9.32,16.51-15.56,23.61-5.42,6.16-11.65,12.62-13.89,20.75-.69,2.49-1.3,5.36-.13,7.79.62,1.3,1.62,2.44,2.63,3.47,3.14,3.19,6.97,5.77,10.7,8.22,5.26,3.46,10.72,6.63,16.22,9.7,13.6,7.59,27.56,14.55,41.61,21.28,13,6.23,26.1,12.25,39.35,17.94,4.6,1.97,9.21,3.93,13.87,5.73,1.39.54,2.8,1.07,4.22,1.54,3.22,1.06,6.91,1.03,10.26.81,10.71-.69,20.75-4.88,30.85-8.15s21.49-5.9,32.46-3.43c1.17.26,2.31.6,3.43,1.02.27.1.53.21.8.31.15.06.52.23-.09-.04.15.06.29.13.44.19.59.27,1.18.55,1.75.84,2.34,1.2,4.56,2.64,6.7,4.17.51.37,1.02.74,1.52,1.12.31.23.62.47.92.7.5.39-.28-.22.04.03.18.14.36.28.54.43,1.23.97,2.43,1.95,3.63,2.96,2.52,2.11,4.98,4.28,7.44,6.45,11.65,10.29,23.43,20.53,37.03,28.2,16.75,9.45,35.53,14.43,54.78,14.31,17.15-.11,37.54-4.16,45.51-21.33,2.78-5.98,3.83-12.5,4.2-19.04.32-5.58.04-11.18.45-16.75.04-.54.09-1.08.15-1.61.01-.12.03-.24.04-.36.05-.54-.1.62,0,.07.05-.3.09-.61.14-.91.22-1.26.5-2.51.83-3.74.35-1.32.76-2.62,1.22-3.9.24-.69.5-1.37.77-2.04.13-.32.26-.63.39-.95-.23.56.04-.09.07-.17.11-.26.23-.51.34-.77,1.4-3.1,3.04-6.08,4.88-8.94,2.14-3.31,4.05-5.81,6.67-8.7,12.74-14.11,30.71-22.12,49.69-23.76,12.15-1.05,24.32.92,36.05,3.96,13.23,3.43,26.07,8.24,38.75,13.33,6.51,2.61,12.97,5.31,19.45,8,3.93,1.63,7.73,3.22,11.37,5.44,6.46,3.93,12.45,8.59,18.99,12.38,7.7,4.47,16.02,7.65,24.92,8.56,11.05,1.14,21.99-1.57,32.19-5.63,19.82-7.9,36.69-21.83,53.21-34.98,1.5-1.19,3-2.38,4.51-3.56.62-.48-.37.28.24-.18.18-.14.36-.28.54-.42.29-.22.58-.44.87-.66.64-.48,1.28-.95,1.92-1.41,2.63-1.87,5.52-3.32,8.23-5.07,8.52-5.5,16.41-12.17,23.3-19.59,6.21-6.68,12.48-14.53,14.91-23.49,1.79-6.61.67-14.18-5.81-17.71-2.77-1.51-5.91-2.21-9.01-2.65-3.71-.53-7.45-.77-11.19-1.08-7.22-.59-14.85-1.38-20.99-5.38-3.01-1.96-5.41-4.76-7.1-8.29-2.73-5.7-4.01-12.19-4.13-18.48-.1-5.25.62-10.43,1.72-15.55.78-3.62,1.91-7.26,2.15-10.97.67-10.48-5.15-19.25-9.81-28.12-1.79-3.41-3.34-6.83-3.05-10.5.04-.5.02-.18,0-.06.03-.19.06-.38.1-.56.07-.3.17-.57.25-.87.04-.16.23-.52-.04.06.07-.15.14-.3.22-.45.16-.3.33-.59.52-.88.1-.15.2-.29.3-.43-.38.54-.03.04.05-.06.2-.23.4-.46.61-.69.54-.57,1.12-1.1,1.73-1.6.11-.09.21-.17.32-.26.54-.44-.41.3.16-.13.32-.24.64-.47.96-.7.71-.5,1.44-.98,2.18-1.45,1.59-1.01,3.21-1.96,4.83-2.92,3.38-1.99,6.75-4,9.87-6.39s6.26-5.36,8.36-8.93c2.31-3.91,3.28-8.39,2.92-12.91-.33-4.2-1.77-8-4.51-11.21-2.24-2.62-5.15-4.55-7.89-6.6-.13-.1-.94-.71-.55-.42-.32-.25-.64-.5-.95-.76-.66-.54-1.3-1.11-1.91-1.71s-1.15-1.19-1.66-1.85c.26.33-.32-.45-.42-.61-.31-.46-.59-.94-.85-1.43-.77-1.45-1.33-3.26-1.6-5.24-.14-1.03-.2-2.09-.16-3.14,0-.16.12-1.31.05-.84.08-.5.21-.98.35-1.47.2-.67-.15.12.2-.44.09-.14.58-.87.37-.61s.37-.35.47-.47.56-.44-.01-.02c.13-.09.25-.19.39-.27.51-.31,1.02-.57,1.55-.83s-.54.21,0,0c.1-.04.2-.08.3-.12.36-.14.71-.27,1.07-.41,2.8-1.06,5.51-2.38,6.91-5.2,1.61-3.26,1.29-6.99.78-10.47s-1.32-6.73-2.25-10.02c-2.41-8.5-5.65-16.83-9.59-24.75-3.47-6.97-7.64-14.4-13.67-19.51-2.47-2.09-5.27-3.79-8.53-4.17s-6.33.71-8.99,2.38c-6.38,4-10.88,10.57-15.45,16.38-2.24,2.84-4.5,5.71-7.12,8.21-.55.53-1.13,1.04-1.72,1.52-.1.08-.21.17-.31.25.48-.37-.04.02-.12.08-.31.21-.62.43-.93.63s-.62.37-.93.53c-.17.09-1.03.43-.34.17-.28.1-.57.21-.86.29-.24.07-1.31.19-.5.14-.26.02-.52.05-.78.05s-1.16-.21-.43,0c-.26-.07-.52-.11-.78-.18-.16-.05-.31-.11-.47-.16-.54-.18.48.26-.03-.02-.25-.13-.56-.38-.83-.46-.37-.11.58.47.27.21-.07-.06-.13-.12-.19-.19-.35-.39.26.57.16.21-.02-.07-.1-.16-.14-.22-.29-.51.19.2.09.25,0,0-.18-.56-.2-.62-.03-.12-.04-.26-.08-.38-.13-.46.04.75.04.26,0-.3-.04-.59-.04-.89,0-.64.08-1.27.14-1.9-.09,1.06.04-.21.1-.52.08-.43.17-.85.27-1.27.43-1.89,1.02-3.74,1.66-5.57.37-1.06.76-2.1,1.17-3.14.22-.56.44-1.11.67-1.67.12-.29.24-.57.35-.86.05-.13.11-.26.17-.39-.28.67.03-.07.09-.2,1.11-2.58,2.28-5.14,3.51-7.67,6.11-12.66,13.17-24.87,20.56-36.81,8.15-13.18,16.8-26.08,26.05-38.52,4.16-5.59,8.12-10.68,12.77-16.18,3.77-4.45,7.67-8.81,11.89-12.84,1.69-1.62,3.43-3.18,5.27-4.63.13-.11.82-.62.15-.12.22-.16.43-.33.65-.49.38-.28.77-.56,1.16-.83.75-.51,1.51-1,2.3-1.44.34-.19.69-.37,1.04-.54.15-.07.31-.14.46-.21.66-.31-.5.17.03-.01.64-.22,1.26-.43,1.93-.58.05-.01.35-.1.39-.07,0,0-.8.08-.36.05.32-.02.64-.06.95-.08,1.52-.12,3.03-.22,4.55-.29,2.7-.12,5.4-.14,8.1-.09,3.76.07,7.54.42,11.29.24,2.86-.14,5.76-.67,8.1-2.41,4.97-3.69,6.57-10.1,7.48-15.89,1.31-8.28,1.81-16.68,2.35-25.04.61-9.26,1.13-18.54,2.1-27.78.43-4.04.83-7.37,1.62-11.42.31-1.58.66-3.16,1.09-4.71.19-.68.39-1.36.62-2.03.11-.31.22-.62.33-.93.05-.13.11-.27.16-.4.26-.68-.15.31.04-.09,2.69-5.85,5.96-11.4,9.16-16.99,4.33-7.56,8.63-15.14,12.5-22.95s7.32-15.57,9.34-23.88c1.59-6.57,2.36-13.96-.75-20.22-1.4-2.81-3.56-4.81-6.29-6.3-3.13-1.7-6.58-2.84-9.99-3.81-18.89-5.38-38.83-6.95-56.99-14.85-10-4.36-18.7-11.05-26.83-18.24-6.96-6.17-13.63-12.8-21.85-17.33-9.16-5.05-19.33-7.06-29.5-8.97-8.92-1.67-17.9-3.23-26.57-5.95-7.67-2.41-15.22-5.84-20.79-11.64-2.62-2.73-4.85-6.18-6.21-9.69s-1.85-7.21-2.48-10.97c-2.5-14.92-12.95-30.89-29.58-30.89-5.33,0-10.54,1.44-15.6,2.95-4.42,1.31-8.95,2.92-13.44,2.82-1.77-.04-3.41-.41-4.96-1.34-.28-.17-.54-.36-.81-.54-.41-.28.37.31.11.09-.09-.08-.19-.15-.28-.23-.46-.41-.9-.82-1.32-1.27s-.81-.91-1.19-1.39c-.28-.34.03.04.07.09-.11-.14-.22-.28-.32-.43-.22-.3-.43-.59-.64-.9-.88-1.27-1.7-2.59-2.48-3.92-4.01-6.81-7.5-13.92-11.7-20.62-5.44-8.68-11.86-16.81-19.57-23.6-9.04-7.97-19.69-13.79-30.38-19.24s-21-10.06-31.36-15.37c-8.03-4.12-16.47-8.48-22.68-14.89-.62-.64-1.2-1.3-1.76-1.98-.1-.12-.2-.24-.29-.36.31.41-.14-.2-.16-.23-.26-.37-.52-.73-.76-1.11-.43-.67-.8-1.37-1.15-2.09-.04-.07-.32-.72-.09-.18-.08-.19-.16-.39-.23-.58-.14-.39-.27-.78-.38-1.18-.09-.33-.17-.67-.24-1-.04-.2-.08-.4-.11-.61-.12-.68.04.54-.02-.15s-.11-1.38-.22-2.07c-.17-1.06-.51-2.04-.94-3.02-1.81-4.12-5.55-7.22-9.31-9.51-4.74-2.88-10.13-4.79-15.54-5.95-11.95-2.55-25.46-1.86-36.1,4.65-5.08,3.11-9.31,7.54-12.11,12.81-3.45,6.51-4.76,13.88-4.83,21.19-.03,3.22,4.97,3.22,5,0Z"/>
      </g>
      <path class="cls-3" d="M543.45,78.08c.04-4.23.39-7.68,1.47-11.71.23-.86.49-1.7.77-2.54.13-.37.26-.74.4-1.1.08-.22.17-.43.25-.65.06-.14.11-.28.17-.43-.1.25-.1.24.02-.03.65-1.47,1.4-2.9,2.26-4.27.41-.66.85-1.29,1.31-1.92.05-.07.47-.62.11-.16.08-.11.17-.22.26-.32.28-.34.56-.69.86-1.02,1-1.13,2.08-2.19,3.24-3.17.25-.21.51-.42.77-.63-.46.36.45-.34.6-.44.59-.42,1.19-.82,1.81-1.21,1.28-.8,2.62-1.5,4-2.13.15-.07.3-.13.45-.2.37-.16-.56.22.04-.02.37-.15.73-.3,1.1-.43.68-.26,1.37-.49,2.06-.71,1.46-.46,2.94-.83,4.44-1.13.66-.13,1.31-.24,1.97-.35.2-.03.4-.06.6-.09-.65.09.02,0,.13-.02.4-.05.8-.09,1.2-.13,1.5-.15,3.01-.23,4.53-.24s3.02.03,4.52.14c.73.05,1.46.12,2.19.2.33.04.66.08.99.12.67.08-.55-.08.12.02.2.03.39.06.59.09,2.87.43,5.7,1.07,8.47,1.94,1.34.42,2.67.89,3.98,1.42.11.04.22.09.33.14.57.23-.5-.22.06.03.27.12.54.24.8.36.63.29,1.25.59,1.86.9,1.1.56,2.17,1.18,3.2,1.85.46.3.91.61,1.35.93.12.09.24.18.37.27.44.32-.45-.36-.03-.02.23.19.46.37.69.56.78.67,1.53,1.38,2.21,2.15.18.2.33.41.51.61.16.18-.33-.48.08.11.29.41.57.82.82,1.26.22.38.39.79.6,1.18-.25-.49-.12-.32,0,.06.07.22.15.44.21.66.12.4.17.81.26,1.22-.2-.87-.03-.25-.02,0,.04.61.11,1.21.19,1.81,1.08,7.5,7.1,13.1,12.9,17.36,8.18,6.01,17.5,10.45,26.61,14.86,10.76,5.21,21.62,10.24,32.06,16.08,5.23,2.92,10.42,5.99,15.17,9.66,4.25,3.28,8.17,6.99,11.76,10.97,6.23,6.93,11.28,14.77,15.82,22.88,3.36,6,6.29,12.42,10.44,17.93,1.71,2.27,3.68,4.46,6.29,5.7,4.32,2.06,9.09,1.66,13.63.63,9.47-2.15,19.4-7.26,29.16-3.62,3.96,1.48,7.29,4.33,9.89,7.72,1.03,1.35,2.26,3.33,3.16,5.05.4.77.78,1.54,1.14,2.33.4.89.55,1.24.95,2.32.92,2.45,1.67,4.98,2.2,7.55.08.4.17.81.22,1.21-.13-.87,0,.25.02.36.05.45.11.89.17,1.33.07.55.15,1.09.25,1.63.21,1.25.48,2.49.8,3.71,2.26,8.46,7.41,15.52,14.54,20.54s15.45,7.74,23.71,9.82c8.84,2.22,17.86,3.62,26.79,5.42,5.39,1.08,10.72,2.37,15.83,4.43,4.3,1.74,8.34,4.09,12.08,6.82,7.49,5.47,14.16,12.58,21.54,18.44,4.57,3.63,9.33,7.16,14.46,9.97,4.52,2.48,9.32,4.47,14.19,6.16,9.84,3.42,20.05,5.6,30.23,7.71,8.35,1.73,16.94,3.18,24.96,6.14.42.16.85.32,1.27.49-.01,0,.65.27.31.12s.3.13.29.13c.74.33,1.46.68,2.17,1.07.59.33,1.17.68,1.72,1.06.09.07.19.14.28.2.49.34-.42-.35.03.02.27.23.52.44.75.71.12.14.24.29.36.43-.4-.5,0,0,.06.09.17.26.35.51.51.77s.31.53.46.8c.11.2.61,1.34.38.75.53,1.32.87,2.69,1.09,4.09-.1-.66.05.46.06.64.03.38.06.76.07,1.14.04.86.03,1.72-.01,2.58-.04.75-.1,1.5-.18,2.24-.03.23-.05.46-.08.69.08-.56-.03.21-.04.26-.08.47-.15.94-.24,1.41-.71,3.84-1.86,7.6-3.2,11.26-5.67,15.56-14.81,30.1-22.96,44.68-2.88,5.14-5.7,10.28-7.07,16.05-1.91,8.03-2.58,16.39-3.23,24.61-.72,9.18-1.2,18.39-1.9,27.57-.31,4.05-.66,8.11-1.17,12.14-.03.24-.06.48-.09.72-.1.78.07-.5-.04.27-.05.38-.11.76-.16,1.14-.13.86-.27,1.71-.43,2.57-.25,1.35-.53,2.7-.9,4.02-.16.55-.32,1.1-.52,1.64-.08.22-.17.44-.25.66.31-.84-.18.35-.28.56-.35.7-.73,1.39-1.16,2.05-.1.16-.79,1.11-.41.62-.23.29-.46.56-.71.83-.2.21-.41.4-.62.6-.12.11-.25.22-.38.32.53-.44.11-.08-.02,0-.23.14-.44.29-.68.42-.22.12-1.06.48-.4.23-.56.22-1.13.39-1.71.52-.31.07-.62.12-.93.17-.38.06.65-.06.04,0-.25.02-.49.05-.74.07-3.59.28-7.24-.07-10.83-.16-5.1-.14-10.34-.18-15.4.5-3.38.45-6.45,2.4-9.12,4.41-4.05,3.03-7.7,6.54-11.17,10.2-9.41,9.92-17.75,20.88-25.72,31.98-9.07,12.63-17.59,25.66-25.58,38.99-6.84,11.43-13.42,23.1-18.87,35.26-1.97,4.4-3.86,8.88-5.18,13.52-.83,2.94-1.68,6.35-.91,9.39,1.13,4.45,6.83,5.6,10.66,4.21,3.05-1.11,5.59-3.31,7.81-5.62,2.58-2.68,4.86-5.63,7.15-8.55s4.77-6.14,7.42-8.98c1.19-1.28,2.43-2.51,3.77-3.63.17-.14.35-.29.52-.43.57-.46-.39.28.19-.15.29-.21.58-.42.88-.62.68-.46,1.4-.88,2.14-1.24.15-.07.3-.14.45-.21.36-.17-.56.2.04-.01.33-.12.66-.24,1-.34s.67-.17,1.01-.24c.13-.03.76-.09.08-.02.19-.02.37-.04.56-.05.36-.02.71-.01,1.07,0,.11,0,.21.03.32.03.55,0-.54-.17-.02,0,.64.21,1.3.32,1.94.56-.6-.23.17.08.37.18.27.14.54.28.81.44.33.19.65.4.97.61.14.1,1.06.78.62.43,1.3,1.02,2.48,2.18,3.58,3.41,2.45,2.73,4.49,5.78,6.49,9.19,2.25,3.82,4.22,7.81,6.01,11.86,3.25,7.36,6.07,15.37,7.88,23.37.34,1.51.65,3.04.88,4.58.03.19.05.37.08.56-.09-.69-.01-.08,0,.06.03.29.06.57.09.86.07.77.11,1.54.1,2.31,0,.45-.03.9-.08,1.35.04-.38-.13.65-.18.84s-.44,1.22-.18.66c-.15.34-.34.64-.53.96-.3.5.36-.39-.02.04-.11.12-.22.25-.34.37-.14.14-.82.68-.23.25-.53.38-1.09.68-1.67.97-.1.05-.2.09-.3.13-.52.24.53-.21,0,0-.25.1-.51.2-.76.3-.61.23-1.22.46-1.83.71-1.43.59-2.76,1.26-3.89,2.33-2.91,2.74-3.12,7.04-2.64,10.75.55,4.29,2.14,8.13,5.03,11.38,2.32,2.6,5.26,4.54,8.02,6.62.18.13.35.27.53.4-.36-.28-.05-.04.01.01.34.27.68.55,1.02.83.64.54,1.26,1.11,1.84,1.71.28.29.55.58.81.89.12.14.24.28.35.42.27.33-.33-.47.08.11.53.75.99,1.52,1.4,2.34.29.57.09.11.31.73.17.48.32.95.45,1.44.28,1.05.38,1.71.45,2.63.18,2.28.08,4.34-.55,6.51-1,3.45-3.06,6.29-5.79,8.88s-5.73,4.54-9.11,6.6c-3.13,1.9-6.36,3.67-9.4,5.72-2.66,1.79-5.37,3.85-7.03,6.66-4.37,7.39,1.34,16.27,4.92,22.69,2.34,4.2,4.6,8.47,5.76,13.16.59,2.38.84,4.8.73,7.25-.02.38-.05.75-.09,1.13s.1-.64,0-.02c-.03.2-.06.39-.09.59-.15.89-.34,1.76-.53,2.64-1,4.49-2.05,8.94-2.64,13.5-.78,6-.72,12.04.38,18,1.03,5.57,2.9,11.5,6.34,16.08,2.44,3.24,5.58,5.85,9.24,7.61,7.15,3.45,15.18,4.06,22.97,4.67,1.77.14,3.55.28,5.32.46.42.04.85.09,1.27.14.19.02.38.05.57.07.07,0,.82.11.23.03.86.12,1.73.26,2.58.43,1.44.28,2.85.67,4.23,1.17.65.24-.17-.11.42.18.32.16.64.31.96.49.25.14.5.29.75.45.14.09.28.2.42.29.45.31-.34-.3.03.03.47.41.9.84,1.3,1.32-.46-.55.19.3.29.47.18.3.34.61.49.93.26.53-.13-.37,0-.01.05.15.11.29.16.44.14.4.25.82.34,1.23.04.18.2,1.18.13.61.05.44.08.87.1,1.31.02.83-.02,1.67-.12,2.49.06-.47-.09.54-.13.74-.11.56-.24,1.12-.39,1.67-.53,1.97-1.12,3.41-1.94,5.1-4.24,8.67-11.04,16.05-18.06,22.54-3.65,3.38-7.49,6.56-11.53,9.46-3.33,2.39-6.83,4.39-10.31,6.52-2.55,1.56-4.91,3.45-7.27,5.29-3.37,2.62-6.68,5.31-10.03,7.96-16.81,13.33-34.71,26.9-55.74,32.61-9.51,2.58-19.33,2.88-28.7.13-7.73-2.26-14.71-6.39-21.51-10.96-5.95-3.99-11.76-8.45-18.41-11.23-12.82-5.36-25.64-10.77-38.68-15.59-12.35-4.56-24.99-8.63-37.99-10.83-11.89-2.01-23.79-2.18-35.63.26-18.16,3.73-34.6,13.58-45.94,28.3-7.44,9.66-12.8,21.21-13.21,33.53-.19,5.76,0,11.53-.55,17.28-.07.72-.15,1.44-.24,2.16s.08-.54-.02.16c-.03.21-.06.41-.09.62-.06.41-.13.82-.2,1.23-.27,1.51-.6,3-1.02,4.47-.93,3.29-1.77,5.32-3.63,8.26-.43.67-.88,1.33-1.36,1.96.29-.38-.32.39-.43.53-.33.4-.68.79-1.04,1.18-.52.56-1.07,1.1-1.63,1.61-.35.32-.7.63-1.07.93-.15.13-.31.25-.46.38-.42.34-.02.03-.36.28-3.32,2.45-6.89,4.15-10.68,5.38-10.15,3.29-21.21,3.56-31.77,2.73-18.01-1.42-34.77-7.81-49.81-17.6-12.31-8.02-22.9-18-34.17-27.7-4.48-3.86-9.09-7.69-14.19-10.72-6.29-3.74-13.2-5.31-20.53-5.33-11.23-.03-21.9,3.73-32.39,7.29-4.95,1.68-9.92,3.33-15.05,4.39-2.38.49-4.79.84-7.22.96-2.3.11-4.81.18-7.07-.31-2.95-.65-5.87-2.06-8.66-3.19-1.06-.43-2.12-.86-3.18-1.3-.57-.24-1.15-.48-1.72-.72-.33-.14-.65-.27-.98-.41-.12-.05-.44-.19.1.04-.22-.09-.45-.19-.67-.28-2.75-1.17-5.5-2.35-8.24-3.56-13.66-5.99-27.19-12.27-40.6-18.8s-27.28-13.55-40.45-21.18c-4.95-2.87-9.87-5.84-14.53-9.16-.47-.33-.93-.67-1.39-1.01-.2-.15-.4-.3-.6-.45-.12-.09-.23-.18-.35-.27-.35-.27.48.38-.06-.05-.75-.6-1.5-1.2-2.22-1.84-.63-.56-1.25-1.14-1.82-1.76-.22-.23-.42-.47-.63-.71-.42-.49.04.07.01.03-.08-.14-.19-.26-.28-.4-.15-.22-.28-.46-.41-.69-.02-.03-.16-.29-.14-.3.33-.31.22.8.16.36,0-.02-.04-.16-.06-.17-.06-.03-.06-.27-.09-.33-.13-.25-.04.59.05.35s.01-.64.03-.9c.01-.16.03-.33.04-.49.02-.16.03-.33.05-.49-.04.26-.03.24.01-.06.63-3.83,2.07-6.65,4.27-9.92s4.98-6.43,7.8-9.64c3.09-3.51,6.17-7.03,8.98-10.77,4.99-6.63,8.53-13.85,10.44-21.93.67-2.83,1.35-5.66,2.02-8.49,2.29-9.64,4.5-19.29,6.59-28.97,2.96-13.63,5.71-27.3,8.2-41.02,2.89-15.88,5.44-31.82,7.54-47.82s3.79-32.64,4.61-49.05c.76-15.1.85-30.3-.55-45.37-1.16-12.5-3.2-25.21-7.94-36.91-3.84-9.48-9.52-18.36-18.34-23.88-9.73-6.08-18.94-13.3-25.79-22.61-5.22-7.11-8.71-14.78-11.02-23.19-4.12-15.01-4.16-31.02-10.48-45.42-3.6-8.19-9.37-14.64-15.87-20.66-8.61-7.97-18.06-15.04-27.92-21.4-20.3-13.1-42.59-23.46-65.71-30.48-5.33-1.62-10.72-3.05-16.16-4.24-6.13-1.34-12.29-2.41-18.36-4-8.58-2.25-17.13-4.96-24.45-10.03-.28-.2-.56-.4-.84-.6-.16-.12-.32-.24-.48-.36.48.37-.03-.03-.11-.09-.52-.43-1.04-.87-1.54-1.33-.46-.43-.9-.87-1.32-1.33-.18-.2-.36-.4-.53-.6-.1-.12-.2-.24-.3-.36-.45-.53.17.25-.08-.1-.6-.84-1.15-1.7-1.6-2.63-.06-.12-.1-.24-.16-.35-.22-.42.19.49.08.19-.08-.22-.17-.43-.24-.64-.16-.45-.29-.92-.39-1.39-.04-.19-.08-.38-.11-.57-.13-.68,0,.18,0-.01,0-.44-.08-.89-.08-1.33,0-.4.03-.79.06-1.19.05-.76-.14.45,0-.04.09-.34.16-.68.27-1.01.19-.57-.26.48.03-.07.09-.16.17-.33.26-.49.16-.28.34-.54.53-.81.38-.54-.34.38.11-.13.14-.16.27-.32.41-.47.3-.32.61-.63.93-.93,1.3-1.21,2.3-1.91,3.98-2.99,3.33-2.15,6.87-3.95,10.32-5.91,2.67-1.52,5.86-3.19,7.57-5.85s.46-5.69-1.44-7.84-4.71-3.6-7.35-4.76c-3.34-1.46-6.8-2.63-10.22-3.88-1.67-.61-3.34-1.23-4.98-1.92.35.15-.53-.23-.71-.31-.43-.19-.85-.39-1.28-.59-.75-.36-1.5-.74-2.23-1.15s-1.39-.81-2.05-1.26c-.18-.12-.35-.24-.52-.37-.06-.05-.62-.47-.16-.11-.32-.25-.64-.51-.94-.79-.54-.49-1.04-1.01-1.5-1.56-.08-.09-.28-.38.03.05-.11-.15-.23-.31-.33-.47-.21-.32-.41-.64-.59-.98-.09-.17-.17-.34-.25-.51-.28-.58.17.5-.04-.11-.1-.3-.21-.61-.29-.92s-.15-.64-.21-.96c-.12-.66.03.54-.01-.14-.02-.28-.04-.55-.04-.83,0-.35,0-.7.03-1.05.01-.2.03-.4.05-.61,0-.02.08-.68.03-.27s.04-.24.04-.26c.04-.19.07-.39.11-.58.08-.38.17-.76.28-1.14.1-.34.2-.68.32-1.01.05-.15.11-.3.17-.45.23-.61-.23.48.04-.11.32-.7.67-1.37,1.09-2.02.17-.27.36-.53.54-.8.4-.58-.14.12.33-.42.52-.61,1.06-1.2,1.65-1.74.25-.23.51-.46.77-.68.16-.14.32-.27.49-.4-.45.36.11-.08.17-.13.66-.47,1.33-.92,2.03-1.34,1.63-.97,3.18-1.68,4.63-2.23,8.97-3.39,18.78-3.92,28.28-3.76,6.35.11,12.62.78,18.93,1.36,4.98.46,10.03.54,14.97-.32,3.18-.55,6.32-1.62,9.07-3.34,2.19-1.36,4.1-3.11,5.93-4.91.8-.8,1.6-1.6,2.44-2.36.42-.39.86-.76,1.3-1.13.12-.1.25-.2.37-.3-.51.4-.19.14-.06.05.29-.2.57-.41.87-.61.52-.35,1.06-.67,1.61-.96.26-.14.53-.27.8-.4.17-.08.33-.15.5-.23-.59.27,0,0,.1-.04,1.53-.58,3.11-1.01,4.72-1.28.77-.13,1.06-.17,2.11-.25,1.15-.1,2.31-.14,3.47-.14,2.27,0,4.55.1,6.81.34.89.1,1.19.13,2.23.32.89.16,1.78.35,2.65.58.72.19,1.44.41,2.15.66.3.11.6.22.9.34.6.23-.49-.22.09.04.17.07.34.15.5.23,1.22.57,2.38,1.24,3.5,1.99.52.35,1.03.72,1.53,1.1.53.4-.22-.19.31.24.27.22.55.44.82.66,2.4,1.95,4.74,3.96,7.22,5.8,8.2,6.05,17.84,9.84,27.54,12.71,18.17,5.36,37.97,6.78,56.73,4.24,8.38-1.14,16.77-3.17,24.35-7.01,6.13-3.11,11.93-7.76,14.8-14.16,3.33-7.42,2.08-15.49-.1-23.07-2.74-9.53-7.15-18.52-11.48-27.41-3.97-8.14-8.16-16.11-10.57-24.82-1.01-3.66-1.56-6.45-1.23-10.24.01-.14.03-.29.04-.43.07-.72-.09.52.02-.19.06-.35.12-.7.2-1.05.18-.82.43-1.63.73-2.42.25-.65-.22.46.08-.18.06-.13.12-.25.18-.38.19-.38.39-.75.61-1.12.55-.91.7-1.1,1.21-1.69,2.51-2.87,6.14-4.85,9.91-6.29.97-.37,1.97-.7,2.98-.96.47-.12.93-.23,1.41-.32.21-.04.41-.08.62-.11.31-.05.33-.05.07-.01.16-.02.32-.04.48-.05.81-.06,1.62-.1,2.43-.05.18,0,1.32.13.77.05.43.06.86.14,1.28.24.77.18,1.52.42,2.25.72-.48-.19.42.2.59.28.46.23.91.47,1.35.74.65.39,1.28.82,1.89,1.26.03.02.64.48.24.18.19.15.37.3.56.45.38.31.75.63,1.11.95,3.14,2.8,5.89,6.03,8.65,9.2,7.64,8.79,15.55,17.16,25.08,23.96,8.96,6.39,19.51,10.41,30.33,12.24,9.95,1.68,20.1,1.69,30.06.11,6.96-1.1,14.46-2.92,20.45-6.79,2.8-1.81,4.79-4.08,5.9-7.27,1.58-4.53.91-9.59.48-14.26s-.99-9.98.9-14.54c.61-1.47,1.5-2.89,2.67-3.99.15-.15.31-.29.47-.42.1-.08.73-.59.38-.32s.34-.25.45-.33c.25-.18.51-.36.77-.53,2.42-1.6,5.03-2.89,7.65-4.11,3.45-1.6,6.29-2.75,9.98-4.18,8.25-3.2,16.61-6.08,24.96-9s16.18-5.64,24.14-8.8c5.76-2.29,11.94-4.61,16.98-8.32,3.95-2.91,7.73-6.11,10.83-9.93,3.65-4.5,6.3-9.6,8.23-15.06,2.48-7.03,3.76-14.43,4.67-21.81,1.35-10.93,1.73-21.97,1.82-32.98.03-3.22-4.97-3.22-5,0-.1,11.58-.48,23.48-2.06,34.82-1.03,7.39-2.55,14.83-5.45,21.74.23-.56-.22.51-.3.67-.13.29-.27.59-.4.88-.32.68-.66,1.34-1.01,2.01-.61,1.14-1.27,2.26-1.98,3.34-.34.52-.69,1.03-1.05,1.53-.19.27-.39.53-.59.8-.08.11-.29.37.09-.12-.13.17-.27.34-.4.51-.74.91-1.51,1.8-2.32,2.65-1.63,1.71-3.39,3.29-5.22,4.77-.45.37-.91.73-1.37,1.09s.45-.35,0,0c-.13.1-.26.2-.38.29-.25.19-.49.38-.74.56-.95.69-1.95,1.31-2.97,1.89-6.26,3.57-12.25,5.74-19,8.26-8.39,3.13-16.87,6.02-25.32,9-7.97,2.8-15.95,5.63-23.74,8.91-5.35,2.25-11.36,4.59-15.65,8.64-7.61,7.17-5.02,18.39-4.59,27.56.11,2.33.1,4.5-.49,6.61-.29,1.06-.53,1.62-1.11,2.54-.1.16-.22.32-.32.48-.48.75.36-.29,0,0-.18.15-.33.38-.5.55-.19.19-.39.37-.59.55-.12.11-.81.63-.17.16-.52.39-1.05.75-1.6,1.09-1.2.73-2.45,1.35-3.73,1.92-.07.03-.72.3-.19.08-.2.08-.4.17-.61.25-.35.14-.7.27-1.05.4-.89.33-1.79.64-2.69.92-1.82.57-3.67,1.06-5.53,1.48-4.39.98-8.44,1.53-12.91,1.8-10.21.62-20.53-.44-30.29-3.54-11.26-3.58-20.86-10.2-29.37-18.29-3.94-3.74-7.6-7.76-11.16-11.85-2.9-3.32-5.73-6.72-8.87-9.81-2.59-2.54-5.47-4.92-8.83-6.37-3.6-1.55-7.39-1.85-11.23-1.14-4.42.81-8.95,2.88-12.64,5.42-3.18,2.19-5.72,5.04-7.19,8.63-2.88,7.02-.9,15.11,1.55,21.94,3.22,9,7.74,17.49,11.85,26.09s8.13,17.4,10.01,26.78c.42,2.09.68,3.7.76,5.8.03.83.02,1.66-.04,2.49-.03.37-.06.73-.11,1.1.07-.61-.02.11-.03.2-.04.25-.09.49-.13.74-.15.73-.33,1.45-.55,2.15-.13.4-.27.79-.41,1.18-.05.13-.1.26-.15.39.23-.56-.12.26-.17.35-.61,1.31-1.65,2.97-2.32,3.83-1.87,2.41-4.43,4.54-7.03,6.18-3.32,2.09-6.43,3.46-9.94,4.67-8.4,2.89-17.03,4.15-25.79,4.61-19.79,1.03-40.47-1.82-58.67-9.95-3.93-1.76-7.72-3.82-11.26-6.28-.65-.45-1.29-.92-1.93-1.4-.17-.13-.34-.26-.52-.39.45.35-.1-.08-.16-.13-.32-.25-.64-.51-.96-.76-1.11-.89-2.19-1.81-3.29-2.72-2.12-1.75-4.3-3.49-6.73-4.79-2.82-1.51-5.9-2.49-9.05-3.02-7.68-1.3-16.53-1.55-23.68,1.96-4.52,2.22-7.61,6.23-11.4,9.39-.12.1-.45.34.06-.04-.13.1-.26.2-.4.3-.23.16-.46.33-.69.48-.58.39-1.19.75-1.81,1.08-.27.14-.55.28-.83.42-.17.08-.35.16-.52.24-.6.27.5-.19-.13.05-.75.29-1.51.55-2.29.77-4.03,1.14-8.02,1.26-12.43,1.07-6.35-.27-12.64-1.24-18.99-1.51-5.62-.25-11.27-.21-16.88.31-8.27.77-17.22,2.4-24.17,7.25-5.44,3.8-9.28,9.79-9.01,16.61.29,7.33,6.44,11.77,12.56,14.54,3.43,1.55,6.98,2.8,10.52,4.07,1.64.59,3.28,1.19,4.9,1.84.21.08.41.17.62.25-.43-.18-.08-.03,0,0,.39.17.78.34,1.17.52.7.33,1.4.67,2.07,1.05.57.32,1.13.66,1.67,1.03.15.1.29.2.43.31-.54-.39-.07-.06.03.03.25.22.5.43.73.66.19.19.36.38.53.58.37.4-.31-.47-.02-.03.08.12.17.24.25.37.13.21.22.44.35.64.27.41-.13-.54-.03-.06.03.16.1.33.15.48.25.76.04-.43.02.11,0,.18.16-.62-.03-.02-.13.4.36-.47.06-.17-.07.07-.15.24-.2.33-.18.33.12-.14.15-.18-.13.15-.25.3-.39.44-.18.2-.38.38-.58.56-.13.12-.99.79-.47.4-.64.47-1.29.91-1.96,1.34-3.25,2.04-6.69,3.75-10.01,5.68s-6.65,3.94-9.1,6.81c-1.89,2.21-2.86,4.71-2.79,7.62.05,2.17.6,4.23,1.52,6.19,2.37,5.1,7.26,8.77,12.03,11.47,8.81,4.98,18.85,7.79,28.67,9.99,5.85,1.31,11.75,2.31,17.56,3.76s11.08,3.01,16.53,4.82c22.89,7.61,44.89,18.47,64.74,32.2,9.33,6.45,18.2,13.62,26.13,21.74,2.92,2.99,5.15,5.87,7.24,9.51,1.98,3.45,3.19,6.33,4.39,10.07,4.8,14.94,4.76,30.97,10.19,45.77,3.29,8.97,8.26,17.13,14.71,24.19,3.97,4.34,8.42,8.2,13.13,11.72,3.77,2.82,7.87,5.15,11.67,7.92.13.1.44.35-.09-.07.12.09.24.19.36.28.2.16.39.32.58.48.47.39.92.79,1.37,1.21.85.79,1.66,1.61,2.43,2.48.37.41.72.83,1.07,1.25.2.24.4.49.6.74.07.08.13.17.2.25-.46-.59,0,0,.09.13.73.98,1.42,1.99,2.08,3.02,1.39,2.19,2.62,4.49,3.71,6.85.25.54.49,1.09.73,1.63.05.11.29.69.03.07.07.17.14.34.21.5.14.34.28.68.41,1.02.53,1.34,1.02,2.69,1.47,4.05,1.95,5.81,3.32,11.81,4.34,17.85.27,1.59.52,3.19.74,4.79.03.22.06.44.09.67-.07-.51,0-.01.01.12.05.41.11.82.16,1.23.11.91.22,1.81.32,2.72.39,3.51.68,7.04.9,10.57.96,15.47.55,31.02-.48,46.48-.55,8.22-1.29,16.43-2.18,24.62s-1.92,16.35-3.05,24.28c-2.22,15.68-4.87,31.29-7.82,46.84-2.49,13.1-5.19,26.15-8.08,39.16-1.95,8.77-3.98,17.52-6.07,26.25-.83,3.47-1.53,7.02-2.69,10.4-3.12,9.07-9.32,16.51-15.56,23.61-5.42,6.16-11.65,12.62-13.89,20.75-.69,2.49-1.3,5.36-.13,7.79.62,1.3,1.62,2.44,2.63,3.47,3.14,3.19,6.97,5.77,10.7,8.22,5.26,3.46,10.72,6.63,16.22,9.7,13.6,7.59,27.56,14.55,41.61,21.28,13,6.23,26.1,12.25,39.35,17.94,4.6,1.97,9.21,3.93,13.87,5.73,1.39.54,2.8,1.07,4.22,1.54,3.22,1.06,6.91,1.03,10.26.81,10.71-.69,20.75-4.88,30.85-8.15s21.49-5.9,32.46-3.43c1.17.26,2.31.6,3.43,1.02.27.1.53.21.8.31.15.06.52.23-.09-.04.15.06.29.13.44.19.59.27,1.18.55,1.75.84,2.34,1.2,4.56,2.64,6.7,4.17.51.37,1.02.74,1.52,1.12.31.23.62.47.92.7.5.39-.28-.22.04.03.18.14.36.28.54.43,1.23.97,2.43,1.95,3.63,2.96,2.52,2.11,4.98,4.28,7.44,6.45,11.65,10.29,23.43,20.53,37.03,28.2,16.75,9.45,35.53,14.43,54.78,14.31,17.15-.11,37.54-4.16,45.51-21.33,2.78-5.98,3.83-12.5,4.2-19.04.32-5.58.04-11.18.45-16.75.04-.54.09-1.08.15-1.61.01-.12.03-.24.04-.36.05-.54-.1.62,0,.07.05-.3.09-.61.14-.91.22-1.26.5-2.51.83-3.74.35-1.32.76-2.62,1.22-3.9.24-.69.5-1.37.77-2.04.13-.32.26-.63.39-.95-.23.56.04-.09.07-.17.11-.26.23-.51.34-.77,1.4-3.1,3.04-6.08,4.88-8.94,2.14-3.31,4.05-5.81,6.67-8.7,12.74-14.11,30.71-22.12,49.69-23.76,12.15-1.05,24.32.92,36.05,3.96,13.23,3.43,26.07,8.24,38.75,13.33,6.51,2.61,12.97,5.31,19.45,8,3.93,1.63,7.73,3.22,11.37,5.44,6.46,3.93,12.45,8.59,18.99,12.38,7.7,4.47,16.02,7.65,24.92,8.56,11.05,1.14,21.99-1.57,32.19-5.63,19.82-7.9,36.69-21.83,53.21-34.98,1.5-1.19,3-2.38,4.51-3.56.62-.48-.37.28.24-.18.18-.14.36-.28.54-.42.29-.22.58-.44.87-.66.64-.48,1.28-.95,1.92-1.41,2.63-1.87,5.52-3.32,8.23-5.07,8.52-5.5,16.41-12.17,23.3-19.59,6.21-6.68,12.48-14.53,14.91-23.49,1.79-6.61.67-14.18-5.81-17.71-2.77-1.51-5.91-2.21-9.01-2.65-3.71-.53-7.45-.77-11.19-1.08-7.22-.59-14.85-1.38-20.99-5.38-3.01-1.96-5.41-4.76-7.1-8.29-2.73-5.7-4.01-12.19-4.13-18.48-.1-5.25.62-10.43,1.72-15.55.78-3.62,1.91-7.26,2.15-10.97.67-10.48-5.15-19.25-9.81-28.12-1.79-3.41-3.34-6.83-3.05-10.5.04-.5.02-.18,0-.06.03-.19.06-.38.1-.56.07-.3.17-.57.25-.87.04-.16.23-.52-.04.06.07-.15.14-.3.22-.45.16-.3.33-.59.52-.88.1-.15.2-.29.3-.43-.38.54-.03.04.05-.06.2-.23.4-.46.61-.69.54-.57,1.12-1.1,1.73-1.6.11-.09.21-.17.32-.26.54-.44-.41.3.16-.13.32-.24.64-.47.96-.7.71-.5,1.44-.98,2.18-1.45,1.59-1.01,3.21-1.96,4.83-2.92,3.38-1.99,6.75-4,9.87-6.39s6.26-5.36,8.36-8.93c2.31-3.91,3.28-8.39,2.92-12.91-.33-4.2-1.77-8-4.51-11.21-2.24-2.62-5.15-4.55-7.89-6.6-.13-.1-.94-.71-.55-.42-.32-.25-.64-.5-.95-.76-.66-.54-1.3-1.11-1.91-1.71s-1.15-1.19-1.66-1.85c.26.33-.32-.45-.42-.61-.31-.46-.59-.94-.85-1.43-.77-1.45-1.33-3.26-1.6-5.24-.14-1.03-.2-2.09-.16-3.14,0-.16.12-1.31.05-.84.08-.5.21-.98.35-1.47.2-.67-.15.12.2-.44.09-.14.58-.87.37-.61s.37-.35.47-.47.56-.44-.01-.02c.13-.09.25-.19.39-.27.51-.31,1.02-.57,1.55-.83s-.54.21,0,0c.1-.04.2-.08.3-.12.36-.14.71-.27,1.07-.41,2.8-1.06,5.51-2.38,6.91-5.2,1.61-3.26,1.29-6.99.78-10.47s-1.32-6.73-2.25-10.02c-2.41-8.5-5.65-16.83-9.59-24.75-3.47-6.97-7.64-14.4-13.67-19.51-2.47-2.09-5.27-3.79-8.53-4.17s-6.33.71-8.99,2.38c-6.38,4-10.88,10.57-15.45,16.38-2.24,2.84-4.5,5.71-7.12,8.21-.55.53-1.13,1.04-1.72,1.52-.1.08-.21.17-.31.25.48-.37-.04.02-.12.08-.31.21-.62.43-.93.63s-.62.37-.93.53c-.17.09-1.03.43-.34.17-.28.1-.57.21-.86.29-.24.07-1.31.19-.5.14-.26.02-.52.05-.78.05s-1.16-.21-.43,0c-.26-.07-.52-.11-.78-.18-.16-.05-.31-.11-.47-.16-.54-.18.48.26-.03-.02-.25-.13-.56-.38-.83-.46-.37-.11.58.47.27.21-.07-.06-.13-.12-.19-.19-.35-.39.26.57.16.21-.02-.07-.1-.16-.14-.22-.29-.51.19.2.09.25,0,0-.18-.56-.2-.62-.03-.12-.04-.26-.08-.38-.13-.46.04.75.04.26,0-.3-.04-.59-.04-.89,0-.64.08-1.27.14-1.9-.09,1.06.04-.21.1-.52.08-.43.17-.85.27-1.27.43-1.89,1.02-3.74,1.66-5.57.37-1.06.76-2.1,1.17-3.14.22-.56.44-1.11.67-1.67.12-.29.24-.57.35-.86.05-.13.11-.26.17-.39-.28.67.03-.07.09-.2,1.11-2.58,2.28-5.14,3.51-7.67,6.11-12.66,13.17-24.87,20.56-36.81,8.15-13.18,16.8-26.08,26.05-38.52,4.16-5.59,8.12-10.68,12.77-16.18,3.77-4.45,7.67-8.81,11.89-12.84,1.69-1.62,3.43-3.18,5.27-4.63.13-.11.82-.62.15-.12.22-.16.43-.33.65-.49.38-.28.77-.56,1.16-.83.75-.51,1.51-1,2.3-1.44.34-.19.69-.37,1.04-.54.15-.07.31-.14.46-.21.66-.31-.5.17.03-.01.64-.22,1.26-.43,1.93-.58.05-.01.35-.1.39-.07,0,0-.8.08-.36.05.32-.02.64-.06.95-.08,1.52-.12,3.03-.22,4.55-.29,2.7-.12,5.4-.14,8.1-.09,3.76.07,7.54.42,11.29.24,2.86-.14,5.76-.67,8.1-2.41,4.97-3.69,6.57-10.1,7.48-15.89,1.31-8.28,1.81-16.68,2.35-25.04.61-9.26,1.13-18.54,2.1-27.78.43-4.04.83-7.37,1.62-11.42.31-1.58.66-3.16,1.09-4.71.19-.68.39-1.36.62-2.03.11-.31.22-.62.33-.93.05-.13.11-.27.16-.4.26-.68-.15.31.04-.09,2.69-5.85,5.96-11.4,9.16-16.99,4.33-7.56,8.63-15.14,12.5-22.95s7.32-15.57,9.34-23.88c1.59-6.57,2.36-13.96-.75-20.22-1.4-2.81-3.56-4.81-6.29-6.3-3.13-1.7-6.58-2.84-9.99-3.81-18.89-5.38-38.83-6.95-56.99-14.85-10-4.36-18.7-11.05-26.83-18.24-6.96-6.17-13.63-12.8-21.85-17.33-9.16-5.05-19.33-7.06-29.5-8.97-8.92-1.67-17.9-3.23-26.57-5.95-7.67-2.41-15.22-5.84-20.79-11.64-2.62-2.73-4.85-6.18-6.21-9.69s-1.85-7.21-2.48-10.97c-2.5-14.92-12.95-30.89-29.58-30.89-5.33,0-10.54,1.44-15.6,2.95-4.42,1.31-8.95,2.92-13.44,2.82-1.77-.04-3.41-.41-4.96-1.34-.28-.17-.54-.36-.81-.54-.41-.28.37.31.11.09-.09-.08-.19-.15-.28-.23-.46-.41-.9-.82-1.32-1.27s-.81-.91-1.19-1.39c-.28-.34.03.04.07.09-.11-.14-.22-.28-.32-.43-.22-.3-.43-.59-.64-.9-.88-1.27-1.7-2.59-2.48-3.92-4.01-6.81-7.5-13.92-11.7-20.62-5.44-8.68-11.86-16.81-19.57-23.6-9.04-7.97-19.69-13.79-30.38-19.24s-21-10.06-31.36-15.37c-8.03-4.12-16.47-8.48-22.68-14.89-.62-.64-1.2-1.3-1.76-1.98-.1-.12-.2-.24-.29-.36.31.41-.14-.2-.16-.23-.26-.37-.52-.73-.76-1.11-.43-.67-.8-1.37-1.15-2.09-.04-.07-.32-.72-.09-.18-.08-.19-.16-.39-.23-.58-.14-.39-.27-.78-.38-1.18-.09-.33-.17-.67-.24-1-.04-.2-.08-.4-.11-.61-.12-.68.04.54-.02-.15s-.11-1.38-.22-2.07c-.17-1.06-.51-2.04-.94-3.02-1.81-4.12-5.55-7.22-9.31-9.51-4.74-2.88-10.13-4.79-15.54-5.95-11.95-2.55-25.46-1.86-36.1,4.65-5.08,3.11-9.31,7.54-12.11,12.81-3.45,6.51-4.76,13.88-4.83,21.19-.03,3.22,4.97,3.22,5,0Z"/>
    </g>
  </g>
  <g id="PARIS">
    <g id="P">
      <path class="cls-3" d="M528.56,430.69c-.77-2.44,10.18-42.12,17.98-42.62,7.81-.5,26.1,5.26,22.98,19.63s-10.05,5.56-19.48,7.33-11.46,16.72-13.35,17.33-7.37.79-8.14-1.66Z"/>
      <path class="cls-1" d="M549.96,396.23c-4.11,1.28-4.86,5.37-4.64,8.68s6.86,3.32,11.41,4.4,5.02-5.17,3.92-8.71c-1.1-3.54-6.58-5.65-10.69-4.37Z"/>
    </g>
    <g id="A">
      <path class="cls-3" d="M570.31,436.34c-1.28-1.62-1.54-41.98,14.95-39.76,16.5,2.22,14.4,41.45,10.81,43.2s-6.84,1.16-8.23-1.97c-1.39-3.12,3.41-9.96-3.54-13.66-6.95-3.71-5.24,8.6-7.23,11.42s-5.48,2.38-6.76.76Z"/>
      <path class="cls-1" d="M580.36,415.3c3.23.16,4.32.5,8.08,1.91s2.2-12.2-3.26-13.03c-5.46-.83-8.05,10.95-4.82,11.12Z"/>
    </g>
    <g id="R">
      <path class="cls-3" d="M612.31,438.26c-1.8-1.87-15.53-35.65-6.93-41.89s26.96-6.31,27.72,4.69c.77,11-11.23,10.41-13.35,13.82-2.12,3.41,25.17,8.26,21.63,13.05s-7.71,5.14-11.47,3.36-3.86-9.3-11.74-8.57,5.43,9.17,3.82,12.33-7.88,5.08-9.68,3.2Z"/>
      <path class="cls-1" d="M614.22,410.16c-5.1,1.7-7.21-8.09-2.93-10.72,4.28-2.63,12.56-3.79,13.36,2.24.8,6.04-5.33,6.78-10.43,8.47Z"/>
    </g>
    <g id="I">
      <path class="cls-3" d="M656.44,425.8c-2.84-1.53-20.21-24.01-19.13-28.14,1.07-4.13,4.51-5.45,7.09-4.78s20.13,26.44,19.25,29.83-4.37,4.62-7.21,3.09Z"/>
      <path class="cls-3" d="M638.87,391.21c-2.53,1.82-4.63.8-6.45-1.68s-1.67-4.78.88-6.6,4.8-1.44,6.13,1.59,1.97,4.86-.56,6.68Z"/>
    </g>
    <g id="S">
      <path class="cls-3" d="M662.22,372.28c1,2.1,4.81.1,4.88-5.53s-12.34-7.98-20.75-1.8c-8.41,6.18-4.6,16.67,3.25,21.55,7.85,4.89,14.93-.77,23.16-.77,8.22,0,1.08,9.44.36,14.91s1.12,9.52,4.8,9.52,11.22-12.45,11.22-20.71c0-8.26-8.67-11.74-14.66-12.69s-11.7,3.41-15.14,3.83-9.46-2.98-6.4-7.49c3.06-4.51,8.29-2.92,9.29-.81Z"/>
    </g>
  </g>
  <g id="Localisation">
    <g>
      <path class="cls-3" d="M469.35,406.19l71.3-49.45,8.54,10.52-73.51,48.3c-3.06,2.01-9.45-7.33-6.34-9.37Z"/>
      <path class="cls-3" d="M470.93,408.89c20.79-14.42,41.58-28.84,62.37-43.25,2.98-2.07,5.96-4.13,8.94-6.2l-3.79-.49c2.85,3.51,5.7,7.01,8.54,10.52l.63-4.91c-22.28,14.64-44.57,29.28-66.85,43.92-1.84,1.21-3.64,2.59-5.57,3.66-.25.14-.76.68-1.04.68,1.56-.03-3.42-3.65-2.6-4.43,2.92-2.78-1.5-7.19-4.42-4.42-5.64,5.36,3.35,17.6,10.24,14.2,4.3-2.12,8.33-5.47,12.33-8.1l47.98-31.52c4.36-2.87,8.73-5.73,13.09-8.6,1.81-1.19,1.94-3.3.63-4.91-2.85-3.51-5.7-7.01-8.54-10.52-.81-1-2.74-1.21-3.79-.49-20.79,14.42-41.58,28.84-62.37,43.25-2.98,2.07-5.96,4.13-8.94,6.2-3.28,2.28-.16,7.7,3.15,5.4Z"/>
    </g>
    <g>
      <circle class="cls-1" cx="586.38" cy="325.24" r="61.05"/>
      <path class="cls-3" d="M644.31,325.24c-.27,24.08-15.25,46.19-38.08,54.45s-48.78,1.23-64.33-17.32c-15.66-18.68-17.73-46.05-5.2-66.93,12.46-20.76,37.38-31.87,61.16-27,26.94,5.51,46.15,29.48,46.46,56.8.05,4.02,6.3,4.03,6.25,0-.3-26.75-16.88-50.88-42.05-60.25-25.32-9.43-54.89-1.25-71.87,19.71s-19.14,50.55-5.35,73.5c13.87,23.07,41.16,35.1,67.55,30,29.94-5.78,51.37-32.77,51.71-62.96.05-4.02-6.2-4.03-6.25,0Z"/>
    </g>
    <g id="Calque_4" data-name="Calque 4">
      <path class="cls-2" d="M537.88,365.03c1.25,2.37,27.49,2.56,29.3-1.21s5.25-15.7,22.07-15.7,20.14,13.39,22.25,16.45,28.24,2.6,26.23-3.07-21.09-22.51-26.1-33.79-10.34-23.44-11.01-27.82c-.29-1.91-4.15-16.16-6.21-31.58-2.22-16.53-3.67-34.41-4.73-40.01-.22-1.15-.33-1.79-.33-1.79,0,0-.09.46-.32,1.7-1.05,5.62-2.54,22.87-4.7,38.91-2.03,15.07-5.8,29.43-6.31,31.78-1.19,5.41-5.6,17.67-11.93,28.95s-30.66,33.13-28.19,37.19Z"/>
      <path class="cls-1" d="M583.69,308.79c.92-1.48,7.85-1.81,9.89,0s4.71,17.67,3.46,19.02-15.56,1.55-17.27.16,3-17.7,3.92-19.19Z"/>
    </g>
    <path class="cls-3" d="M644.31,325.24c-.27,24.08-15.25,46.19-38.08,54.45s-48.78,1.23-64.33-17.32c-15.66-18.68-17.73-46.05-5.2-66.93,12.46-20.76,37.38-31.87,61.16-27,26.94,5.51,46.15,29.48,46.46,56.8.05,4.02,6.3,4.03,6.25,0-.3-26.75-16.88-50.88-42.05-60.25-25.32-9.43-54.89-1.25-71.87,19.71s-19.14,50.55-5.35,73.5c13.87,23.07,41.16,35.1,67.55,30,29.94-5.78,51.37-32.77,51.71-62.96.05-4.02-6.2-4.03-6.25,0Z"/>
    <path class="cls-2" d="M474.2,399.17c0,3.46,5.56,13.41,10.41,14.34s28.23-14.46,28.62-18.55-7.46-13.23-12.2-14.4-26.83,15.15-26.83,18.62Z"/>
    <path class="cls-3" d="M562.43,333.18c1.81-.25,51.67.14,52.88.76s1.81,1.65,1.81,2.43-56.58-.19-56.85-.69.34-2.26,2.16-2.51Z"/>
    <path class="cls-3" d="M578.58,296.88c.74-.25,21.02.14,21.51.76s.74,1.65.74,2.43-23.02-.19-23.13-.69.14-2.26.88-2.51Z"/>
    <path class="cls-3" d="M587.89,230.77c.83-.7,1.91-.88,3.04.37s.83,4.66.26,5.62-3.29,1.12-3.89-.28-.24-5.01.58-5.71Z"/>
    <polygon class="cls-2" points="585.29 259.61 584.18 268.11 594.4 268.3 593.35 259.97 585.29 259.61"/>
  </g>
</svg>