<?xml version="1.0" encoding="UTF-8"?>
<svg xmlns="http://www.w3.org/2000/svg" viewBox="0 0 1080 1080">
  <defs>
    <style>
      .cls-1 {
        fill: #ed6237;
      }

      .cls-2 {
        fill: #fff;
      }

      .cls-3 {
        fill: #333;
      }
    </style>
  </defs>
  <g id="France">
    <g>
      <path class="cls-3" d="M561.41,91.26c.43-54.64,19.25-39.14,20.43-18.73,1.18,20.41,13.56,32.02,46.68,52.73s34.94,36.8,45.89,43.79c18.2-6.33,78.4,15.96,89.47,23.34s15.43-.4,24.53,32.44,78.01,23.01,106.52,29.17c28.51,6.16,26.08,18.76,58.45,28.12s69.15,10.4,80.44,20.57c16.14,17.59-22.88,83.17-29.67,99.68-6.78,16.51-4.87,69.2-10.6,81.28-5.73,12.08-12.24,5.76-35.74,7.87-23.5,2.11-106.58,134.33-93.59,142.5,12.99,8.16,2.85-47.21,21.45-47.61s51.84,63.81,52.32,78.11c.48,14.29-15.04,4.13-12.59,20.92,2.45,16.79,21.94,13.18,20.22,33.42-2.45,19.14-31.19,22.73-33.18,33.98-1.98,11.24,13.72,22.74,12.73,39.59-.43,7.29-16.62,16.51-8.18,33.66s59.1,2.95,64.48,19.12c5.39,16.17-47.54,71.87-52.95,75.3s-31.29,31.19-58.72,40.39c-39.71,14.83-83.58-13.57-83.58-13.57,0,0-62.51-36.18-92.48-34.05-47.63,3.53-66.95,39.91-68.74,56.98-1.8,17.07,6.52,50.84-38.41,55.6-93.21,6.37-108.04-50.58-135.15-56.93-27.1-6.35-43.14,12.29-66.43,8.54-13.26-3.63-152.18-62.51-151.68-79.22.51-17.67,50.32-18.36,56.06-43.13,5.74-24.77,61.6-244.32,3.61-280.03-57.99-35.71-29-77.07-58.15-106.92-29.15-29.85-72.92-71.08-113.42-78.75-40.5-7.67-54.29-2.87-53.04-11.77s26.23-15.62,25.16-21.24c-2.12-11.09-36.65-10.22-35.93-26.95.72-16.73,23.33-23.86,60.34-19.69,37.01,4.16,23.95-16.42,51.27-16s17.42,13.71,55.98,25.09c38.56,11.39,97.96,5.37,94.71-26.92s-42.95-71.48-16.3-86.56,28.62,11.99,59.42,34.01c30.8,22.03,74.73,11.8,81.47,2.82,6.74-8.98-3.4-25.17,5.42-36.01s72.62-26.37,87.27-37.39c14.65-11.03,23.77-22.89,24.2-77.53Z"/>
      <g>
        <path class="cls-2" d="M540.95,78.08c.43-54.64,72.83-39.14,74-18.73,1.18,20.41,45.67,32.02,78.79,52.73s39.05,54.61,50,61.6c10.95,6.99,27.99-8.65,43.74-2.44,15.75,6.21,18.97,27.8,18.97,27.8,3.27,34.21,39.5,35.62,68.01,41.79,28.51,6.16,31.7,20.16,56.88,36.71,25.18,16.54,69.32,16.24,80.61,26.41,16.14,17.59-21.49,68.75-28.27,85.25-6.78,16.51-4.87,69.2-10.6,81.28s-12.24,5.76-35.74,7.87-106.58,134.33-93.59,142.5c12.99,8.16,25.28-29.95,40.84-29.56,15.56.39,32.44,45.77,32.92,60.06.48,14.29-15.04,4.13-12.59,20.92s21.94,13.18,20.22,33.42c-2.45,19.14-31.19,22.73-33.18,33.98-1.98,11.24,13.72,22.74,12.73,39.59-.43,7.29-8.65,25.12.23,45.45,10.95,24.95,48.91,8.43,54.3,24.6s-23.45,43.8-42.28,54.05c-9.23,5.02-40.17,35.17-67.61,44.36-39.71,14.83-58.22-11.88-76.77-19.85-33.52-13.84-69.32-29.91-99.29-27.78-47.63,3.53-66.95,39.91-68.74,56.98-1.8,17.07,6.52,50.84-38.41,55.6-72.22,6.05-100.14-53.72-127.24-60.07-27.1-6.35-49.48,14.79-72.77,11.04-13.26-3.63-128.55-55.66-128.6-68.34.51-17.67,25.67-28.6,31.41-53.37,5.74-24.77,61.6-244.32,3.61-280.03-57.99-35.71-29-77.07-58.15-106.92s-78.64-54.17-119.14-61.84c-40.5-7.67-48.57-19.77-47.32-28.68s26.23-15.62,25.16-21.24c-2.12-11.09-36.65-10.22-35.93-26.95s23.33-23.86,60.34-19.69,23.95-16.42,51.27-16,17.42,13.71,55.98,25.09c38.56,11.39,97.96,5.37,94.71-26.92-3.25-32.29-42.95-71.48-16.3-86.56s28.62,11.99,59.42,34.01c30.8,22.03,74.73,11.8,81.47,2.82,6.74-8.98-3.4-25.17,5.42-36.01s72.62-26.37,87.27-37.39c14.65-11.03,23.77-22.89,24.2-77.53Z"/>
        <path class="cls-3" d="M545.95,78.08c.23-13.17,5.59-25.37,18.6-30.15,10.57-3.88,23.06-2.95,33.4,1.24,3.9,1.58,7.75,3.69,10.38,6.87.8.97,1.32,1.9,1.63,3.31-.17-.76.28,2.57.45,3.37.41,1.9,1.14,3.77,2.06,5.49,3.68,6.87,10.48,11.78,16.94,15.82,9.32,5.83,19.39,10.4,29.28,15.16,20.41,9.82,41.08,19.62,55.22,37.99,5.47,7.11,9.84,14.95,14.12,22.81,2.87,5.28,5.67,11.09,9.98,15.39,14.86,14.82,35.26-8.45,51.23,2.39,12.55,8.52,10.45,23.65,15.88,35.81,7.25,16.21,24.61,22.91,40.8,26.65,18.22,4.21,37.69,5,52.91,17.09,7.92,6.29,14.97,13.56,23.08,19.64s17.45,10.98,27.46,14.31,20.41,5.47,30.75,7.61c7.95,1.65,16.44,2.93,23.96,6.12,5.11,2.17,6.93,5.5,6.89,11.06-.05,7.54-2.97,15.17-5.91,22-6.45,15.01-15.43,28.68-23.01,43.1-6.72,12.78-7.42,27.36-8.44,41.53-.67,9.33-1.14,18.68-1.96,28.01-.48,5.43-.99,12.86-2.85,17.24-2.64,6.21-7.33,5.31-13.34,5.09-6.94-.25-15.34-1.22-22.01,1.14-8.66,3.07-15.77,11.17-21.73,17.79-19.51,21.64-35.92,46.51-50.68,71.56-6.59,11.18-12.92,22.6-18.04,34.54-2.73,6.36-7.31,15.49-5.11,22.63,1.48,4.8,6.96,6.86,11.61,6.08,6.6-1.1,11.4-6.94,15.36-11.85,4.45-5.52,8.57-12.06,14.3-16.38,5.21-3.93,8.83-1.59,12.8,2.89,10.27,11.59,16.48,28.86,19.7,43.8.49,2.27,1.45,5.58.87,7.94-.55,2.23-2.22,2.39-4.23,3.22-7.44,3.08-9.44,9.52-8.16,17.19,1.36,8.12,6.67,12.92,12.93,17.63,5.69,4.28,9.18,9.97,6.29,17.29-5.51,13.93-26.31,14.15-31.57,27.95-2.88,7.56,1.39,15.3,4.99,21.79,4.58,8.25,8.25,15.88,6.1,25.44-4.05,18.04-6.1,43.02,11.41,54.97,6.56,4.48,14.67,5.73,22.4,6.49,5.95.58,13.02.12,18.59,2.6,6,2.67,3.29,10.39,1,14.87-4.39,8.57-11.23,15.8-18.32,22.21-6.5,5.89-13.59,10.35-20.93,15.04-6.51,4.17-12.39,9.47-18.45,14.25-17.08,13.48-35.78,27.52-57.55,31.96-18.24,3.72-33.09-4.05-47.68-14-7.2-4.91-14.22-8.54-22.28-11.89-12.6-5.24-25.21-10.51-38.1-15.01-23.11-8.05-47.56-13.58-71.84-7.61-17.66,4.34-33.42,14.45-44.43,28.93-7.41,9.74-12.79,21.38-13.37,33.72-.52,11.11.94,23.22-5.09,33.19-9.6,15.87-33.61,15.75-49.69,14.07-17.86-1.86-34.47-9.09-49.15-19.22-11.88-8.21-22.16-18.32-33.24-27.52-11.09-9.21-21.95-15.19-36.93-14.27-10.74.66-20.82,4.28-30.93,7.68-8.28,2.78-18.45,6.64-27.29,4.51-8.34-2.01-16.63-6.52-24.43-9.97-27.53-12.15-55.1-24.97-81.04-40.28-4.67-2.76-9.34-5.6-13.69-8.85-1.2-.89-2.54-1.95-3.84-3.23-.47-.47-.95-.94-1.37-1.46,1.04,1.29-.93-2.16-.12-.07-.05-.12-.11-.32-.11-.44.07,2.31.15-.26.28-.69.45-1.48.71-2.96,1.36-4.39,1.75-3.88,4.53-7.25,7.27-10.46,6.1-7.14,12.7-13.99,17.26-22.29s6.16-17.21,8.26-26.14c2.43-10.32,4.76-20.66,6.97-31.03,6.38-29.98,11.79-60.19,15.53-90.62s6.34-61.97,2.82-92.67c-1.44-12.51-3.84-24.97-9-36.53-4.73-10.59-11.65-17.72-21.22-24-17.34-11.38-29.09-26.74-33.66-47.02-3.36-14.88-3.85-30.49-10.99-44.29-4.28-8.28-10.94-14.82-17.86-20.91-8.52-7.5-17.74-14.23-27.32-20.29-20.23-12.79-42.42-22.94-65.36-29.8-11.39-3.4-23.13-5.13-34.6-8.22-8.11-2.19-16.9-4.88-23.65-10.1-1.67-1.29-3.19-2.82-4.25-4.43-.78-1.19-1.32-2.95-1.36-3.47-.4-5.06,7.8-8.39,12.01-10.72,4.8-2.65,13.16-6.13,13.27-12.68s-6.44-10.16-11.42-12.32c-7.71-3.35-30.23-7.18-23.13-19.98,3.34-6.02,11.3-8.24,17.53-9.5,10.71-2.16,22-1.67,32.81-.65,9.2.87,18.84,2.03,27.61-1.7,5.03-2.14,8.32-5.91,12.32-9.42,8.46-7.43,24.39-5.85,32.99.67,5.2,3.94,9.93,8.23,15.71,11.39,9.2,5.03,19.47,8.38,29.7,10.56,18.17,3.88,37.48,4.6,55.74.93,13.92-2.79,30.34-9.37,35.28-24.02,5.55-16.45-5.84-36.1-12.8-50.41-3.85-7.91-8.03-15.85-10.32-24.39-1.68-6.26-2-13,3.76-17.2s13.42-6.71,19.7-2.42c7.03,4.8,12.16,12.69,17.89,18.86,15.68,16.88,34.42,27.94,57.61,30,9.54.84,19.33.17,28.66-1.98,6.19-1.42,13.03-3.52,17.97-7.7,12.97-10.95-3.05-32.65,11.72-41.18,13.67-7.9,29.72-12.19,44.54-17.4,12.95-4.55,27.79-8.54,38.82-17.04,8.39-6.46,14.48-14.26,18.2-24.23,6.59-17.65,6.76-37.88,6.95-56.45.06-6.44-9.94-6.44-10,0-.26,27.03.3,62.59-27.56,76.68-14.96,7.57-31.54,12.15-47.28,17.79-7.45,2.67-14.9,5.42-22.12,8.69-4.98,2.25-10.45,4.79-13.84,9.24-6.83,8.97-3.42,19.49-3.63,29.72-.14,6.75-4.64,8.65-10.5,10.59-18.49,6.12-40.89,4.89-58.2-4.17-10.34-5.41-18.92-13.62-26.65-22.24-5.66-6.31-10.94-13.82-18.3-18.3-13-7.92-34.42.4-38.16,15.39-1.85,7.43.19,15.3,2.82,22.27,3.42,9.1,7.99,17.71,12.15,26.48,5.84,12.3,16.43,31.93,4.2,43.53s-32.69,12.47-48.13,12.2c-19.3-.34-40.44-4.13-56.93-14.64-5.05-3.22-9.2-7.63-14.27-10.78-5.85-3.63-12.73-4.72-19.51-4.93-7.14-.23-14.45.74-20.36,5.02-3.96,2.86-6.85,7.17-11.27,9.36-8.19,4.05-18.54,1.69-27.15.99-10.91-.89-22.06-.93-32.84,1.24-13.1,2.64-30.11,12.5-25.77,28.61,3.88,14.38,22.45,14.57,33.02,21.11.43.27,1.8,1.65,2.24,1.74-.26-.05.54.37.2.32.93.14-.36-1.6.32-1.71-.43.07-2.14,1.67-2.6,1.96-1.94,1.26-4.02,2.33-6.04,3.45-5.9,3.26-14.04,7.18-16.33,14.09-3.68,11.08,6.55,20.46,15.26,25.11,19.31,10.33,42.14,11.47,62.7,18.36,23.23,7.78,45.52,18.95,65.53,33.09,15.58,11.01,30.88,23.37,35.89,42.48,4.05,15.44,4.45,31.45,10.84,46.29,3.9,9.05,9.65,17.17,16.68,24.05,4.15,4.06,8.73,7.7,13.49,11.02,3.11,2.17,6.78,4.13,9.49,6.45,7.55,6.46,11.71,16.02,14.44,25.38,3.75,12.85,5.1,26.3,5.62,39.63,1.26,32.29-2.27,64.77-7.09,96.66-4.26,28.2-9.78,56.2-16.07,84.01-1.76,7.78-3.6,15.54-5.45,23.29-1.52,6.4-3.65,12.28-7.28,17.83-5.14,7.84-12.06,14.27-17.69,21.73-3.89,5.16-8.77,13.15-7.09,19.98.8,3.22,3.48,5.79,5.92,7.86,9.16,7.8,20.16,13.62,30.69,19.32,26.08,14.12,53.08,26.81,80.42,38.32,4,1.68,8.01,3.38,12.09,4.85,6.49,2.33,13.61,1.77,20.28.5,18.78-3.6,39.41-17.38,58.87-9.48,10.54,4.28,19.41,13.99,27.9,21.41,12.17,10.64,25,20.74,39.73,27.62,17.85,8.34,37.81,12.01,57.47,10.13,17-1.62,33.51-8.75,39.78-25.67,4.23-11.4,2.18-23.18,3.63-34.92,1.44-11.69,9.32-23.92,18-32.34,37.83-36.66,92.27-13.39,133.41,3.69,8.44,3.5,15.81,7.18,23.33,12.31,6.85,4.67,13.75,9.15,21.48,12.25,19.71,7.91,40.68,2.98,58.92-6.52,17.94-9.34,33.09-22.69,49.08-34.87,6.06-4.62,12.85-8.08,18.91-12.75,8.26-6.37,15.87-13.59,22.2-21.9,7.87-10.32,17.28-30.61.77-38.12-12.82-5.84-29.82-.04-41.26-9.53-8.33-6.91-9.3-20.87-8.21-30.81.97-8.87,4.58-17.12,3.1-26.15-1.61-9.81-8.07-17.15-11.46-26.2-2.57-6.85,1.55-9.23,7-12.55,6.77-4.13,14.12-7.9,19.3-14.09,5.6-6.69,7.84-15.86,4.87-24.25-2.42-6.84-8.05-10.17-13.35-14.52-3.34-2.74-9.76-11.81-4.09-14.93,2.24-1.24,4.76-1.67,6.81-3.46,2.88-2.51,4.05-6.07,4.18-9.83.23-6.73-2.04-13.89-4.07-20.21-4.72-14.66-11.71-33.63-24.9-42.84-13.73-9.59-25.47,5.27-33.23,15.16-3.43,4.37-7.59,10.77-12.81,12.37.25-.08-.43-.18-.6-.1-1.63.73.22-1.12.07.19,0,0,.6.8.45.75-.39-.13.01.38-.04-.29-.02-.31-.02-.66.02-.97.15-1.45-.12.48.03-.5,1.44-9.19,6.31-18.13,10.49-26.29,6.62-12.94,14.05-25.47,21.86-37.73,8.33-13.07,17.1-25.9,26.62-38.15,7.18-9.23,14.76-18.65,23.81-26.15,1.32-1.09,2.35-1.89,4.08-2.92,2.06-1.23,1.63-1.19,3.46-1.51l.32-.06c-1.29.16-.95.15,1.01-.05,1.09-.06,2.18-.15,3.28-.2,2.82-.14,5.64-.16,8.46-.11,3.94.07,7.91.48,11.84.21,14.94-1.01,17.26-15.97,18.55-28.11,1.87-17.58,1.67-35.42,4.45-52.89,2.19-13.76,10.04-24.72,16.84-36.92,7.91-14.19,16.93-29.98,18.31-46.49.53-6.29-.6-13.66-5.31-18.28-4.83-4.74-12.63-6.57-18.96-8.14-19.44-4.82-40.38-6.71-58.24-16.42s-29.54-27.28-48.1-35.29-38.15-7.22-56.3-14.31c-7.15-2.79-14.05-7.09-18.12-13.77-3.46-5.69-3.63-11.86-5.22-18.09-4.24-16.69-16.67-31.54-35.36-29.37-5.03.58-9.82,2.07-14.66,3.48-3.98,1.16-9.22,3.18-13.32,1.4-4.33-1.87-7.32-9.01-9.63-13.22-9.22-16.84-19.22-32.7-34.81-44.43-19.01-14.29-42.11-22.06-62.75-33.58-6.56-3.66-14.63-8.01-18.52-14.76-2.41-4.18-1.77-9.02-4.69-13.12-6.14-8.62-17.88-12.8-27.91-14.38-11.88-1.86-24.91-.8-35.28,5.8-12.4,7.9-17.44,21.65-17.69,35.86-.11,6.44,9.89,6.44,10,0Z"/>
      </g>
    </g>
  </g>
  <g id="PARIS">
    <g id="P">
      <path class="cls-3" d="M528.56,427.69c-.77-2.44,10.18-42.12,17.98-42.62s26.1,5.26,22.98,19.63-10.05,5.56-19.48,7.33-11.46,16.72-13.35,17.33-7.37.79-8.14-1.66Z"/>
      <path class="cls-2" d="M549.96,393.23c-4.11,1.28-4.86,5.37-4.64,8.68s6.86,3.32,11.41,4.4c4.55,1.08,5.02-5.17,3.92-8.71-1.1-3.54-6.58-5.65-10.69-4.37Z"/>
    </g>
    <g id="A">
      <path class="cls-3" d="M570.31,433.34c-1.28-1.62-1.54-41.98,14.95-39.76,16.5,2.22,14.4,41.45,10.81,43.2s-6.84,1.16-8.23-1.97c-1.39-3.12,3.41-9.96-3.54-13.66-6.95-3.71-5.24,8.6-7.23,11.42s-5.48,2.38-6.76.76Z"/>
      <path class="cls-2" d="M580.36,412.3c3.23.16,4.32.5,8.08,1.91s2.2-12.2-3.26-13.03c-5.46-.83-8.05,10.95-4.82,11.12Z"/>
    </g>
    <g id="R">
      <path class="cls-3" d="M612.31,435.26c-1.8-1.87-15.53-35.65-6.93-41.89s26.96-6.31,27.72,4.69c.77,11-11.23,10.41-13.35,13.82-2.12,3.41,25.17,8.26,21.63,13.05s-7.71,5.14-11.47,3.36-3.86-9.3-11.74-8.57,5.43,9.17,3.82,12.33-7.88,5.08-9.68,3.2Z"/>
      <path class="cls-2" d="M614.22,407.16c-5.1,1.7-7.21-8.09-2.93-10.72,4.28-2.63,12.56-3.79,13.36,2.24.8,6.04-5.33,6.78-10.43,8.47Z"/>
    </g>
    <g id="I">
      <path class="cls-3" d="M656.44,422.8c-2.84-1.53-20.21-24.01-19.13-28.14,1.07-4.13,4.51-5.45,7.09-4.78s20.13,26.44,19.25,29.83-4.37,4.62-7.21,3.09Z"/>
      <path class="cls-3" d="M638.87,388.21c-2.53,1.82-4.63.8-6.45-1.68s-1.67-4.78.88-6.6,4.8-1.44,6.13,1.59,1.97,4.86-.56,6.68Z"/>
    </g>
    <g id="S">
      <path class="cls-3" d="M662.22,369.28c1,2.1,4.81.1,4.88-5.53s-12.34-7.98-20.75-1.8c-8.41,6.18-4.6,16.67,3.25,21.55,7.85,4.89,14.93-.77,23.16-.77,8.22,0,1.08,9.44.36,14.91s1.12,9.52,4.8,9.52,11.22-12.45,11.22-20.71c0-8.26-8.67-11.74-14.66-12.69s-11.7,3.41-15.14,3.83-9.46-2.98-6.4-7.49c3.06-4.51,8.29-2.92,9.29-.81Z"/>
    </g>
  </g>
  <g id="Localisation">
    <g>
      <path class="cls-3" d="M469.35,406.19l71.3-49.45,8.54,10.52-73.51,48.3c-3.06,2.01-9.45-7.33-6.34-9.37Z"/>
      <path class="cls-3" d="M470.93,408.89c20.79-14.42,41.58-28.84,62.37-43.25,2.98-2.07,5.96-4.13,8.94-6.2l-3.79-.49c2.85,3.51,5.7,7.01,8.54,10.52l.63-4.91c-22.28,14.64-44.57,29.28-66.85,43.92-1.84,1.21-3.64,2.59-5.57,3.66-.25.14-.76.68-1.04.68,1.56-.03-3.42-3.65-2.6-4.43,2.92-2.78-1.5-7.19-4.42-4.42-5.64,5.36,3.35,17.6,10.24,14.2,4.3-2.12,8.33-5.47,12.33-8.1,15.99-10.51,31.99-21.01,47.98-31.52,4.36-2.87,8.73-5.73,13.09-8.6,1.81-1.19,1.94-3.3.63-4.91-2.85-3.51-5.7-7.01-8.54-10.52-.81-1-2.74-1.21-3.79-.49-20.79,14.42-41.58,28.84-62.37,43.25-2.98,2.07-5.96,4.13-8.94,6.2-3.28,2.28-.16,7.7,3.15,5.4Z"/>
    </g>
    <g>
      <circle class="cls-2" cx="586.38" cy="325.24" r="61.05"/>
      <path class="cls-3" d="M644.31,325.24c-.27,24.08-15.25,46.19-38.08,54.45s-48.78,1.23-64.33-17.32c-15.66-18.68-17.73-46.05-5.2-66.93,12.46-20.76,37.38-31.87,61.16-27,26.94,5.51,46.15,29.48,46.46,56.8.05,4.02,6.3,4.03,6.25,0-.3-26.75-16.88-50.88-42.05-60.25-25.32-9.43-54.89-1.25-71.87,19.71s-19.14,50.55-5.35,73.5c13.87,23.07,41.16,35.1,67.55,30,29.94-5.78,51.37-32.77,51.71-62.96.05-4.02-6.2-4.03-6.25,0Z"/>
    </g>
    <g id="Calque_4" data-name="Calque 4">
      <path class="cls-1" d="M537.88,365.03c1.25,2.37,27.49,2.56,29.3-1.21s5.25-15.7,22.07-15.7,20.14,13.39,22.25,16.45,28.24,2.6,26.23-3.07-21.09-22.51-26.1-33.79-10.34-23.44-11.01-27.82c-.29-1.91-4.15-16.16-6.21-31.58-2.22-16.53-3.67-34.41-4.73-40.01-.22-1.15-.33-1.79-.33-1.79,0,0-.09.46-.32,1.7-1.05,5.62-2.54,22.87-4.7,38.91-2.03,15.07-5.8,29.43-6.31,31.78-1.19,5.41-5.6,17.67-11.93,28.95s-30.66,33.13-28.19,37.19Z"/>
      <path class="cls-2" d="M583.69,308.79c.92-1.48,7.85-1.81,9.89,0s4.71,17.67,3.46,19.02-15.56,1.55-17.27.16,3-17.7,3.92-19.19Z"/>
    </g>
    <path class="cls-3" d="M644.31,325.24c-.27,24.08-15.25,46.19-38.08,54.45s-48.78,1.23-64.33-17.32c-15.66-18.68-17.73-46.05-5.2-66.93,12.46-20.76,37.38-31.87,61.16-27,26.94,5.51,46.15,29.48,46.46,56.8.05,4.02,6.3,4.03,6.25,0-.3-26.75-16.88-50.88-42.05-60.25-25.32-9.43-54.89-1.25-71.87,19.71s-19.14,50.55-5.35,73.5c13.87,23.07,41.16,35.1,67.55,30,29.94-5.78,51.37-32.77,51.71-62.96.05-4.02-6.2-4.03-6.25,0Z"/>
    <path class="cls-1" d="M474.2,399.17c0,3.46,5.56,13.41,10.41,14.34s28.23-14.46,28.62-18.55-7.46-13.23-12.2-14.4-26.83,15.15-26.83,18.62Z"/>
    <path class="cls-3" d="M562.43,333.18c1.81-.25,51.67.14,52.88.76s1.81,1.65,1.81,2.43-56.58-.19-56.85-.69.34-2.26,2.16-2.51Z"/>
    <path class="cls-3" d="M578.58,296.88c.74-.25,21.02.14,21.51.76s.74,1.65.74,2.43-23.02-.19-23.13-.69.14-2.26.88-2.51Z"/>
    <path class="cls-3" d="M587.89,230.77c.83-.7,1.91-.88,3.04.37s.83,4.66.26,5.62-3.29,1.12-3.89-.28-.24-5.01.58-5.71Z"/>
    <polygon class="cls-1" points="585.29 259.61 584.18 268.11 594.4 268.3 593.35 259.97 585.29 259.61"/>
  </g>
</svg>