<?xml version="1.0" encoding="UTF-8"?>
<svg id="CM" xmlns="http://www.w3.org/2000/svg" viewBox="0 0 1080 1080">
  <defs>
    <style>
      .cls-1, .cls-2 {
        fill: #ed6237;
      }

      .cls-3 {
        fill: #fff;
      }

      .cls-4 {
        stroke-width: 6px;
      }

      .cls-4, .cls-5 {
        fill: #333;
      }

      .cls-4, .cls-2 {
        stroke: #ed6237;
        stroke-miterlimit: 10;
      }

      .cls-2 {
        stroke-width: 8px;
      }
    </style>
  </defs>
  <g id="Téléphone">
    <g id="Téléphone-2" data-name="Téléphone">
      <rect class="cls-3" x="220.26" y="71.47" width="596.07" height="950.33" rx="50" ry="50"/>
    </g>
    <g id="Téléphone-3" data-name="Téléphone">
      <path class="cls-5" d="M757.1,1021.92h-477.61c-32.57,0-59.23-26.65-59.23-59.23V130.81c0-32.71,26.52-59.23,59.23-59.23,0,0,82.69-.24,82.69-.24,0,0-1.82,329.08,106.84,492.97,108.66,163.89,347.31,239.93,347.31,239.93v158.44c0,32.57-26.65,59.23-59.23,59.23Z"/>
    </g>
    <g id="Téléphone-4" data-name="Téléphone">
      <path class="cls-1" d="M766.33,1009.92h-26.3c-22.57,0-45.14,0-67.71,0-31.21,0-62.43,0-93.64,0-34.38,0-68.76,0-103.14,0-32.01,0-64.01,0-96.02,0-24.57,0-49.14,0-73.7,0-11.57,0-23.13.05-34.7,0-22.38-.09-38.82-17.45-38.85-39.68-.01-8.48,0-16.96,0-25.43,0-17.38,0-34.75,0-52.13,0-24.41,0-48.83,0-73.24s0-58.92,0-88.38,0-65.91,0-98.87c0-34.48,0-68.96,0-103.43s0-68,0-102c0-32.01,0-64.03,0-96.04,0-28.02,0-56.04,0-84.06,0-22.1,0-44.19,0-66.29,0-14.55,0-29.1,0-43.65,0-6.39-.35-12.93.17-19.31,1.53-18.76,18.78-33.62,37.84-33.83,2.48-.03,4.95,0,7.43,0,16.57,0,33.13,0,49.7,0,27.77,0,55.54,0,83.31,0,33.53,0,67.06,0,100.59,0s67.48,0,101.22,0c28.9,0,57.79,0,86.69,0,18.49,0,36.98,0,55.47,0,3.66,0,7.31-.02,10.97,0,13.98.07,26.53,6.99,33.57,19.06,3.77,6.48,5.1,12.92,5.11,20.77,0,3.12,0,6.24,0,9.36v103.43c0,27.32,0,54.64,0,81.95s0,63.13,0,94.7v304.89c0,30.17,0,60.34,0,90.51s0,50.23,0,75.34v84.93c0,2.28.03,4.56-.12,6.84-1.32,19.09-18.61,34.27-37.88,34.53-15.43.21-15.47,24.21,0,24,26.93-.37,50.77-17.77,59.13-43.43,2.21-6.78,2.87-13.93,2.87-21.02v-27.99c0-18.23,0-36.46,0-54.69v-75.7c0-30.34,0-60.68,0-91.02v-100.66c0-34.87,0-69.74,0-104.61,0-34.29,0-68.59,0-102.88s0-63.64,0-95.46,0-54.91,0-82.36c0-21.19,0-42.38,0-63.57v-39.09c0-15.36-1.11-30.27-10.12-43.67-11.8-17.55-31.12-27.99-52.27-28.17-3.32-.03-6.65,0-9.97,0-18.33,0-36.66,0-55,0-29.02,0-58.04,0-87.06,0-34.2,0-68.41,0-102.61,0s-67.67,0-101.5,0c-27.91,0-55.82,0-83.73,0-16.43,0-32.86,0-49.28,0-3.1,0-6.22-.09-9.32.08-26.62,1.47-50.22,19.9-57.11,45.87-2.56,9.63-2.1,19.51-2.1,29.35,0,14.19,0,28.37,0,42.56,0,22.1,0,44.2,0,66.3,0,28.12,0,56.24,0,84.36,0,32.24,0,64.49,0,96.73s0,68.95,0,103.42,0,69.62,0,104.42,0,66.49,0,99.74,0,59.58,0,89.37c0,24.44,0,48.88,0,73.31s0,34.38,0,51.57c0,8.05-.03,16.1,0,24.15.11,34.64,27.72,62.8,62.48,63.09,11.06.09,22.12,0,33.18,0,24.5,0,48.99,0,73.49,0,32.38,0,64.76,0,97.14,0,34.71,0,69.42,0,104.12,0,31.48,0,62.96,0,94.44,0,22.7,0,45.4,0,68.09,0,8.37,0,16.74,0,25.12,0,15.44,0,15.47-24,0-24Z"/>
    </g>
    <circle class="cls-4" cx="270.71" cy="124.51" r="11.56"/>
    <circle class="cls-4" cx="312.45" cy="124.51" r="11.56"/>
  </g>
  <g id="Personne">
    <g id="Personnage">
      <circle class="cls-5" cx="319.05" cy="885.5" r="173.78"/>
      <path class="cls-1" d="M480.82,885.5c-.13,33.95-10.31,66.17-30.28,94.34-8.14,11.49-21.35,25.16-32.4,33.67-6.76,5.2-13.98,9.85-21.45,13.96s-14.14,7.19-21.87,9.98c-32.62,11.76-67.15,13.01-100.08,3.69s-59.26-27.17-80.68-52.83c-20.62-24.7-34.04-58.02-36.35-90.22-2.46-34.32,5.33-67.39,22.99-96.51,34.88-57.52,104.47-88.21,170.18-74.76,66.36,13.58,117.46,67.12,128.19,134.22.52,3.26.86,6.17,1.2,10.48.37,4.65.54,9.31.55,13.98.06,15.44,24.06,15.47,24,0-.15-38.05-11.76-75.96-33.94-106.99-22.11-30.94-52.75-54.46-88.43-67.64-72.33-26.72-157.26-3.67-206.2,55.86-24.58,29.89-39.35,66.2-42.44,104.8s6.32,77.29,26.16,110,47.97,57.66,81.72,72.87c36.04,16.23,76.1,20.86,114.89,13.06,74.26-14.92,134.47-77.46,145.83-152.47,1.48-9.78,2.37-19.59,2.41-29.49.06-15.45-23.94-15.47-24,0Z"/>
    </g>
    <g>
      <path class="cls-1" d="M318.49,888.07c-73.94,0-78.68,151.33-78.68,151.33,0,0,42.71,19.53,78.68,19.88,41.15.39,79.66-20.08,79.66-20.08,0,0-5.72-151.13-79.66-151.13Z"/>
      <path class="cls-1" d="M318.49,876.07c-33.76.27-56.17,26.79-68.52,55.62s-17.62,58.04-20.7,88.12c-.67,6.5-1.25,13.04-1.46,19.58-.12,3.86,2.3,8.7,5.94,10.36,18.04,8.22,37.3,14.62,56.77,18.37,30.75,5.93,61.48,2.03,90.75-8.72,7.77-2.86,15.6-5.98,22.93-9.86,3.58-1.89,6.1-6.32,5.94-10.36-.71-18.53-3.38-37.2-6.97-55.36-6.02-30.42-15.86-63.43-37.58-86.54-12.35-13.15-28.98-21.08-47.11-21.23-15.45-.12-15.46,23.87,0,24,1.72.01,3.43.2,5.15.25,2.86.08-2.64-.63.12.01.8.18,1.61.29,2.41.47,1.57.35,3.13.77,4.66,1.27.76.25,1.49.57,2.25.8,2.26.7-2.26-1.24.41.19s5.29,2.89,7.85,4.58c.56.37,2.68,2.11.13.03.62.51,1.25,1.01,1.86,1.53,1.34,1.14,2.63,2.35,3.87,3.6,1.07,1.07,2.1,2.18,3.1,3.32.58.66,3.85,4.81,1.85,2.13,2.25,3.02,4.36,6.12,6.29,9.36,1.69,2.82,3.25,5.71,4.71,8.66.81,1.64,1.59,3.29,2.34,4.95.38.84.74,1.68,1.11,2.53-1.29-2.92.35.86.57,1.41,5.49,13.71,9.37,28.04,12.34,42.49,1.35,6.55,2.5,13.13,3.49,19.75.19,1.26.36,2.52.54,3.78.4,2.68-.37-2.92-.03-.27.09.71.18,1.41.27,2.12.36,2.82.68,5.64.97,8.47.61,5.89,1.16,11.8,1.39,17.72l5.94-10.36c-1.27.67-2.56,1.29-3.86,1.9-1.51.71-3.04,1.39-4.56,2.07-2.55,1.14.99-.37-1.18.51-1.2.48-2.41.98-3.62,1.45-12.11,4.72-24.67,8.41-37.48,10.66-26.8,4.7-52.72-.85-78.08-9.65-4.71-1.64-9.39-3.39-14.01-5.27-.45-.18-3.58-1.49-1.43-.58,2,.85.02-.07-.45-.2-.53-.15-1.05-.46-1.56-.69l5.94,10.36c.16-4.86.55-9.71.98-14.55.48-5.34,1.1-10.65,1.76-15.97.09-.73.35-2.31-.13.95.11-.76.21-1.53.32-2.29.22-1.57.46-3.15.7-4.72.56-3.6,1.17-7.18,1.83-10.76,2.68-14.41,6.22-28.72,11.24-42.49.53-1.46,1.08-2.91,1.65-4.35.34-.86.7-1.72,1.04-2.58,1.15-2.91-1.09,2.3.23-.53,1.66-3.57,3.28-7.14,5.15-10.6,1.54-2.84,3.18-5.62,4.96-8.32.95-1.44,1.98-2.81,2.95-4.23,1.63-2.41-1.69,1.94.19-.26.72-.85,1.41-1.73,2.14-2.57,2.34-2.68,4.88-5.09,7.54-7.44.52-.46,2.75-2.02.07-.11.86-.61,1.71-1.25,2.59-1.83,1.53-1.02,3.12-1.96,4.75-2.81.47-.24.94-.46,1.41-.71,2.98-1.56-1.19.25.76-.36,1.78-.56,3.51-1.24,5.33-1.7.79-.2,1.58-.38,2.37-.54s4.49-.52.89-.22c2-.17,3.97-.32,5.98-.34,15.44-.13,15.47-24.13,0-24Z"/>
    </g>
    <g>
      <circle class="cls-1" cx="318.49" cy="835.14" r="52.93"/>
      <path class="cls-1" d="M359.42,835.14c-.22,16.95-11.07,33.05-26.89,38.49-8.91,3.07-16.76,3.34-25.56.8-8.2-2.37-14.58-6.62-20.48-13.67-4.36-5.22-8.25-14.53-8.78-21.48-.4-5.21-.14-9.04.81-13.08,1.26-5.35,2.31-7.88,4.95-12.27,8.63-14.34,26.54-22.39,42.65-19.04,10.2,2.12,17.53,6.45,24.36,14.63,5.56,6.65,8.82,16.43,8.93,25.62.2,15.43,24.2,15.47,24,0-.35-27.58-17.49-51.59-43.27-61.19-24.67-9.19-54.25-1.04-71.04,19.1-17.6,21.11-20.67,51.65-6.35,75.42,14.2,23.57,41.59,35.2,68.44,30.32,30.28-5.5,51.84-33.45,52.23-63.65.2-15.45-23.8-15.46-24,0Z"/>
    </g>
  </g>
  <g id="Bulle">
    <g>
      <path class="cls-3" d="M426.08,681.84c-.72,17.84,6.79,57.4,6.79,57.4l-21.27,59.39,71.44-27.48s44.77,14.17,78.94,15.55c86.19,3.49,157.86-38.11,160.08-92.92,2.22-54.8-65.86-102.06-152.05-105.55-86.19-3.49-141.71,38.79-143.93,93.59Z"/>
      <path class="cls-1" d="M414.08,681.84c-.65,20.1,3.49,40.89,7.22,60.59v-6.38c-7.09,19.8-14.18,39.6-21.27,59.39-2.94,8.19,6.43,17.97,14.76,14.76,23.81-9.16,47.62-18.32,71.44-27.48h-6.38c17.4,5.49,35.34,9.76,53.33,12.73,29.23,4.83,58.79,4.41,87.86-1.41,44.54-8.92,95.73-34.12,109.86-80.95,13.88-45.99-19.07-87.07-56.92-108.79-23.81-13.66-50.65-21.88-77.76-25.62-28.96-4-58.75-3.73-87.26,3.27-42.08,10.33-83.71,38.74-92.86,83.62-1.09,5.35-1.76,10.82-2.01,16.27-.3,6.48,5.73,12,12,12,6.75,0,11.7-5.5,12-12,.07-1.42.15-2.83.28-4.24.05-.53.11-1.05.16-1.58.17-1.88-.32,1.91-.02.06.44-2.76.97-5.49,1.67-8.19.65-2.52,1.42-5,2.31-7.44.23-.64,1.35-3.41.93-2.43-.59,1.37.3-.64.44-.95.37-.78.74-1.57,1.13-2.35,2.36-4.71,5.17-9.23,8.38-13.41-1.33,1.73,1.03-1.21,1.51-1.76.83-.96,1.68-1.91,2.54-2.84,2.01-2.16,4.13-4.23,6.33-6.21,1.12-1.01,2.28-1.97,3.43-2.94.44-.37.88-.72,1.33-1.08-1.48,1.17.05-.04.31-.23,2.52-1.87,5.11-3.63,7.77-5.29,5.41-3.37,11.09-6.34,16.95-8.85,1.26-.54.35-.14.09-.03.8-.33,1.61-.64,2.41-.96,1.64-.63,3.28-1.23,4.94-1.81,3.41-1.18,6.86-2.24,10.34-3.18,6.89-1.87,13.9-3.32,20.97-4.33,30.4-4.37,64.23-1.23,94.25,8.04,13.73,4.24,25.82,9.42,38.25,16.89,11.27,6.78,19.72,13.36,28.62,23.55.89,1.03,1.77,2.07,2.62,3.13.2.25,1.37,1.81.24.3.45.61.9,1.22,1.34,1.84,1.72,2.43,3.33,4.95,4.79,7.55,1.25,2.22,2.39,4.49,3.43,6.82-.98-2.19.61,1.63.78,2.11.48,1.33.91,2.68,1.31,4.04.74,2.54,1.25,5.12,1.75,7.71.36,1.85-.19-1.93.01-.06.06.52.12,1.05.17,1.57.14,1.58.23,3.16.26,4.75.05,2.67-.12,5.31-.35,7.97-.18,2.11.31-1.22-.25,1.51-.32,1.55-.62,3.1-1.02,4.63-.66,2.56-1.51,5.05-2.44,7.53-.48,1.29.13-.23.2-.41-.28.65-.58,1.3-.88,1.94-.69,1.46-1.42,2.89-2.2,4.31-1.32,2.39-2.77,4.71-4.33,6.96-.37.54-2.18,2.98-1.71,2.37.75-.97-.41.49-.46.55-.72.88-1.46,1.75-2.21,2.6-8.62,9.79-16.39,15.62-27.57,22.04-24.8,14.25-54.36,21.21-83.42,22.57-29.7,1.39-57.87-3.99-86.45-11.91-5.71-1.58-12.12-4.65-18.04-2.81s-11.63,4.47-17.37,6.68c-16.62,6.39-33.24,12.79-49.86,19.18-1.11.43-2.22.85-3.33,1.28,4.92,4.92,9.84,9.84,14.76,14.76,5.02-14.01,10.03-28.01,15.05-42.02,2.03-5.67,4.59-11.39,6.16-17.2,1.72-6.38-1.64-15.95-2.64-22.27-.56-3.51-1.09-7.02-1.57-10.54,0,0-.27-2.03-.12-.89s-.24-1.89-.27-2.16c-.23-1.88-.45-3.75-.65-5.63-.68-6.39-1.25-12.84-1.04-19.27.5-15.45-23.5-15.43-24,0Z"/>
    </g>
    <g>
      <circle class="cls-1" cx="500.79" cy="687.94" r="10.5"/>
      <path class="cls-1" d="M502.29,687.94c-.11,1.96-3.07,1.99-3.01,0s2.9-2,3.01,0c.26,4.85,3.95,9,9,9,4.67,0,9.26-4.12,9-9-.57-10.56-8.49-19.5-19.5-19.5s-19.38,8.93-19.5,19.5,8.67,19.02,18.93,19.47c11.23.49,19.5-8.8,20.08-19.47.26-4.86-4.32-9-9-9-5.09,0-8.74,4.13-9,9Z"/>
    </g>
    <g>
      <circle class="cls-1" cx="564.73" cy="688.75" r="10.5"/>
      <path class="cls-1" d="M566.23,688.75c-.11,1.96-3.07,1.99-3.01,0s2.9-2,3.01,0c.26,4.85,3.95,9,9,9,4.67,0,9.26-4.12,9-9-.57-10.56-8.49-19.5-19.5-19.5s-19.38,8.93-19.5,19.5c-.12,10.49,8.67,19.02,18.93,19.47,11.23.49,19.5-8.8,20.08-19.47.26-4.86-4.32-9-9-9-5.09,0-8.74,4.13-9,9Z"/>
    </g>
    <g>
      <circle class="cls-1" cx="629.4" cy="688.75" r="10.5"/>
      <path class="cls-1" d="M630.9,688.75c-.11,1.96-3.07,1.99-3.01,0s2.9-2,3.01,0c.26,4.85,3.95,9,9,9,4.67,0,9.26-4.12,9-9-.57-10.56-8.49-19.5-19.5-19.5s-19.38,8.93-19.5,19.5,8.67,19.02,18.93,19.47c11.23.49,19.5-8.8,20.08-19.47.26-4.86-4.32-9-9-9-5.09,0-8.74,4.13-9,9Z"/>
    </g>
  </g>
  <g id="Facebook">
    <g>
      <rect class="cls-3" x="414.5" y="20.72" width="207.59" height="207.59" rx="50" ry="50"/>
      <path class="cls-1" d="M572.09,216.31h-105c-3.24,0-7.09-.13-8.95-.49-16.58-3.25-28.79-15.41-31.39-32.48.29,1.94-.19-2.49-.17-2.25-.05-.93-.07-1.85-.08-2.78,0-.1,0-.2,0-.3,0-.88,0-1.76,0-2.64v-87.47c0-6.19-.17-12.4.02-18.58.47-15.61,11.5-30.18,26.42-34.8,7.01-2.17,14.24-1.8,22.49-1.8h35.9c20.18,0,40.38-.2,60.56,0,6.54.07,13.07,1.68,18.56,4.78,7.39,4.17,12.11,9.23,16.08,17.17,2.27,4.54,3.49,10.76,3.55,16.48.02,2.42,0,4.84,0,7.27v74.19c0,8.18.03,16.35,0,24.53-.02,5.44-.33,8.47-2.22,14-2.21,6.48-7.73,13.78-13,17.6-7.23,5.24-14.53,7.47-22.79,7.58-15.43.21-15.47,24.21,0,24,22.49-.31,43.94-12.61,54.58-32.67,5.99-11.29,7.42-23.21,7.42-35.72v-77.21c0-7.9.08-15.8,0-23.7-.22-20.26-9.74-38.69-26.04-50.67-20.65-15.18-47.96-11.63-72.12-11.63-23.34,0-46.68-.07-70.01,0-35.77.1-63.37,28.39-63.42,63.97-.04,23.94,0,47.88,0,71.81v30.87c0,15.69,4.38,30.05,14.3,42.36,11.7,14.53,29.8,22.44,48.28,22.58,8.52.06,17.04,0,25.55,0,25.35,0,50.69,0,76.04,0h5.41c15.44,0,15.47-24,0-24Z"/>
    </g>
    <path class="cls-2" d="M497.68,95.28c-1.4-36.43,61.14-21.59,61.14-21.59v22.79s-33.73-7.18-32.85,14.17c-.33,25-.74,112.27-.74,112.27l-28.95-.06s1.23-97.86,1.4-127.59Z"/>
    <polygon class="cls-2" points="550.51 160.27 477.77 160.27 477.77 128.62 555.27 128.62 550.51 160.27"/>
  </g>
  <g id="Insta">
    <g>
      <rect class="cls-3" x="727.14" y="147.8" width="207.59" height="207.59" rx="50" ry="50"/>
      <path class="cls-1" d="M884.73,343.4h-105c-3.24,0-7.09-.13-8.95-.49-16.58-3.25-28.79-15.41-31.39-32.48.29,1.94-.19-2.49-.17-2.25-.05-.93-.07-1.85-.08-2.78,0-.1,0-.2,0-.3,0-.88,0-1.76,0-2.64v-87.47c0-6.19-.17-12.4.02-18.58.47-15.61,11.5-30.18,26.42-34.8,7.01-2.17,14.24-1.8,22.49-1.8h35.9c20.18,0,40.38-.2,60.56,0,6.54.07,13.07,1.68,18.56,4.78,7.39,4.17,12.11,9.23,16.08,17.17,2.27,4.54,3.49,10.76,3.55,16.48.02,2.42,0,4.84,0,7.27v74.19c0,8.18.03,16.35,0,24.53-.02,5.44-.33,8.47-2.22,14-2.21,6.48-7.73,13.78-13,17.6-7.23,5.24-14.53,7.47-22.79,7.58-15.43.21-15.47,24.21,0,24,22.49-.31,43.94-12.61,54.58-32.67,5.99-11.29,7.42-23.21,7.42-35.72v-77.21c0-7.9.08-15.8,0-23.7-.22-20.26-9.74-38.69-26.04-50.67-20.65-15.18-47.96-11.63-72.12-11.63s-46.68-.07-70.01,0c-35.77.1-63.37,28.39-63.42,63.97-.04,23.94,0,47.88,0,71.81v30.87c0,15.69,4.38,30.05,14.3,42.36,11.7,14.53,29.8,22.44,48.28,22.58,8.52.06,17.04,0,25.55,0,25.35,0,50.69,0,76.04,0h5.41c15.44,0,15.47-24,0-24Z"/>
    </g>
    <g>
      <circle class="cls-1" cx="830.94" cy="251.6" r="47.55"/>
      <path class="cls-1" d="M866.49,251.6c-.21,14.51-9.35,28.38-22.71,33.21-14.95,5.41-30.37,1.3-40.64-10.95-9.1-10.86-10.23-27.97-2.69-40.58s23.01-19.7,36.87-16.7c17.26,3.74,28.91,17.77,29.16,35.02.22,15.43,24.22,15.47,24,0-.37-25.54-16.32-47.75-40.33-56.35-22.66-8.12-49.62-.44-64.82,18.13-15.82,19.32-18.56,47.01-5.61,68.66,12.92,21.6,38.05,32.41,62.64,27.98,27.91-5.03,47.71-30.56,48.11-58.41.22-15.45-23.78-15.46-24,0Z"/>
    </g>
  </g>
  <g id="LinkedIn">
    <g>
      <rect class="cls-3" x="155.36" y="243.66" width="207.59" height="207.59" rx="50" ry="50"/>
      <path class="cls-1" d="M312.95,439.26h-105c-3.24,0-7.09-.13-8.95-.49-16.58-3.25-28.79-15.41-31.39-32.48.29,1.94-.19-2.49-.17-2.25-.05-.93-.07-1.85-.08-2.78,0-.1,0-.2,0-.3,0-.88,0-1.76,0-2.64v-87.47c0-6.19-.17-12.4.02-18.58.47-15.61,11.5-30.18,26.42-34.8,7.01-2.17,14.24-1.8,22.49-1.8h35.9c20.18,0,40.38-.2,60.56,0,6.54.07,13.07,1.68,18.56,4.78,7.39,4.17,12.11,9.23,16.08,17.17,2.27,4.54,3.49,10.76,3.55,16.48.02,2.42,0,4.84,0,7.27,0,24.73,0,49.46,0,74.19,0,8.18.03,16.35,0,24.53-.02,5.44-.33,8.47-2.22,14-2.21,6.48-7.73,13.78-13,17.6-7.23,5.24-14.53,7.47-22.79,7.58-15.43.21-15.47,24.21,0,24,22.49-.31,43.94-12.61,54.58-32.67,5.99-11.29,7.42-23.21,7.42-35.72v-77.21c0-7.9.08-15.8,0-23.7-.22-20.26-9.74-38.69-26.04-50.67-20.65-15.18-47.96-11.63-72.12-11.63-23.34,0-46.68-.07-70.01,0-35.77.1-63.37,28.39-63.42,63.97-.04,23.94,0,47.88,0,71.81v30.87c0,15.69,4.38,30.05,14.3,42.36,11.7,14.53,29.8,22.44,48.28,22.58,8.52.06,17.04,0,25.55,0h81.45c15.44,0,15.47-24,0-24Z"/>
    </g>
    <rect class="cls-2" x="189.37" y="330.29" width="30.31" height="76.73"/>
    <circle class="cls-2" cx="204.53" cy="302.63" r="15.15"/>
    <path class="cls-2" d="M233.78,330.29h31.79v15.42s18.72-23.15,42.25-10.48c5.14,2.77,10.39,8.14,13.14,14.41,9.82,22.41,7.81,57.37,7.81,57.37h-24.9s.35-53.76-20.63-53.13c-20.98.64-19.36,53.12-19.36,53.12l-30.09.44v-77.15Z"/>
  </g>
  <g id="TikTok">
    <g id="Personnage-2" data-name="Personnage">
      <circle class="cls-5" cx="547.32" cy="418.99" r="104.23"/>
    </g>
    <g id="Personnage-3" data-name="Personnage">
      <path class="cls-1" d="M659.09,400.96c-.25,38.31-24.73,74.04-60.72,86.74-18.81,6.64-37.93,7.3-56.68,2.01-18.43-5.2-34-15.53-46.63-30.75-4.53-5.46-10.94-16.22-13.56-22.76-3.63-9.06-6-19.2-6.61-27.59-1.45-19.95,2.87-38.56,12.98-55.33,19.66-32.62,59.21-50.34,96.29-42.97,43.59,8.67,74.62,46.82,74.91,90.64.1,15.44,24.1,15.47,24,0-.32-48.71-30.95-92.14-76.47-109.2-44.98-16.86-98.53-2.41-128.94,34.73-30.96,37.82-35.96,92.06-10.52,134.26s74.8,63.36,122.73,54.12c46.32-8.93,84.45-48.18,91.57-94.89.96-6.32,1.58-12.63,1.63-19.02.1-15.45-23.9-15.46-24,0Z"/>
    </g>
    <g>
      <polygon class="cls-1" points="538.5 360.69 538.5 441.23 616.27 400.96 538.5 360.69"/>
      <path class="cls-1" d="M526.5,360.69v80.54c0,9.45,10.1,14.48,18.06,10.36,22.62-11.71,45.23-23.42,67.85-35.14,3.31-1.71,6.61-3.42,9.92-5.14,7.82-4.05,7.82-16.67,0-20.72-22.62-11.71-45.23-23.42-67.85-35.14-3.31-1.71-6.61-3.42-9.92-5.14-5.75-2.98-13.03-1.49-16.42,4.31-3.15,5.38-1.47,13.43,4.31,16.42,22.62,11.71,45.23,23.42,67.85,35.14,3.31,1.71,6.61,3.42,9.92,5.14v-20.72c-22.62,11.71-45.23,23.42-67.85,35.14-3.31,1.71-6.61,3.42-9.92,5.14l18.06,10.36v-80.54c0-15.44-24-15.47-24,0Z"/>
    </g>
  </g>
</svg>