<?xml version="1.0" encoding="UTF-8"?>
<svg id="PAO" xmlns="http://www.w3.org/2000/svg" viewBox="0 0 1080 1080">
  <defs>
    <style>
      .cls-1 {
        fill: #ed6237;
      }

      .cls-2 {
        fill: #fff;
      }

      .cls-3 {
        fill: #333;
      }
    </style>
  </defs>
  <g id="Ordinateur">
    <rect class="cls-2" x="29.42" y="240.46" width="1033.17" height="574.2" rx="50" ry="50"/>
    <path class="cls-3" d="M995.91,814.66H84.09c-33.37,0-60.68-27.31-60.68-60.68v-452.84c0-33.37,27.31-60.68,60.68-60.68l428.61-2.19s92.08,228.77,178.33,328.74c86.25,99.97,365.55,186.97,365.55,186.97,0,33.37-27.31,60.68-60.68,60.68Z"/>
    <path class="cls-1" d="M1006.58,802.66h-212.58c-32.75,0-65.5,0-98.24,0-35.29,0-70.57,0-105.86,0s-71.84,0-107.76,0-70.32,0-105.47,0c-32.35,0-64.7,0-97.05,0-28.11,0-56.22,0-84.34,0-21.89,0-43.79,0-65.68,0h-53.16c-4.56,0-8.18-.11-12-1.08-17.24-4.35-28.84-19.64-29.02-37.15-.03-3.42,0-6.84,0-10.26,0-19.6,0-39.2,0-58.8,0-30.86,0-61.71,0-92.57,0-35.71,0-71.42,0-107.13,0-33.59,0-67.18,0-100.77,0-25.09,0-50.19,0-75.28,0-10.17-.29-20.39.02-30.56.6-20.16,17.83-36.38,37.99-36.61,1.45-.02,2.9,0,4.35,0,10.42,0,20.84,0,31.26,0,18.89,0,37.78,0,56.68,0,25.81,0,51.61,0,77.42,0,30.76,0,61.53,0,92.29,0,34.27,0,68.55,0,102.82,0s71.83,0,107.75,0,71.32,0,106.97,0,68,0,102,0c30.31,0,60.61,0,90.92,0,25.16,0,50.33,0,75.49,0,18.07,0,36.14,0,54.21,0,9.41,0,18.82,0,28.23,0,5.24,0,8.8.16,13.69,1.61,16.15,4.8,26.93,19.91,27.08,36.72.11,11.66,0,23.32,0,34.97,0,26.33,0,52.66,0,78.99,0,34.11,0,68.23,0,102.34s0,71.05,0,106.58c0,29.97,0,59.93,0,89.9,0,18,0,35.99,0,53.99,0,2.59.04,5.19,0,7.78-.38,20.55-17.51,37.02-37.99,37.3-15.43.21-15.47,24.21,0,24,27.84-.39,53.17-19.35,60.06-46.64,1.73-6.85,1.94-13.72,1.94-20.69,0-17.21,0-34.42,0-51.63,0-29.94,0-59.88,0-89.81,0-35.77,0-71.53,0-107.3s0-69.39,0-104.09c0-26.72,0-53.45,0-80.17,0-11.84.11-23.69,0-35.53-.32-35.06-28.85-62.26-63.58-62.34-8.55-.02-17.09,0-25.64,0-17.63,0-35.26,0-52.9,0-24.93,0-49.86,0-74.79,0-30.44,0-60.89,0-91.33,0-34.17,0-68.34,0-102.51,0-36.11,0-72.22,0-108.34,0s-72.53,0-108.8,0-69.27,0-103.91,0c-31.22,0-62.44,0-93.66,0-26.02,0-52.03,0-78.05,0-19.03,0-38.05,0-57.08,0-10.23,0-20.45,0-30.68,0-2.23,0-4.47-.05-6.69.08-27.36,1.52-52.04,21.34-57.73,48.53-2.65,12.65-1.49,26.48-1.49,39.32,0,24.64,0,49.28,0,73.92,0,33.81,0,67.61,0,101.42s0,72.15,0,108.23c0,31.44,0,62.89,0,94.33,0,19.91,0,39.83,0,59.74,0,3.47-.03,6.95,0,10.42.23,22.95,13.05,45.07,33.84,55.4,12.85,6.39,25.65,6.82,39.36,6.82h40.5c21.65,0,43.31,0,64.96,0,28.02,0,56.05,0,84.07,0,32.45,0,64.9,0,97.35,0,35.4,0,70.79,0,106.19,0s72.83,0,109.24,0,71.3,0,106.94,0h99.29c28.76,0,57.51,0,86.27,0,22.63,0,45.26,0,67.9,0h59.26c15.44,0,15.47-24,0-24Z"/>
    <g>
      <path class="cls-3" d="M444.78,814.66h190.28s-3.36,161.15,63.37,185.32h-316.86c66.41-25.45,63.21-185.32,63.21-185.32Z"/>
      <path class="cls-1" d="M444.78,826.66h190.28l-12-12c-.39,19.17.91,38.49,3.01,57.53,3.84,34.88,10.24,71.74,28.1,102.49,9.57,16.48,22.99,30.16,41.07,36.87,1.06-7.86,2.13-15.71,3.19-23.57h-316.86l3.19,23.57c33.18-13.02,49.11-47.88,58.12-80.16s12.29-63.66,13.56-95.8c.27-6.97.48-13.96.34-20.93-.3-15.42-24.3-15.48-24,0,.35,18.06-.85,36.26-2.72,54.2-.39,3.76-.86,7.51-1.32,11.27-.4,3.26.39-2.61-.09.67-.14.97-.27,1.95-.41,2.92-.33,2.3-.69,4.6-1.06,6.89-1.31,8.04-2.87,16.05-4.75,23.98s-4.26,16.42-7.07,24.42c-.66,1.88-1.34,3.75-2.06,5.6-.33.85-2.52,6.05-1.39,3.49-1.67,3.78-3.43,7.52-5.4,11.17s-4.25,7.4-6.7,10.88c-.51.72-1.05,1.43-1.56,2.15-1.18,1.66,1.37-1.52-.83,1-1.32,1.51-2.61,3.02-4.01,4.46s-2.79,2.75-4.28,4.02c-.63.54-1.28,1.06-1.92,1.58,2.63-2.15-.31.17-.88.56-1.57,1.07-3.2,2.07-4.88,2.97-.72.39-1.46.73-2.18,1.11-3.04,1.56,1.06-.36-.89.41-5.56,2.18-9.54,6.86-8.6,13.17.88,5.83,5.69,10.4,11.79,10.4h316.86c5.92,0,11.09-4.56,11.79-10.4.74-6.23-2.85-11.03-8.6-13.17-1.34-.5-1.89-.8-.14,0-.73-.34-1.47-.66-2.19-1.02-1.56-.78-3.09-1.63-4.57-2.56-.68-.43-1.36-.88-2.02-1.34-.36-.25-2.48-1.8-1.08-.74s-.68-.57-1.02-.86c-.73-.62-1.46-1.26-2.16-1.91-2.6-2.41-4.88-5.05-7.18-7.74-.42-.49,1.13,1.6-.25-.32-.51-.71-1.04-1.42-1.54-2.14-1.11-1.59-2.17-3.22-3.18-4.87-2.02-3.28-3.86-6.68-5.55-10.14-.84-1.71-1.63-3.44-2.41-5.18-.2-.44-.38-.88-.58-1.32.05.11.79,1.91.27.64-.43-1.05-.86-2.11-1.27-3.17-3.04-7.78-5.54-15.76-7.67-23.83s-3.94-16.5-5.43-24.85c-.76-4.26-1.45-8.53-2.07-12.81-.14-.97-.27-1.94-.41-2.91-.34-2.4.2,1.73-.08-.66-.25-2.05-.51-4.1-.75-6.15-1.54-13.41-2.52-26.88-3-40.36-.23-6.49-.4-13-.27-19.49s-5.6-12-12-12h-190.28c-15.44,0-15.47,24,0,24Z"/>
    </g>
    <g>
      <circle class="cls-2" cx="540" cy="769.57" r="6"/>
      <path class="cls-1" d="M537,769.57c.03-.57.4-1.6.02-.5.1-.56.34-1.04.73-1.43.42-.48.46-.55.12-.2-.55.55.93-.54,1.12-.66.71-.26.68-.27-.1-.03l1.11-.18c.56,0,1.61.4.5.02.43.15,2.16,1.39,1.63.86s.53.93.66,1.12c.22.61.26.68.11.2-.17-.67-.14-.4.1.8,0,.56-.4,1.61-.02.5-.25.74-.56,1.26-1.07,1.85.96-1.08-.56.22-.9.44-.61.22-.68.26-.2.11.49-.12.4-.12-.25,0-.52-.08-2.43-.4-1.05.08-.74-.25-1.26-.56-1.85-1.07,1.06.94-.12-.51-.44-.9-.22-.61-.26-.68-.11-.2.17.67.14.4-.1-.8.25,4.69,3.96,9.23,9,9,4.66-.21,9.27-3.96,9-9-.44-8.12-6.53-15-15-15s-14.85,6.87-15,15,6.78,14.72,14.67,14.98c8.6.29,14.89-6.8,15.33-14.98.25-4.71-4.32-9.21-9-9-5.09.23-8.73,3.96-9,9Z"/>
    </g>
  </g>
  <g id="Pinceau">
    <g>
      <path class="cls-2" d="M212.31,689.47c-48.78-60.26,345.79-440.13,425.67-463.09l53.06,48.26c-20.09,57.39-429.94,475.1-478.73,414.83Z"/>
      <path class="cls-1" d="M218.67,683.11c2.26,2.85.26.1-.31-.77-1.62-2.47.23,1.59-.35-.77-.24-.97-.48-1.97-.75-2.94-.49-1.78.07.27.07.66,0-.6-.13-1.2-.14-1.81-.02-1.1-.05-2.2,0-3.3.03-.55.08-1.09.11-1.64.02-.37.12-.75.11-1.12-.02-1.46-.48,2.39-.12.87.65-2.73,1.04-5.49,1.81-8.2.86-3,1.89-5.95,3.02-8.85.28-.72.58-1.44.87-2.16.72-1.79-.87,1.98-.09.2.14-.33.28-.66.43-.99.8-1.78,1.6-3.56,2.45-5.32,3.6-7.49,7.69-14.74,12.01-21.84,24.11-39.6,52.57-73.2,83.4-108.11,37.17-42.08,76.43-82.34,116.91-121.23,37.48-36.01,76.04-71.03,116.44-103.74,4.19-3.39,8.4-6.76,12.64-10.09,4.72-3.7,5.94-4.65,10.86-8.38,7.45-5.64,14.99-11.15,22.69-16.44,6.38-4.38,12.86-8.62,19.53-12.54,2.7-1.58,5.44-3.12,8.22-4.56,1.21-.63,2.44-1.24,3.67-1.83.61-.29,1.22-.57,1.84-.86.47-.22,2.76-1.19,1.05-.47-1.56.65,1.55-.6,2.25-.85,1.01-.36,2.03-.7,3.05-1l-8.76-2.31c17.69,16.09,35.37,32.17,53.06,48.26l-2.31-8.76c-1,2.8.55-.87-.08.29-.47.86-.85,1.79-1.31,2.67-1.1,2.09-2.31,4.13-3.56,6.13-3.27,5.23-6.87,10.26-10.55,15.21-1.05,1.41-2.11,2.81-3.17,4.21-.92,1.21-1.65,2.14-.78,1.02-.7.9-1.4,1.8-2.11,2.7-2.71,3.45-5.46,6.87-8.23,10.27-6.19,7.58-12.51,15.04-18.91,22.44-33.65,38.89-69.21,76.17-105.48,112.62-41.17,41.39-83.49,81.7-127.36,120.22-37.39,32.82-73.37,63.21-114.73,89.9-7.78,5.02-15.7,9.82-23.88,14.17-3.45,1.84-6.94,3.59-10.49,5.22-.79.36-1.58.71-2.37,1.07-.46.21-.93.4-1.4.61.09-.04,2.12-.87.77-.33-1.63.66-3.26,1.32-4.92,1.92-2.91,1.06-5.86,2-8.87,2.72-1.32.32-2.64.55-3.96.82-2.31.48,1.09-.03.24,0-.69.01-1.38.15-2.07.2-1.08.07-2.17.11-3.26.07-.51-.02-1.03-.08-1.54-.09-2.39-.01,2.05.61.34.06-.86-.28-1.83-.45-2.71-.67-2.73-.67,1.46,1.19-.76-.35-.33-.23-.74-.5-1.1-.67-1.7-.81.85,1,.59.48-.33-.67-1.5-1.43-2-2.04-3.09-3.75-9.52-3.2-12.73,0-3.71,3.71-3.1,8.96,0,12.73,7.67,9.31,20.81,9.51,31.64,7.3,14.73-3,28.76-10.48,41.67-17.93,41.32-23.82,78.76-54.84,114.93-85.71,44.93-38.34,88.05-78.81,130.03-120.34,38.47-38.05,76.1-77.04,111.95-117.58,13.12-14.84,26.05-29.89,38.25-45.51,8.01-10.25,16.51-20.76,22.43-32.42,1.09-2.14,2.07-4.36,2.88-6.62,1.02-2.86-.1-6.74-2.31-8.76-16.64-15.13-33.27-30.26-49.91-45.39-3.77-3.42-7.05-6.48-12.79-4.91-3.22.88-6.38,2.35-9.4,3.71-6.62,2.98-12.94,6.62-19.11,10.44-41.83,25.88-79.68,58.94-116.39,91.46-48.35,42.84-94.81,87.89-139.23,134.8-40.31,42.57-79.8,86.73-113.36,134.91-11.89,17.06-23.13,34.81-31.15,54.05-4.96,11.9-9.6,26.5-5.3,39.29,1.2,3.56,2.88,6.3,5.2,9.2,3.03,3.81,9.57,3.16,12.73,0,3.76-3.76,3.04-8.91,0-12.73Z"/>
    </g>
    <g>
      <path class="cls-2" d="M596.13,245.75c-6.34,23.19,47.04,66.96,73.65,66.96,18.71,0,24.8-34.88,24.8-34.88l-61.05-54.95s-32.38,2.95-37.4,22.87Z"/>
      <path class="cls-1" d="M587.45,243.36c-2.96,11.99,3.07,23.84,10.15,33.17,9.07,11.95,20.49,21.96,32.97,30.23,11.02,7.3,23.84,13.93,37.25,14.87,13.81.97,23.68-9.76,28.96-21.38,3.09-6.8,10.48-22.02,4.17-28.79-3.85-4.13-8.56-7.7-12.75-11.48-15.28-13.75-30.55-27.5-45.83-41.25-2.65-2.39-5-4.78-8.94-4.84s-8.44,1.18-12.18,2.13c-14.55,3.71-29.48,11.92-33.79,27.33-3.12,11.17,14.24,15.94,17.36,4.79,1.85-6.63,8.91-10.78,15.65-13.1,3.37-1.16,6.83-2.05,10.33-2.71,1.15-.22,2.31-.35,3.45-.57-3.19.6-1.49.19-.7.12l-6.36-2.64c20.35,18.32,40.7,36.63,61.05,54.95l-2.31-8.76c-.33,1.83-.77,3.65-1.24,5.45s-.97,3.47-1.53,5.18c-.32.98-.66,1.95-1.03,2.92-.48,1.27-.79,2-.87,2.18-2.05,4.57-3.81,7.77-7.03,10.68-.75.68-.07.14.09.01-.46.35-.97.67-1.47.97-1.19.72.31.11-1.44.65s-.17.24-1.6.24c-1.06,0-2.13-.06-3.18-.19,1.81.22-1.49-.34-1.88-.43-1.06-.24-2.11-.53-3.15-.85-1.93-.58-4.74-1.61-5.93-2.13-5.22-2.27-10.22-5.14-14.99-8.24-9.56-6.21-18.34-13.74-25.78-22.39-3.3-3.85-6.35-8.17-8.62-13.07-.49-1.06-.19-.14-.72-1.93-.31-1.05-.59-2.09-.83-3.15-.4-1.7-.04-.27-.01.11-.04-.61-.01-1.24-.07-1.84-.19-2.02-.4.95.19-1.45,2.77-11.25-14.58-16.04-17.36-4.79Z"/>
    </g>
    <g>
      <path class="cls-2" d="M871.85,80.03s-63.2,241.36-165.48,203.71c-12.91-4.75-27.22-17.93-41.3-32.47-16.89-17.45-33.21-25.97-37.44-38.93-27.19-83.42,185.02-90.08,244.22-132.3Z"/>
      <path class="cls-1" d="M863.17,77.63c-7.14,27.23-16.8,54.04-27.7,79.96-.66,1.58.82-1.92-.33.77-.24.56-.48,1.12-.72,1.68-.6,1.41-1.21,2.81-1.83,4.21-1.25,2.84-2.52,5.66-3.81,8.48-2.5,5.44-5.1,10.84-7.8,16.18-5.49,10.86-11.42,21.52-17.98,31.78-6.56,10.28-12.3,18.24-19.95,26.85-3.56,4.01-7.31,7.85-11.28,11.45-4.64,4.2-6.19,5.47-11.06,8.7-8.85,5.88-14.45,8.53-24.68,10.4-.59.11-1.19.2-1.78.3-1.46.24,2.23-.2-.12,0-.97.08-1.93.18-2.9.24-2.45.14-4.91.12-7.36-.05-.58-.04-4.26-.49-2.1-.17-1.27-.19-2.53-.41-3.78-.68-2.6-.55-5.16-1.28-7.68-2.13-8.5-2.85-15.91-8.98-22.53-14.84-8.95-7.94-16.9-16.92-25.81-24.9-7.21-6.46-15.41-12.24-21.73-19.63-3.61-4.22-4.92-8.6-5.84-14.09.33,2.01,0-.15-.07-1-.08-1.1-.12-2.2-.11-3.3,0-.97.11-1.93.14-2.89.01-.6.31-2.14-.07.19.1-.62.18-1.25.32-1.85.43-1.83.95-3.59,1.52-5.38.76-2.39-.64.93.55-1.29.5-.93.95-1.87,1.48-2.78s1.13-1.81,1.7-2.71c.8-1.25,1.19-1.65.72-1.07,1.42-1.76,2.93-3.44,4.53-5.04s3.31-3.07,5.04-4.53-.11,0,1.41-1.11c1.13-.83,2.28-1.65,3.44-2.44,19.84-13.47,41.16-20.34,64.21-27.38,26.09-7.97,52.63-14.37,78.94-21.57,22.72-6.21,46.01-12.64,67.03-23.48,3.87-1.99,7.62-4.2,11.18-6.71,3.96-2.8,5.83-7.86,3.23-12.31-2.29-3.92-8.32-6.05-12.31-3.23-3.76,2.65-7.74,4.96-11.84,7.05-2.28,1.16-4.6,2.25-6.94,3.29-.49.22-.98.43-1.46.64-2.45,1.07,1.66-.67-.85.36-1.29.53-2.58,1.05-3.87,1.56-11.52,4.52-23.37,8.2-35.25,11.63-27.06,7.83-54.48,14.31-81.54,22.12-24.85,7.17-50.36,15.09-72.81,28.22-17.69,10.34-34.07,25.41-36.26,46.87-1.27,12.42,2.55,25.03,10.65,34.49,6.47,7.56,14.76,13.49,22.14,20.1,9.36,8.38,17.66,17.84,27.16,26.09,13.09,11.37,27.12,19.61,44.47,21.61,10.2,1.17,20.8-.19,30.42-3.73,21.44-7.89,38.52-24.08,52.37-41.8,15.73-20.11,28.25-42.46,39.06-65.53,15.12-32.26,28.44-66.42,37.29-101.01.15-.6.33-1.2.49-1.8,2.94-11.21-14.42-16-17.36-4.79Z"/>
    </g>
  </g>
  <g id="Crayon">
    <g>
      <path class="cls-2" d="M807.73,712.47c33.61-.96,53.82-35.53,48.06-62.41-5.76-26.89-423.63-432.37-423.63-432.37l-74.03,61.75s415.99,433.99,449.6,433.03Z"/>
      <path class="cls-1" d="M807.73,721.47c21.61-.92,40.77-13.45,50.65-32.7,6.42-12.5,11.25-31.29,4.66-44.71-4.56-9.27-12.64-17.38-19.36-25.1-29.94-34.38-62.13-66.88-94.02-99.43-43.29-44.18-87.06-87.88-130.98-131.42-39.8-39.46-79.76-78.76-119.82-117.95-19.77-19.35-39.2-39.2-59.48-58.01-.29-.27-.57-.55-.85-.83-3.72-3.61-8.94-3.16-12.73,0-21.6,18.02-43.2,36.04-64.81,54.06-3.08,2.56-6.15,5.13-9.23,7.69-3.79,3.16-3.12,9.47,0,12.73,13.96,14.57,27.99,29.07,42.02,43.57,33.73,34.83,67.59,69.54,101.6,104.1,41.47,42.14,83.16,84.08,125.28,125.57,37.21,36.65,74.65,73.14,113.35,108.22,13.23,11.99,26.6,23.89,40.57,35.01,8.3,6.6,17.48,14.85,27.78,18.25,1.72.57,3.53.98,5.35.95,11.57-.16,11.61-18.16,0-18-1.86.03,2.76,1.01.85.13-.47-.22-1.26-.51-1.76-.57-1.43-.18,2.51,1.31.86.35-.32-.18-.68-.31-1-.49-.81-.44-1.63-.87-2.43-1.33-4.43-2.57-8.59-5.62-12.67-8.71-.58-.44-1.15-.88-1.72-1.32,2.56,1.95-.1-.08-.68-.54-1.39-1.09-2.77-2.2-4.15-3.31-3.04-2.46-6.05-4.95-9.04-7.48-7.04-5.94-13.97-12.01-20.84-18.14-37.35-33.35-73.31-68.26-109.05-103.3-42.17-41.34-83.87-83.17-125.34-125.21-35.18-35.66-70.18-71.48-105.05-107.44-11.48-11.84-22.95-23.7-34.4-35.57-5.32-5.52-10.39-11.65-16.12-16.75-.25-.22-.47-.49-.7-.73v12.73c21.6-18.02,43.2-36.04,64.81-54.06,3.08-2.56,6.15-5.13,9.23-7.69h-12.73c15.81,15.34,31.58,30.73,47.34,46.13,37.4,36.55,74.71,73.19,111.9,109.95,43.57,43.07,86.99,86.3,130.03,129.89,34.7,35.15,69.42,70.37,102.68,106.88,5.4,5.93,10.75,11.89,15.97,17.98,2.07,2.42,4.12,4.85,6.13,7.32.82,1.01,1.62,2.04,2.43,3.05,1.27,1.57-1.49-2.02-.03-.04.35.48.72.95,1.07,1.42,1.09,1.48,2.18,2.99,3.12,4.57.32.53.57,1.17.93,1.67.83,1.16-.4-2.59-.3-.63.39,7.55.76,14.11-1.85,21.81s-7.67,15.11-14.07,20.48-14.84,8.55-23.41,8.92c-11.54.49-11.6,18.49,0,18Z"/>
    </g>
    <g>
      <polygon class="cls-2" points="290.67 140.11 358.14 279.45 394.02 251.26 432.17 217.7 290.67 140.11"/>
      <path class="cls-1" d="M282.9,144.65c19.73,40.74,39.45,81.49,59.18,122.23,2.76,5.7,5.52,11.4,8.28,17.1s9.98,5.09,14.14,1.82c11-8.64,22-17.28,33-25.92,9.15-7.18,17.65-15.26,26.37-22.94,4.88-4.3,9.77-8.6,14.65-12.89,4.31-3.79,3.03-11.48-1.82-14.14-41.41-22.71-82.83-45.41-124.24-68.12-5.75-3.15-11.5-6.31-17.26-9.46-10.16-5.57-19.26,9.97-9.08,15.54,41.41,22.71,82.83,45.41,124.24,68.12,5.75,3.15,11.5,6.31,17.26,9.46l-1.82-14.14c-18.97,16.7-37.78,33.28-57.65,48.88-5.46,4.29-10.92,8.58-16.38,12.87l14.14,1.82c-19.73-40.74-39.45-81.49-59.18-122.23-2.76-5.7-5.52-11.4-8.28-17.1-2.12-4.37-8.35-5.55-12.31-3.23-4.47,2.61-5.35,7.92-3.23,12.31Z"/>
    </g>
  </g>
</svg>