<?xml version="1.0" encoding="UTF-8"?>
<svg id="Rédaction_web" data-name="Rédaction web" xmlns="http://www.w3.org/2000/svg" viewBox="0 0 1080 1080">
  <defs>
    <style>
      .cls-1 {
        stroke-width: 6px;
      }

      .cls-1, .cls-2 {
        fill: #ed6237;
      }

      .cls-1, .cls-3 {
        stroke: #ed6237;
        stroke-miterlimit: 10;
      }

      .cls-4, .cls-3 {
        fill: #fff;
      }

      .cls-5 {
        fill: #333;
      }

      .cls-3 {
        stroke-width: 3px;
      }
    </style>
  </defs>
  <g id="Calque_15" data-name="Calque 15">
    <g>
      <path class="cls-5" d="M445.11,620.79h191.77s-3.39,162.41,63.87,186.77h-319.34c66.93-25.64,63.71-186.77,63.71-186.77Z"/>
      <path class="cls-2" d="M445.11,632.79h191.77l-12-12c-.39,19.38.92,38.92,3.05,58.17,3.88,35.18,10.36,72.42,28.49,103.39,9.63,16.45,23.06,30.07,41.14,36.78,1.06-7.86,2.13-15.71,3.19-23.57h-319.34l3.19,23.57c33.32-13.08,49.35-48.05,58.44-80.46s12.45-64.29,13.73-96.75c.28-7.03.48-14.09.35-21.13-.3-15.42-24.3-15.48-24,0,.35,17.97-.83,36.07-2.67,53.93-.4,3.91-.86,7.81-1.36,11.72-.06.48-.12.96-.19,1.44.01-.11.3-2.18.1-.77-.14.97-.27,1.95-.41,2.92-.31,2.13-.63,4.26-.97,6.39-1.37,8.55-3.02,17.05-5.03,25.47s-4.28,16.41-7.09,24.41c-.66,1.88-1.35,3.75-2.06,5.6-.36.92-.72,1.83-1.09,2.75-1.03,2.57.34-.64-.49,1.18-1.65,3.62-3.31,7.22-5.2,10.72-2.03,3.75-4.25,7.4-6.7,10.89-.6.85-1.21,1.68-1.82,2.51,1.41-1.93.12-.17-.56.66-1.28,1.54-2.61,3.04-4,4.47s-2.79,2.76-4.27,4.04c-.73.63-1.48,1.24-2.24,1.85,1.85-1.49.45-.37-.55.32-1.57,1.08-3.19,2.09-4.86,3-.84.46-1.69.88-2.54,1.3-2.65,1.32.59-.17-.89.4-5.56,2.18-9.54,6.87-8.6,13.17.88,5.83,5.69,10.4,11.79,10.4h319.34c5.92,0,11.09-4.56,11.79-10.4.74-6.23-2.85-11.03-8.6-13.17-1.34-.5-1.89-.8-.14,0-.73-.34-1.47-.66-2.19-1.02-1.57-.77-3.09-1.63-4.57-2.56-.69-.43-1.36-.87-2.03-1.33-.36-.25-2.49-1.79-1.08-.74s-.68-.57-1.02-.85c-.74-.62-1.46-1.26-2.17-1.91-2.71-2.5-5.09-5.24-7.47-8.05-1.46-1.72,1.05,1.55-.24-.33-.5-.72-1.04-1.43-1.54-2.15-1.11-1.59-2.16-3.22-3.18-4.88-2.02-3.29-3.86-6.68-5.55-10.14-.84-1.71-1.63-3.44-2.41-5.18-.4-.89-1.11-2.64-.31-.69-.43-1.05-.86-2.11-1.27-3.17-3.11-7.93-5.65-16.08-7.82-24.32s-3.93-16.51-5.42-24.86c-.76-4.26-1.45-8.53-2.07-12.81-.14-.97-.27-1.94-.41-2.91-.34-2.4.21,1.73-.09-.66-.25-2.05-.52-4.1-.75-6.16-1.56-13.55-2.56-27.18-3.04-40.81-.23-6.55-.4-13.13-.27-19.69s-5.6-12-12-12h-191.77c-15.44,0-15.47,24,0,24Z"/>
    </g>
    <rect class="cls-4" x="20.45" y="42.1" width="1041.25" height="578.69" rx="50" ry="50"/>
    <path class="cls-5" d="M990.42,620.79H87.43c-38.02,0-69.13-31.11-69.13-69.13V111.23c0-38.02,31.11-69.13,69.13-69.13l335.29-1.25s54.47,184.36,155.24,299.2c100.77,114.84,481.59,211.61,481.59,211.61,0,38.02-31.11,69.13-69.13,69.13Z"/>
    <path class="cls-2" d="M1011.7,608.79h-60.64c-22.59,0-45.18,0-67.78,0h-86.25c-32.9,0-65.81,0-98.71,0-35.61,0-71.23,0-106.84,0h-108.77c-35.48,0-70.97,0-106.45,0-32.65,0-65.3,0-97.95,0-28.25,0-56.5,0-84.74,0-22.2,0-44.4,0-66.6,0h-53.46c-4.56,0-8.25-.12-12.04-1.08-17.25-4.38-28.85-19.63-29.02-37.17-.03-3.48,0-6.97,0-10.45,0-19.82,0-39.64,0-59.47,0-31.15,0-62.3,0-93.45,0-35.86,0-71.73,0-107.59,0-34.05,0-68.09,0-102.14,0-25.22,0-50.44,0-75.66,0-10.12-.18-20.25,0-30.37.38-20.52,17.51-37.07,38-37.3,1.46-.02,2.93,0,4.4,0,10.52,0,21.05,0,31.57,0,19.08,0,38.16,0,57.23,0,25.93,0,51.85,0,77.78,0,31.19,0,62.39,0,93.58,0,34.44,0,68.88,0,103.32,0,36.25,0,72.5,0,108.75,0s71.98,0,107.97,0,68.63,0,102.94,0c30.58,0,61.17,0,91.75,0,25.29,0,50.57,0,75.86,0,18.32,0,36.64,0,54.96,0,9.45,0,18.89,0,28.34,0,5.5,0,9.09.17,14.36,1.8,15.75,4.88,26.28,20,26.44,36.56.11,11.82,0,23.65,0,35.47,0,26.59,0,53.19,0,79.78,0,34.43,0,68.85,0,103.28s0,71.36,0,107.05c0,30.38,0,60.76,0,91.14,0,18.11,0,36.21,0,54.32,0,2.43.03,4.86,0,7.28-.24,20.92-17.13,37.71-38,38-15.43.21-15.47,24.21,0,24,27.84-.39,53.17-19.35,60.06-46.64,1.75-6.91,1.94-13.84,1.94-20.87,0-17.44,0-34.88,0-52.32,0-30.08,0-60.17,0-90.25,0-36.08,0-72.16,0-108.23s0-70.02,0-105.03c0-26.99,0-53.98,0-80.97,0-12.02.11-24.04,0-36.06-.32-35.08-28.87-62.27-63.61-62.33-8.65-.02-17.3,0-25.94,0-17.82,0-35.63,0-53.45,0-25.18,0-50.36,0-75.55,0-30.59,0-61.19,0-91.78,0-34.49,0-68.97,0-103.46,0-36.45,0-72.89,0-109.34,0s-73.2,0-109.8,0c-34.8,0-69.6,0-104.4,0-31.52,0-63.03,0-94.55,0-26.27,0-52.53,0-78.8,0-19.21,0-38.42,0-57.64,0-10.35,0-20.71,0-31.06,0-2.22,0-4.44-.05-6.66.08-27.55,1.53-52.5,21.69-57.87,49.19-2.47,12.65-1.35,26.34-1.35,39.15,0,24.91,0,49.82,0,74.73,0,34.12,0,68.25,0,102.37,0,36.39,0,72.78,0,109.17,0,31.58,0,63.16,0,94.74,0,20.13,0,40.27,0,60.4,0,3.54-.04,7.08,0,10.62.24,22.96,13.03,45.08,33.84,55.43,12.86,6.39,25.67,6.82,39.39,6.82s27.21,0,40.81,0c21.84,0,43.68,0,65.53,0,28.28,0,56.55,0,84.83,0,32.91,0,65.81,0,98.72,0h106.7c36.75,0,73.5,0,110.25,0s71.95,0,107.92,0c33.39,0,66.79,0,100.18,0,29.01,0,58.02,0,87.03,0h128.06c15.44,0,15.47-24,0-24Z"/>
    <g>
      <circle class="cls-4" cx="541.08" cy="575.35" r="6.05"/>
      <path class="cls-2" d="M538.13,575.35c.03-.58.39-1.58.01-.48.09-.56.34-1.03.73-1.42.42-.48.46-.54.12-.19-.55.55.92-.53,1.11-.65.71-.25.67-.26-.11-.03l1.1-.18c.57,0,1.59.4.48.01.43.15,2.15,1.38,1.61.85s.53.92.65,1.11c.22.61.25.67.11.2-.17-.67-.14-.4.1.79,0,.57-.4,1.59-.01.48-.25.73-.55,1.25-1.06,1.83.96-1.09-.55.2-.89.43-.61.22-.67.25-.2.11.49-.12.41-.12-.24,0-.52-.09-2.4-.4-1.03.08-.73-.25-1.25-.55-1.83-1.06,1.06.94-.11-.5-.43-.89-.22-.61-.25-.67-.11-.2.17.67.14.4-.1-.79.25,4.69,3.96,9.23,9,9,4.66-.21,9.27-3.96,9-9-.44-8.14-6.55-15.05-15.05-15.05s-14.9,6.89-15.05,15.05,6.8,14.76,14.72,15.03c8.63.29,14.94-6.82,15.38-15.03.25-4.71-4.32-9.21-9-9-5.09.23-8.73,3.96-9,9Z"/>
    </g>
    <g>
      <rect class="cls-4" x="114.47" y="109.1" width="848.91" height="424.45" rx="12" ry="12"/>
      <path class="cls-2" d="M951.38,524.55h-48.24c-40.98,0-81.95,0-122.93,0-55.56,0-111.12,0-166.69,0-60.16,0-120.32,0-180.47,0-53.73,0-107.47,0-161.2,0-37.33,0-74.65,0-111.98,0-9.32,0-18.64,0-27.95,0-4.26,0-8.28.78-8.44-4.64-1.03-35.08,0-70.35,0-105.45,0-58.45,0-116.91,0-175.36,0-38.03,0-76.05,0-114.08,0-2.94-.67-6.19,3.01-6.92,1.07-.21,2.39,0,3.47,0,8.33,0,16.66,0,24.99,0,35.87,0,71.75,0,107.62,0,52.97,0,105.93,0,158.9,0,60.07,0,120.15,0,180.22,0,56.16,0,112.33,0,168.49,0,42.26,0,84.53,0,126.79,0,12.75,0,25.49,0,38.24,0,5.18,0,10.79-.62,15.95,0,3.04.37,3.26,2.4,3.23,4.86-.05,4.25,0,8.51,0,12.76,0,18.47,0,36.94,0,55.41,0,56.81,0,113.62,0,170.43,0,47.09,0,94.19,0,141.28,0,4.93,0,9.86,0,14.8,0,2.61.69,6.72-3,6.92-11.52.63-11.59,18.63,0,18,12.93-.7,21-10.51,21-23.02v-13.42c0-18.98,0-37.96,0-56.95,0-57.98,0-115.96,0-173.94,0-46.23,0-92.45,0-138.68v-13.42c0-12.37-8.09-22.51-21-23.02-4.32-.17-8.67,0-12.99,0-30.58,0-61.15,0-91.73,0-50.46,0-100.92,0-151.38,0-60.11,0-120.22,0-180.33,0-58.7,0-117.39,0-176.09,0-46.25,0-92.5,0-138.75,0-23.53,0-47.05,0-70.58,0-2.3,0-4.44-.01-6.75.39-11.44,2-17.3,12.14-17.3,22.96,0,12.74,0,25.48,0,38.21,0,53.72,0,107.44,0,161.16s0,106.9,0,160.35c0,12.22-.08,24.44,0,36.66.09,12.31,8.24,22.21,21.01,22.71,1.18.05,2.37,0,3.54,0,23.96,0,47.93,0,71.89,0h140.5c58.51,0,117.02,0,175.53,0,60.04,0,120.09,0,180.13,0,50.45,0,100.89,0,151.34,0,29.93,0,59.86,0,89.79,0h12.18c11.58,0,11.6-18,0-18Z"/>
    </g>
    <circle class="cls-3" cx="924.55" cy="144.28" r="11.3"/>
    <circle class="cls-3" cx="891.91" cy="144.28" r="11.3"/>
    <circle class="cls-3" cx="859.09" cy="144.28" r="11.3"/>
    <g id="Calque_17" data-name="Calque 17">
      <path class="cls-5" d="M183.08,182.22h333.97c5.79,0,5.8-9,0-9H183.08c-5.79,0-5.8,9,0,9h0Z"/>
      <path class="cls-5" d="M384.17,370.36h-201.09l4.5,4.5c0-44.14,0-88.28,0-132.42,0-6.26,0-12.52,0-18.78l-4.5,4.5c22.7,0,45.41,0,68.11,0,36.01,0,72.01,0,108.02,0,8.32,0,16.64,0,24.96,0l-4.5-4.5c0,44.14,0,88.28,0,132.42v18.78c0,5.79,9,5.8,9,0,0-44.14,0-88.28,0-132.42v-18.78c0-2.43-2.06-4.5-4.5-4.5-22.7,0-45.41,0-68.11,0h-108.02c-8.32,0-16.64,0-24.96,0-2.43,0-4.5,2.06-4.5,4.5,0,44.14,0,88.28,0,132.42,0,6.26,0,12.52,0,18.78,0,2.43,2.06,4.5,4.5,4.5h201.09c5.79,0,5.8-9,0-9Z"/>
      <path class="cls-5" d="M427.99,228.16c14.99,0,29.99,0,44.98,0,36.01,0,72.02,0,108.03,0,43.57,0,87.15,0,130.72,0,37.69,0,75.37,0,113.06,0h37.4c5.83,0,11.81.38,17.63,0,.26-.02.53,0,.79,0,5.79,0,5.8-9,0-9-14.99,0-29.99,0-44.98,0-36.01,0-72.02,0-108.03,0-43.57,0-87.15,0-130.72,0-37.69,0-75.37,0-113.06,0h-37.4c-5.83,0-11.81-.38-17.63,0-.26.02-.53,0-.79,0-5.79,0-5.8,9,0,9h0Z"/>
      <path class="cls-5" d="M428.07,274.11c14.99,0,29.99,0,44.98,0h108.03c43.57,0,87.15,0,130.72,0,37.69,0,75.37,0,113.06,0h37.4c5.83,0,11.81.38,17.63,0,.26-.02.53,0,.79,0,5.79,0,5.8-9,0-9-14.99,0-29.99,0-44.98,0h-108.03c-43.57,0-87.15,0-130.72,0-37.69,0-75.37,0-113.06,0h-37.4c-5.83,0-11.81-.38-17.63,0-.26.02-.53,0-.79,0-5.79,0-5.8,9,0,9h0Z"/>
      <path class="cls-5" d="M428.07,320.07c14.99,0,29.99,0,44.98,0h108.03c43.57,0,87.15,0,130.72,0,37.69,0,75.37,0,113.06,0h37.4c5.83,0,11.81.38,17.63,0,.26-.02.53,0,.79,0,5.79,0,5.8-9,0-9-14.99,0-29.99,0-44.98,0h-108.03c-43.57,0-87.15,0-130.72,0-37.69,0-75.37,0-113.06,0h-37.4c-5.83,0-11.81-.38-17.63,0-.26.02-.53,0-.79,0-5.79,0-5.8,9,0,9h0Z"/>
      <path class="cls-5" d="M427.99,366.02c24.68,0,49.36,0,74.04,0,39.17,0,78.34,0,117.51,0,9.06,0,18.12,0,27.18,0,5.79,0,5.8-9,0-9-24.68,0-49.36,0-74.04,0-39.17,0-78.34,0-117.51,0-9.06,0-18.12,0-27.18,0-5.79,0-5.8,9,0,9h0Z"/>
      <path class="cls-5" d="M182.74,425.32c32.32,0,64.65,0,96.97,0,51.43,0,102.86,0,154.3,0,11.69,0,23.38,0,35.07,0,5.79,0,5.8-9,0-9-32.32,0-64.65,0-96.97,0-51.43,0-102.86,0-154.3,0-11.69,0-23.38,0-35.07,0-5.79,0-5.8,9,0,9h0Z"/>
      <path class="cls-5" d="M182.44,467.59c6.24,0,12.49,0,18.73,0h50.65c25.09,0,50.18,0,75.27,0,30.46,0,60.92,0,91.39,0,33.53,0,67.06,0,100.6,0h101.55c31.41,0,62.82,0,94.24,0h80.04c19.1,0,38.2,0,57.3,0,9.09,0,18.23.27,27.32,0,.39-.01.78,0,1.17,0,5.79,0,5.8-9,0-9-6.24,0-12.49,0-18.73,0h-50.65c-25.09,0-50.18,0-75.27,0-30.46,0-60.92,0-91.39,0-33.53,0-67.06,0-100.6,0h-101.55c-31.41,0-62.82,0-94.24,0-26.68,0-53.36,0-80.04,0-19.1,0-38.2,0-57.3,0-9.09,0-18.23-.27-27.32,0-.39.01-.78,0-1.17,0-5.79,0-5.8,9,0,9h0Z"/>
    </g>
  </g>
  <g id="Clavier">
    <g>
      <rect class="cls-4" x="181.38" y="781.42" width="715.08" height="208.31" rx="12" ry="12" transform="translate(-123.43 88.1) rotate(-8.39)"/>
      <path class="cls-2" d="M893.57,929.53c-9.85,1.45-19.69,2.9-29.54,4.36-25.95,3.83-51.9,7.65-77.84,11.48-36.66,5.41-73.32,10.81-109.98,16.22-41.82,6.17-83.64,12.33-125.47,18.5-41.94,6.18-83.87,12.37-125.81,18.55l-109.15,16.1c-25.74,3.8-51.48,7.59-77.22,11.39-7.14,1.05-14.28,2.11-21.41,3.16-1.84.27-3.68.55-5.52.81-.45.06-.92.18-1.37.2-.1,0-.19.04-.29.04,1.66-.03.1.14-.68-.43-2.29-1.66-2.24-5.4-2.64-8.08-.82-5.53-1.63-11.07-2.45-16.6-2.73-18.54-5.47-37.07-8.2-55.61-5-33.91-10-67.81-15-101.72-.16-1.11-.44-2.25-.5-3.37-.05-.98-.27,1.13.06.35.89-2.12,1.29-2.79,3.73-3.24.69-.13,1.4-.21,2.09-.31,5.08-.75,10.16-1.5,15.24-2.25l67.62-9.97,103.23-15.22c41.18-6.07,82.35-12.14,123.53-18.22,42.44-6.26,84.88-12.52,127.32-18.78,38.32-5.65,76.63-11.3,114.95-16.95,28.72-4.24,57.44-8.47,86.16-12.71,13.97-2.06,27.93-4.26,41.92-6.18.43-.06.87-.17,1.31-.19.09,0,.17-.04.26-.04-2.22.04.41.14.92.61,2.06,1.86,2.03,5.56,2.43,8.25,2.06,13.98,4.12,27.96,6.19,41.94,5.73,38.88,11.47,77.76,17.2,116.65.74,5,1.47,10,2.21,15,.16,1.08.41,2.18.48,3.27.06.96-.22-.22-.13-.55-.6,2.37-1.03,3.01-3.64,3.55-11.34,2.35-6.54,19.71,4.79,17.36,12.48-2.59,17.93-14.13,16.23-25.86-.59-4.08-1.2-8.17-1.81-12.25-2.57-17.46-5.15-34.92-7.72-52.38-5.39-36.53-10.77-73.06-16.16-109.6-.37-2.53-.6-5.13-1.17-7.63-2.63-11.57-13.82-17.25-24.9-15.67-3.75.53-7.49,1.1-11.23,1.66-20.82,3.07-41.64,6.14-62.46,9.21-33.92,5-67.83,10-101.75,15-41.37,6.1-82.75,12.2-124.12,18.3-43.35,6.39-86.7,12.79-130.05,19.18-39.47,5.82-78.95,11.64-118.42,17.46-29.81,4.4-59.61,8.79-89.42,13.19-14.66,2.16-29.33,4.24-43.98,6.49-1.09.17-2.21.28-3.28.57-11.86,3.2-16.46,14.56-14.84,25.76,1.71,11.83,3.49,23.66,5.23,35.49,5.92,40.15,11.84,80.29,17.76,120.44,1.29,8.77,1.58,18.56,4.19,27.07,3.34,10.86,13.91,15.86,24.59,14.33,1.29-.18,2.57-.38,3.86-.57,16.8-2.48,33.59-4.95,50.39-7.43,31.26-4.61,62.52-9.22,93.78-13.83,40.08-5.91,80.17-11.82,120.25-17.73,43.43-6.4,86.86-12.81,130.29-19.21,40.79-6.02,81.58-12.03,122.37-18.05,32.77-4.83,65.54-9.67,98.32-14.5,18.85-2.78,37.7-5.56,56.55-8.34,2.5-.37,4.99-.74,7.49-1.1,4.81-.71,7.46-6.8,6.29-11.07-1.42-5.16-6.24-7-11.07-6.29Z"/>
    </g>
    <g id="Touches">
      <rect class="cls-1" x="236.71" y="858.63" width="43.51" height="27.56" rx="2" ry="2" transform="translate(-124.51 47.04) rotate(-8.39)"/>
      <rect class="cls-1" x="328.25" y="845.13" width="43.51" height="27.56" rx="2" ry="2" transform="translate(-121.56 60.25) rotate(-8.39)"/>
      <rect class="cls-1" x="421.63" y="831.36" width="43.51" height="27.56" rx="2" ry="2" transform="translate(-118.55 73.73) rotate(-8.39)"/>
      <rect class="cls-1" x="515.01" y="817.59" width="43.51" height="27.56" rx="2" ry="2" transform="translate(-115.54 87.2) rotate(-8.39)"/>
      <rect class="cls-1" x="606.94" y="804.03" width="43.51" height="27.56" rx="2" ry="2" transform="translate(-112.58 100.47) rotate(-8.39)"/>
      <rect class="cls-1" x="698.94" y="784.51" width="124.3" height="27.56" rx="2" ry="2" transform="translate(-108.32 119.58) rotate(-8.39)"/>
      <rect class="cls-1" x="244.66" y="912.57" width="43.51" height="27.56" rx="2" ry="2" transform="translate(-132.29 48.78) rotate(-8.39)"/>
      <rect class="cls-1" x="336.2" y="899.07" width="43.51" height="27.56" rx="2" ry="2" transform="translate(-129.35 61.99) rotate(-8.39)"/>
      <rect class="cls-1" x="429.58" y="885.3" width="43.51" height="27.56" rx="2" ry="2" transform="translate(-126.34 75.46) rotate(-8.39)"/>
      <rect class="cls-1" x="522.97" y="871.53" width="43.51" height="27.56" rx="2" ry="2" transform="translate(-123.33 88.94) rotate(-8.39)"/>
      <rect class="cls-1" x="707.32" y="844.34" width="43.51" height="27.56" rx="2" ry="2" transform="translate(-117.39 115.55) rotate(-8.39)"/>
      <rect class="cls-1" x="614.89" y="857.98" width="43.51" height="27.56" rx="2" ry="2" transform="translate(-120.37 102.21) rotate(-8.39)"/>
      <rect class="cls-1" x="791.21" y="832.27" width="43.51" height="81.85" rx="2" ry="2" transform="translate(-118.69 127.95) rotate(-8.39)"/>
      <rect class="cls-1" x="715.24" y="898.06" width="43.51" height="27.56" rx="2" ry="2" transform="translate(-125.14 117.28) rotate(-8.39)"/>
      <rect class="cls-1" x="622.81" y="911.69" width="43.51" height="27.56" rx="2" ry="2" transform="translate(-128.12 103.94) rotate(-8.39)"/>
      <rect class="cls-1" x="343.11" y="939.02" width="232.3" height="27.56" rx="2" ry="2" transform="translate(-134.09 77.2) rotate(-8.39)"/>
      <rect class="cls-1" x="252.58" y="966.29" width="43.51" height="27.56" rx="2" ry="2" transform="translate(-140.05 50.51) rotate(-8.39)"/>
    </g>
  </g>
</svg>