<?xml version="1.0" encoding="UTF-8"?>
<svg id="SEO" xmlns="http://www.w3.org/2000/svg" viewBox="0 0 1080 1080">
  <defs>
    <style>
      .cls-1 {
        fill: #ed6237;
      }

      .cls-2, .cls-3 {
        fill: #fff;
      }

      .cls-4 {
        fill: #333;
      }

      .cls-3 {
        stroke: #ed6237;
        stroke-miterlimit: 10;
        stroke-width: 6px;
      }
    </style>
  </defs>
  <g id="Page_internet" data-name="Page internet">
    <polyline class="cls-2" points="243.17 757.82 20.06 757.82 20.06 192.06 1059.94 192.06 1059.94 757.82 699.26 757.82"/>
    <path class="cls-4" d="M243.17,758.53H20.06V192.77l322.72-.5s58.74,193.86,171.32,320.73c112.58,126.87,543.85,163.35,543.85,163.35l1.99,82.18h-360.69"/>
    <circle class="cls-3" cx="999.65" cy="243.31" r="15.97"/>
    <circle class="cls-3" cx="953.53" cy="243.31" r="15.97"/>
    <circle class="cls-3" cx="907.15" cy="243.31" r="15.97"/>
    <path class="cls-1" d="M59.99,284.92c8.52.04,17.03.07,25.55.11l69.53.29c34.28.14,68.56.29,102.84.43l125.47.52,137.44.57c46.25.19,92.49.39,138.74.58,43.12.18,86.24.36,129.36.54,36.44.15,72.88.3,109.31.46,26.2.11,52.4.22,78.6.33,12.39.05,24.82.36,37.21.16.53,0,1.06,0,1.59,0,5.79.02,5.8-8.98,0-9-8.52-.04-17.03-.07-25.55-.11-23.18-.1-46.35-.19-69.53-.29-34.28-.14-68.56-.29-102.84-.43l-125.47-.52-137.44-.57c-46.25-.19-92.49-.39-138.74-.58-43.12-.18-86.24-.36-129.36-.54-36.44-.15-72.88-.3-109.31-.46-26.2-.11-52.4-.22-78.6-.33-12.39-.05-24.82-.36-37.21-.16-.53,0-1.06,0-1.59,0-5.79-.02-5.8,8.98,0,9h0Z"/>
    <path class="cls-1" d="M243.17,746.53H20.06l12,12V215.73c0-7.29.45-14.75,0-22.03-.02-.31,0-.62,0-.93l-12,12h997.8c13.43,0,26.94.43,40.37,0,.57-.02,1.15,0,1.73,0l-12-12v542.8c0,7.29-.45,14.75,0,22.03.02.31,0,.62,0,.93l12-12h-316.16c-14.6,0-29.32-.55-43.91,0-.2,0-.41,0-.61,0-15.44,0-15.47,24,0,24h316.16c14.6,0,29.32.55,43.91,0,.2,0,.41,0,.61,0,6.49,0,12-5.5,12-12v-496.2c0-22.84.69-45.8,0-68.64,0-.31,0-.62,0-.93,0-6.49-5.5-12-12-12H62.15c-13.45,0-26.92-.21-40.37,0-.58,0-1.15,0-1.73,0-6.49,0-12,5.5-12,12v496.2c0,22.84-.69,45.8,0,68.64,0,.31,0,.62,0,.93,0,6.49,5.5,12,12,12h223.12c15.44,0,15.47-24,0-24h0Z"/>
    <path class="cls-1" d="M98.84,253.81h164.71c13.51,0,13.53-21,0-21H98.84c-13.51,0-13.53,21,0,21h0Z"/>
    <path class="cls-1" d="M287.35,195.04c14.37,25.54,28.74,51.08,43.11,76.62,2.07,3.68,4.14,7.35,6.21,11.03,2.84,5.05,10.62.52,7.77-4.54-14.37-25.54-28.74-51.08-43.11-76.62-2.07-3.68-4.14-7.35-6.21-11.03-2.84-5.05-10.62-.52-7.77,4.54h0Z"/>
  </g>
  <g id="Loupe">
    <g>
      <circle class="cls-2" cx="557.77" cy="554.97" r="159.9"/>
      <path class="cls-1" d="M705.66,554.97c-.26,61.02-39.1,117.81-96.26,138.68-29.93,10.92-61.58,12.19-91.81,3.69-29.04-8.16-54.37-24.79-74.09-48.4-4.35-5.21-8.51-11.11-12.54-17.82-3.68-6.13-7.84-14.31-9.96-19.56-5.8-14.32-9.54-29.95-10.64-44.03-1.3-16.78-.13-32.02,3.67-47.53s9-28.1,17.27-41.74c31.88-52.55,95.49-80.64,155.5-68.36,30.2,6.18,56.67,20.78,77.83,42.83,20.95,21.83,34.51,49.23,39.43,79.9.35,2.15.31,1.75.59,4.28.21,1.83.38,3.66.52,5.5.32,4.18.47,8.37.49,12.56.07,15.44,24.07,15.47,24,0-.31-72.12-46.2-137.12-113.88-161.82-66.74-24.36-145-2.98-190.09,51.88-22.83,27.78-36.54,61.5-39.33,97.38-2.73,35.17,5.94,71.23,24.22,101.39,17.66,29.13,44.18,53.2,75.26,67.27,33.47,15.15,70.63,19.47,106.68,12.25,68.43-13.7,124.02-71.27,134.8-140.31,1.45-9.3,2.31-18.63,2.35-28.05.07-15.45-23.93-15.47-24,0Z"/>
    </g>
    <g>
      <rect class="cls-4" x="209.56" y="774.23" width="230.31" height="43.99" rx="12" ry="12" transform="translate(-465.39 456.89) rotate(-44.57)"/>
      <path class="cls-1" d="M422.25,714.05c-7.24-7.35-14.81-17.81-25.17-20.59-10-2.68-18.59,2.07-25.41,8.79-10.83,10.66-21.65,21.33-32.48,31.99-32.05,31.57-64.09,63.14-96.14,94.71-9.27,9.14-23.56,19.34-22.76,33.77.68,12.29,12.37,21.79,20.74,29.74,10.38,9.86,25.07,9.04,35.12-.68,26.42-25.53,52.35-51.58,78.52-77.36,15.7-15.46,31.39-30.93,47.09-46.39,5.05-4.98,10.11-9.96,15.16-14.93,2.78-2.74,5.78-5.36,8.01-8.59,6.75-9.73,4.85-21.88-2.69-30.48-4.27-4.88-12.6-4.37-16.97,0-4.84,4.84-4.29,12.08,0,16.97-1.02-1.16-.1,1.5-.02-.26.01-.23-1.04,1.38-.11.26-.12.14-.28.26-.4.4-.86.95-1.83,1.81-2.74,2.7l-12.13,11.95c-13.76,13.55-27.51,27.1-41.27,40.66-27.9,27.49-55.8,54.97-83.71,82.46-2.14,2.11-4.21,4.64-6.6,6.5-.04.03-.07.08-.11.11,1.22-.9.03.41-.6.09,1.98,1.02-.65-1.24.32-.36.55.5-.26-.4-.4-.55-3.64-3.47-7.08-7.18-10.6-10.76-.89-.9-1.99-1.77-2.75-2.79.77,1.03.24-.92.08-.03-.21,1.2,1.04-1.18.05.02.41-.51.96-.94,1.42-1.4l9.99-9.84c29.29-28.86,58.59-57.71,87.88-86.57,12.67-12.48,25.34-24.96,38.01-37.44,2.92-2.88,5.77-5.89,8.8-8.66.25-.23.47-.51.73-.72.05-.04.08-.09.13-.12-1.18.87.62.02.32-.01-.7-.08-1.1-.44-.22.14,1.39.91.06.08.05.06-.28-.3.51.59.54.62,1.62,1.7,3.29,3.34,4.94,5.01,2.8,2.85,5.61,5.69,8.41,8.54,10.86,11.02,27.82-5.95,16.97-16.97Z"/>
    </g>
    <path class="cls-1" d="M417.64,721c10.7-9.81,21.41-19.62,32.11-29.44,4.78-4.38,4.44-12.53,0-16.97-4.76-4.76-12.18-4.39-16.97,0-10.7,9.81-21.41,19.62-32.11,29.44-4.78,4.38-4.44,12.53,0,16.97,4.76,4.76,12.18,4.39,16.97,0h0Z"/>
  </g>
  <g id="Flèche">
    <path class="cls-1" d="M751.26,338.26c-17.86,22.25-35.72,44.5-53.58,66.76-28.34,35.31-56.68,70.62-85.02,105.93-6.52,8.12-13.04,16.24-19.55,24.36l14.54-1.88c-18.76-13.8-37.51-27.59-56.27-41.39-5.59-4.11-12.93-.46-16.42,4.31-21.52,29.39-43.04,58.79-64.56,88.18-3.07,4.19-6.13,8.37-9.2,12.56-3.83,5.23-.88,13.38,4.31,16.42,6.08,3.56,12.58.94,16.42-4.31,21.52-29.39,43.04-58.79,64.56-88.18,3.07-4.19,6.13-8.37,9.2-12.56-5.47,1.44-10.95,2.87-16.42,4.31,18.76,13.8,37.51,27.59,56.27,41.39,3.86,2.84,11.49,1.92,14.54-1.88,17.86-22.25,35.72-44.5,53.58-66.76,28.34-35.31,56.68-70.62,85.02-105.93,6.52-8.12,13.04-16.24,19.55-24.36,4.05-5.05,4.93-12.04,0-16.97-4.2-4.2-12.89-5.08-16.97,0h0Z"/>
    <path class="cls-1" d="M777.29,404.45c-1.43-19.23-2.86-38.45-4.29-57.68-.48-6.46-5.17-12-12-12-6.12,0-12.48,5.5-12,12,1.43,19.23,2.86,38.45,4.29,57.68.48,6.46,5.17,12,12,12,6.12,0,12.48-5.5,12-12h0Z"/>
    <path class="cls-1" d="M702.88,360.53c18.96-.59,37.91-1.18,56.87-1.77,15.41-.48,15.47-24.48,0-24-18.96.59-37.91,1.18-56.87,1.77-15.41.48-15.47,24.48,0,24h0Z"/>
  </g>
</svg>