<?xml version="1.0" encoding="UTF-8"?>
<svg id="SMA" xmlns="http://www.w3.org/2000/svg" viewBox="0 0 1080 1080">
  <defs>
    <style>
      .cls-1, .cls-2 {
        fill: #ed6237;
      }

      .cls-3 {
        fill: #fff;
      }

      .cls-4 {
        stroke-width: 6px;
      }

      .cls-4, .cls-5, .cls-6, .cls-7 {
        fill: #333;
      }

      .cls-4, .cls-6, .cls-2 {
        stroke: #ed6237;
        stroke-miterlimit: 10;
      }

      .cls-6, .cls-2 {
        stroke-width: 8px;
      }

      .cls-7 {
        font-family: Poppins-Bold, Poppins;
        font-size: 131.05px;
        font-weight: 700;
      }
    </style>
  </defs>
  <g id="Téléphone">
    <rect class="cls-3" x="118.17" y="21.1" width="650.93" height="1037.81" rx="50" ry="50"/>
  </g>
  <g id="Téléphone-2" data-name="Téléphone">
    <path class="cls-5" d="M704.43,1059.03H182.85c-35.57,0-64.68-29.11-64.68-64.68V85.9c0-35.72,28.96-64.68,64.68-64.68,0,0,90.3-.26,90.3-.26,0,0-1.98,359.37,116.68,538.35,118.66,178.98,379.28,262.01,379.28,262.01v173.03c0,35.57-29.11,64.68-64.68,64.68Z"/>
  </g>
  <g id="Téléphone-3" data-name="Téléphone">
    <path class="cls-1" d="M719.1,1047.03h-28.76c-24.73,0-49.45,0-74.18,0-34.25,0-68.51,0-102.76,0-37.69,0-75.38,0-113.07,0-35.63,0-71.26,0-106.89,0-27.47,0-54.93,0-82.4,0-13.71,0-27.43.02-41.14,0-22.76-.04-39.67-16.84-39.72-39.62-.02-9.11,0-18.22,0-27.33,0-18.93,0-37.87,0-56.8,0-26.72,0-53.44,0-80.16,0-32.33,0-64.67,0-97,0-36.05,0-72.11,0-108.16,0-37.94,0-75.89,0-113.83s0-75.32,0-112.98c0-35.21,0-70.42,0-105.63,0-30.93,0-61.86,0-92.79s0-49.5,0-74.24,0-32.69,0-49.04-.07-12.15,0-18.22c.23-20.97,17.04-37.77,38.01-38.01,2.67-.03,5.34,0,8,0,18.19,0,36.37,0,54.56,0,30.29,0,60.59,0,90.88,0,36.84,0,73.68,0,110.52,0s74.54,0,111.82,0c32.2,0,64.41,0,96.61,0,21.06,0,42.12,0,63.18,0,4.62,0,9.25,0,13.87,0,2.11,0,4.21.02,6.32.24.56.06,1.08.14,2.84.53,1.31.29,2.6.64,3.88,1.04,3.41,1.06,4.24,1.47,7.38,3.3,4.55,2.65,8.87,6.5,11.48,10.1,5.71,7.9,7.57,15.2,7.58,24.6,0,3.31,0,6.63,0,9.94,0,14.47,0,28.95,0,43.42v69.34c0,29.94,0,59.89,0,89.83,0,34.51,0,69.02,0,103.52,0,37.36,0,74.72,0,112.08,0,37.88,0,75.77,0,113.65s0,73.45,0,110.18c0,33.24,0,66.49,0,99.73s0,56.08,0,84.12v95.68c0,1.49.02,2.99,0,4.48-.24,20.93-17.11,37.72-38,38.01-15.43.21-15.47,24.21,0,24,29.06-.4,55.91-21.41,60.89-50.59.85-5.01,1.11-9.92,1.11-14.94v-178.32c0-33.44,0-66.88,0-100.32,0-37.01,0-74.03,0-111.04s0-76.76,0-115.14,0-75.34,0-113.01c0-34.89,0-69.77,0-104.66v-89.73c0-23.12,0-46.25,0-69.37,0-14.12,0-28.25,0-42.37,0-3.04,0-6.09,0-9.13-.05-15.27-5.08-29.28-14.71-41.1-11.75-14.41-29.97-22.01-48.33-22.08-4.36-.02-8.72,0-13.07,0-20.99,0-41.98,0-62.97,0-32.37,0-64.74,0-97.11,0-37.58,0-75.17,0-112.75,0-37.14,0-74.29,0-111.43,0-30.54,0-61.08,0-91.63,0-17.94,0-35.87,0-53.81,0-3.29,0-6.61-.1-9.9.08-30.37,1.64-55.07,24.92-58.74,55.03-.93,7.63-.47,15.53-.47,23.2,0,16.08,0,32.16,0,48.25,0,24.67,0,49.34,0,74.01,0,31.18,0,62.36,0,93.55,0,35.62,0,71.24,0,106.86,0,37.98,0,75.97,0,113.95s0,76.54,0,114.81c0,36.33,0,72.66,0,108.99,0,32.64,0,65.28,0,97.92,0,26.71,0,53.42,0,80.14s0,37.42,0,56.12c0,8.63-.03,17.26,0,25.89.12,35.09,28.24,62.92,63.25,63.02,13.31.04,26.62,0,39.93,0h82.81c35.89,0,71.78,0,107.68,0,38.18,0,76.36,0,114.54,0,34.33,0,68.66,0,102.99,0,24.8,0,49.6,0,74.39,0h27.34c15.44,0,15.47-24,0-24Z"/>
  </g>
  <circle class="cls-4" cx="173.27" cy="79.03" r="12.62"/>
  <circle class="cls-4" cx="218.85" cy="79.03" r="12.62"/>
  <g id="Encadré">
    <g>
      <rect class="cls-3" x="257.79" y="233.26" width="704.04" height="616.92" rx="50" ry="50"/>
      <path class="cls-1" d="M911.83,838.18h-58.78c-47.21,0-94.43,0-141.64,0-57.15,0-114.3,0-171.46,0-50.48,0-100.95,0-151.43,0-26.13,0-52.26,0-78.39,0-5.35,0-8.84-.23-13.9-1.8-15.54-4.83-26.24-19.82-26.44-36.2-.08-6.14,0-12.29,0-18.43,0-39.82,0-79.63,0-119.45,0-56.75,0-113.51,0-170.26s0-99.51,0-149.27c0-15.2,0-30.4,0-45.6,0-9.62-.58-18.51,2.22-26.73,5.05-14.84,19.92-24.99,35.79-25.18,1.43-.02,2.87,0,4.3,0h30.84c41.87,0,83.74,0,125.61,0,56.56,0,113.13,0,169.69,0,53.74,0,107.47,0,161.21,0,33.45,0,66.91,0,100.36,0,9.62,0,17.64-.54,26.08,2.66,14,5.31,23.74,19.92,23.93,35.35.02,1.74,0,3.48,0,5.22,0,32.22,0,64.44,0,96.66v163.56c0,53.84,0,107.68,0,161.52,0,29.18,0,58.36,0,87.53,0,5.82-.28,9.55-2.22,15.23-5.03,14.77-19.96,24.96-35.78,25.18-15.43.21-15.47,24.21,0,24,34.85-.48,61.91-28.91,62-63.45.02-9.25,0-18.5,0-27.74v-132.49c0-57.89,0-115.77,0-173.66,0-47.07,0-94.15,0-141.22,0-11.85,0-23.7,0-35.55,0-1.6.02-3.2,0-4.8-.27-22.11-12.14-43.01-31.52-53.95-12.74-7.19-26.14-8.05-40.16-8.05-12.59,0-25.19,0-37.78,0-45.67,0-91.34,0-137.02,0-58.06,0-116.12,0-174.18,0-52.12,0-104.25,0-156.37,0-28.38,0-56.77,0-85.15,0-2.21,0-4.43-.05-6.63.08-21.86,1.24-42.55,13.94-52.4,33.76-6.44,12.97-6.82,25.98-6.82,39.86,0,37.21,0,74.43,0,111.64,0,56.83,0,113.66,0,170.49,0,51.91,0,103.82,0,155.73,0,23.08-.91,46.37.05,69.45,1.41,33.94,29.72,59.82,63.3,59.91,8.22.02,16.44,0,24.66,0,40.06,0,80.13,0,120.19,0,56.6,0,113.2,0,169.8,0s110.36,0,165.54,0c35.8,0,71.61,0,107.41,0h15.09c15.44,0,15.47-24,0-24Z"/>
    </g>
    <g id="Calque_27" data-name="Calque 27">
      <path class="cls-2" d="M613.42,784.14s70.99-50.92,44.36-79.67c-26.63-28.75-44.18,9.72-44.18,9.72,0,0-18.08-40.13-44.3-9.95-26.23,30.18,44.13,79.9,44.13,79.9Z"/>
    </g>
    <path class="cls-6" d="M877.66,737.62c0,22.01-24.22,39.85-54.1,39.85-9.17,0-17.8-1.68-25.36-4.64,0,0-35.46,6.53-38.12,6.53s17.31-20.95,17.31-20.95c-5.03-6.05-7.94-13.17-7.94-20.79,0-22.01,24.22-39.85,54.1-39.85s54.1,17.84,54.1,39.85Z"/>
    <path class="cls-6" d="M468.6,758.56c-1.41-51.55-50.41-31.1-53.94-34.63s.24-23.49-2.35-25.61-63.1,31.01-61.69,40.89,65.22,42.54,66.86,39.48-1.88-20.8-.47-25.03c1.41-4.23,14.18-3.02,26.52,2.7,12.34,5.72,21.95,15.32,23.27,14.88s1.8-6.67,1.8-12.69Z"/>
  </g>
  <g id="Personne">
    <g>
      <rect class="cls-5" x="350.6" y="311.02" width="527.06" height="323.15" rx="25" ry="25"/>
      <path class="cls-1" d="M852.66,625.17h-224.55c-37.26,0-74.53,0-111.79,0-30.41,0-60.83,0-91.24,0-15.78,0-31.57,0-47.35,0-9.63,0-17.86-5.75-18.13-16.12-.15-5.65,0-11.33,0-16.99,0-30.55,0-61.11,0-91.66s0-72.75,0-109.12c0-18.37-.48-36.82,0-55.19.28-10.54,8.7-16.08,18.36-16.08,5.69,0,11.37,0,17.06,0,24.22,0,48.44,0,72.66,0,34.89,0,69.78,0,104.66,0,37.91,0,75.82,0,113.73,0,32.77,0,65.54,0,98.31,0,19.99,0,39.98,0,59.97,0,3.21,0,6.6-.29,9.81.02,8.38.82,14.3,7.97,14.49,16.15.04,1.77,0,3.54,0,5.3v76.53c0,37.3,0,74.6,0,111.9v74.65c0,1.5.04,3.01,0,4.51-.24,8.91-7.06,15.83-16,16.08-11.56.31-11.61,18.32,0,18,20.27-.55,34-16.72,34-36.38v-264.66c0-1.94.04-3.89,0-5.84-.21-11.38-5.45-21.56-14.72-28.2-12.29-8.81-31.68-6.07-46.06-6.07-26.89,0-53.78,0-80.66,0-36.71,0-73.42,0-110.13,0s-76.41,0-114.61,0c-31.37,0-62.74,0-94.11,0h-48.64c-15.89,0-30.52,9.09-34.91,24.98-1.87,6.74-1.22,14.37-1.22,21.31,0,29.72,0,59.44,0,89.16,0,37.42,0,74.85,0,112.27,0,19.72-.42,39.5,0,59.22s15.54,34.03,34.7,34.2c4.57.04,9.14,0,13.72,0,23.23,0,46.47,0,69.7,0,35.08,0,70.17,0,105.25,0h287.69c11.58,0,11.6-18,0-18Z"/>
    </g>
    <g>
      <path class="cls-1" d="M613.59,462.45c-80.74,0-85.92,165.25-85.92,165.25l172.91-.22s-6.25-165.04-86.99-165.04Z"/>
      <path class="cls-1" d="M613.59,450.45c-36.54.27-60.62,29.2-73.94,60.35-12.94,30.28-19.07,63.01-22.4,95.64-.72,7.07-1.36,14.17-1.58,21.27-.21,6.48,5.67,12.01,12,12,19.49-.02,38.99-.05,58.48-.07,30.93-.04,61.87-.08,92.8-.12,7.21,0,14.42-.02,21.63-.03,6.3,0,12.25-5.49,12-12-.77-20.11-3.66-40.37-7.56-60.08-6.53-33.03-17.15-68.93-40.72-94.04-13.3-14.17-31.17-22.77-50.72-22.92-15.45-.11-15.46,23.89,0,24,1.87.01,3.72.13,5.58.27,2.48.19-.56-.14.12,0,.94.19,1.89.33,2.83.53,1.71.37,3.4.83,5.07,1.37.76.25,1.5.54,2.26.79,2.6.84-1.64-.91.79.32,3.09,1.57,6.04,3.2,8.9,5.16.36.25,2.44,1.81,1.03.72s.86.72,1.28,1.08c1.34,1.14,2.63,2.34,3.88,3.58s2.5,2.56,3.68,3.91c.55.63,1.1,1.26,1.63,1.91.68.82,2.32,3.01.75.89,2.24,3.03,4.36,6.12,6.32,9.34s3.87,6.73,5.6,10.21c.88,1.77,1.73,3.57,2.54,5.37.38.84.74,1.69,1.12,2.53.56,1.25-.27-.66-.3-.74.3.71.59,1.43.88,2.15,6.06,15,10.35,30.69,13.63,46.52,1.48,7.12,2.74,14.29,3.83,21.48.25,1.64.48,3.28.71,4.93.35,2.45-.12-1.01-.03-.27.11.94.25,1.89.36,2.83.35,2.82.68,5.65.98,8.48.69,6.55,1.3,13.12,1.56,19.7l12-12c-19.49.02-38.99.05-58.48.07-30.93.04-61.87.08-92.8.12-7.21,0-14.42.02-21.63.03l12,12c.17-5.23.58-10.46,1.05-15.66.51-5.75,1.15-11.48,1.88-17.2.21-1.67.22-1.52-.03.21.13-.89.25-1.78.37-2.68.24-1.71.5-3.42.76-5.12.58-3.74,1.21-7.47,1.9-11.18,2.92-15.77,6.77-31.43,12.26-46.51.64-1.75,1.29-3.49,1.98-5.22.4-1.01.81-2,1.22-3.01.52-1.27-.28.66-.31.74.25-.56.48-1.13.73-1.69,1.61-3.59,3.3-7.14,5.16-10.61s3.9-6.91,6.1-10.21c.96-1.43,1.96-2.82,2.97-4.21,1.76-2.43-.93,1.02.46-.58.64-.74,1.24-1.51,1.88-2.24,2.69-3.11,5.62-5.89,8.71-8.59,2.04-1.78-1.23.76.4-.34.77-.52,1.5-1.08,2.27-1.6,1.64-1.1,3.34-2.12,5.08-3.04.81-.43,1.66-.81,2.47-1.23,2.51-1.29-1.85.54.78-.32,1.91-.63,3.78-1.3,5.73-1.79.92-.23,1.85-.43,2.78-.61,1.35-.26,2.91-.39.49-.15,2.28-.23,4.54-.39,6.83-.41,15.44-.11,15.47-24.11,0-24Z"/>
    </g>
    <g>
      <circle class="cls-1" cx="613.59" cy="404.65" r="57.81"/>
      <path class="cls-1" d="M659.4,404.65c-.23,19.05-12.33,36.98-30.22,43.12-18.88,6.48-38.66.99-51.5-14.58-5.09-6.17-9.16-16.18-9.74-24.35-.75-10.4,1.29-19.23,6.33-27.68,9.52-15.98,29.2-25.19,47.12-21.7,22.38,4.37,37.75,22.99,38.01,45.19.18,15.43,24.18,15.47,24,0-.35-29.64-18.84-55.56-46.58-65.81-26.67-9.85-58.45-1-76.52,20.81-18.72,22.6-21.91,55.18-6.76,80.61,15.24,25.57,45.2,38.34,74.23,32.73,32.29-6.24,55.25-35.96,55.63-68.33.18-15.45-23.82-15.46-24,0Z"/>
    </g>
  </g>
  <g id="ADS">
    <g>
      <rect class="cls-3" x="208.92" y="210.63" width="366.17" height="132.42" rx="40" ry="40" transform="translate(-49.83 89.52) rotate(-12.25)"/>
      <path class="cls-1" d="M543.49,302.49c-16.44,3.57-32.87,7.14-49.31,10.71-35.04,7.61-70.08,15.22-105.13,22.83-32.25,7.01-64.5,14.01-96.75,21.02-8.39,1.82-16.78,3.65-25.18,5.47-13.08,2.84-26.58-.3-34.71-11.8-4.1-5.8-5.24-12.51-6.71-19.26-1.87-8.61-3.74-17.21-5.61-25.82-1.28-5.91-2.61-11.81-3.85-17.72-2.19-10.49,1.39-21.39,9.06-28.79,6.56-6.33,14.77-7.84,23.21-9.67,10.34-2.25,20.69-4.49,31.03-6.74,33.92-7.37,67.84-14.74,101.76-22.1s67.47-14.66,101.2-21.98c10.11-2.2,20.22-4.39,30.33-6.59,8.75-1.9,17.05-3.49,25.8.4,9.63,4.28,15.82,12.69,18.13,22.81,1.47,6.43,2.8,12.89,4.2,19.34l5.5,25.31c1.5,6.89,2.75,13.4.77,20.45-3.21,11.43-12.35,19.47-23.75,22.16s-6.5,20.02,4.79,17.36c27.28-6.43,42.28-33.42,36.56-60.12-3.36-15.69-6.81-31.37-10.22-47.05-5.36-24.66-27.3-43.47-53.34-40.5-6.43.73-12.79,2.41-19.11,3.79-29.66,6.44-59.32,12.89-88.98,19.33-37.64,8.17-75.27,16.35-112.91,24.52-21.2,4.61-42.43,9.11-63.61,13.82-22.37,4.97-39.09,24.95-39.05,48.09.01,7.16,2,14.3,3.51,21.26,2.01,9.24,4.02,18.49,6.02,27.73,1.32,6.09,2.26,12.54,4.41,18.42,5.19,14.2,16.35,25.06,30.58,30.09,11.42,4.03,22.62,2.21,33.97-.26,27.08-5.88,54.15-11.76,81.23-17.64,37.82-8.22,75.65-16.43,113.47-24.65,24.61-5.34,49.21-10.69,73.82-16.03,1.21-.26,2.43-.53,3.64-.79,11.31-2.46,6.53-19.81-4.79-17.36Z"/>
    </g>
    <text class="cls-7" transform="translate(265.64 351.55) rotate(-12.25)"><tspan x="0" y="0">ADS</tspan></text>
  </g>
</svg>