<?xml version="1.0" encoding="UTF-8"?>
<svg id="Stratégie_de_com" data-name="Stratégie de com" xmlns="http://www.w3.org/2000/svg" viewBox="0 0 1080 1080">
  <defs>
    <style>
      .cls-1 {
        stroke: #ed6237;
        stroke-miterlimit: 10;
        stroke-width: 6px;
      }

      .cls-1, .cls-2 {
        fill: #ed6237;
      }

      .cls-3 {
        fill: #fff;
      }

      .cls-4 {
        font-family: Poppins-Bold, Poppins;
        font-size: 39.44px;
        font-weight: 700;
      }

      .cls-4, .cls-5 {
        fill: #333;
      }

      .cls-6 {
        fill: #d8d8d8;
      }
    </style>
  </defs>
  <g id="Ampoule">
    <g>
      <rect class="cls-5" x="407.12" y="891.55" width="320.76" height="48.87" rx="21.06" ry="21.06"/>
      <path class="cls-2" d="M428.18,952.42c40.78,0,81.57,0,122.35,0,50.35,0,100.7,0,151.04,0,9.93,0,19.25-1.5,27.16-8.39,17.04-14.86,14.65-46.8-3.99-59.13-7.36-4.87-15.41-5.35-23.79-5.35h-23.39c-58.26,0-116.52,0-174.78,0-21.75,0-43.49,0-65.24,0-4.02,0-8.11-.21-12.12.18-13.66,1.32-25.64,10.89-29.2,24.33-2.23,8.42-1.86,19.83,1.44,27.8,5.2,12.53,17.06,20.13,30.5,20.57,15.45.5,15.43-23.5,0-24-5.95-.19-9.06-4.5-9.06-11.09,0-3.61-.25-5.72.65-8.16.76-2.06,3.68-4.7,6.24-5.35,1.11-.28,2.06-.26,4.03-.27,2.07,0,4.14,0,6.2,0,19.83,0,39.66,0,59.49,0,56.47,0,112.94,0,169.41,0,13.7,0,27.41.1,41.11,0,.19,0,.38,0,.57,0,2.82.1,5.78,1.44,7.36,3.77,1.9,2.8,1.7,3.67,1.7,7.32,0,1.38-.01,2.75,0,4.13,0,.63.02,1.4-.05,1.97.24-2.12-1.18,3.52-.38,1.64-.9,2.14-.98,2.25-2.71,3.82-.9.82-2.36,1.5-3.11,1.76-1.82.65-1.43.48-3.12.46-1.36-.01-2.71,0-4.07,0-46.31,0-92.63,0-138.94,0-44.36,0-88.72,0-133.08,0-.74,0-1.49,0-2.23,0-15.44,0-15.47,24,0,24Z"/>
    </g>
    <g>
      <rect class="cls-5" x="407.12" y="944.92" width="320.76" height="48.87" rx="21.06" ry="21.06"/>
      <path class="cls-2" d="M428.18,1005.79c40.78,0,81.57,0,122.35,0,50.35,0,100.7,0,151.04,0,9.93,0,19.25-1.5,27.16-8.39,17.04-14.86,14.65-46.8-3.99-59.13-7.36-4.87-15.41-5.35-23.79-5.35-7.8,0-15.59,0-23.39,0-58.26,0-116.52,0-174.78,0-21.75,0-43.49,0-65.24,0-4.02,0-8.11-.21-12.12.18-13.66,1.32-25.64,10.89-29.2,24.33-2.23,8.42-1.86,19.83,1.44,27.8,5.2,12.53,17.06,20.13,30.5,20.57,15.45.5,15.43-23.5,0-24-5.95-.19-9.06-4.5-9.06-11.09,0-3.61-.25-5.72.65-8.16.76-2.06,3.68-4.7,6.24-5.35,1.11-.28,2.06-.26,4.03-.27,2.07,0,4.14,0,6.2,0,19.83,0,39.66,0,59.49,0,56.47,0,112.94,0,169.41,0,13.7,0,27.41.1,41.11,0,.19,0,.38,0,.57,0,2.82.1,5.78,1.44,7.36,3.77,1.9,2.8,1.7,3.67,1.7,7.32,0,1.38-.01,2.75,0,4.13,0,.63.02,1.4-.05,1.97.24-2.12-1.18,3.52-.38,1.64-.9,2.14-.98,2.25-2.71,3.82-.9.82-2.36,1.5-3.11,1.76-1.82.65-1.43.48-3.12.46-1.36-.01-2.71,0-4.07,0-46.31,0-92.63,0-138.94,0-44.36,0-88.72,0-133.08,0-.74,0-1.49,0-2.23,0-15.44,0-15.47,24,0,24Z"/>
    </g>
    <g>
      <rect class="cls-5" x="440.61" y="998.29" width="253.77" height="48.87" rx="21.06" ry="21.06"/>
      <path class="cls-2" d="M461.68,1059.16c33.28,0,66.55,0,99.83,0,36.94,0,73.9.33,110.85,0,14.83-.13,28.54-9.25,32.7-23.87,4.72-16.58-.46-37.12-16.62-45.29-11.4-5.77-26.95-3.71-39.36-3.71-46.36,0-92.72,0-139.07,0h-45.44c-9.95,0-19.65,2.67-26.71,10.17-11.15,11.85-13,34.6-3.53,48.11,6.4,9.13,16.25,14.23,27.35,14.59,15.45.5,15.43-23.5,0-24-2.12-.07-4.26-.71-5.93-2.22-1.48-1.35-1.45-1.41-2.11-2.67-1.23-2.36-.55-1.18-.38-.73,0-.01-.8-3.79-.6-2.07-.26-2.24-.06-4.64-.05-6.89.02-2.64.05-3.54,1.03-5.41,1.68-3.22,4.92-4.92,8.19-4.89,1,.01,2,0,3.01,0,13.93,0,27.87,0,41.8,0,44.41,0,88.82,0,133.23,0,10.98,0,21.96.09,32.94,0,2.88-.02,4.5.47,6.43,2.22,1.7,1.55,1.71,1.48,2.41,3.25.79,2-.46-1.28.27.78.13.36.6,3.04.41,1.43.27,2.24.06,4.64.05,6.89-.06,6.56-3.68,10.24-10.26,10.3-34.2.27-68.42,0-102.63,0-35.28,0-70.58-.43-105.86,0-.65,0-1.31,0-1.96,0-15.44,0-15.47,24,0,24Z"/>
    </g>
    <path class="cls-3" d="M427.39,889.84l279.92-.15s8.05-84.12,40.38-124.21c32.33-40.09,87.19-83.06,87.19-214.76s-33.35-292.31-266.16-292.31-268.61,164.08-268.61,293.91,54.31,162.21,87.35,213.61c33.04,51.39,39.92,123.9,39.92,123.9Z"/>
    <path class="cls-5" d="M427.39,888.82l279.92-.15s8.05-84.12,40.38-124.21c9.68-12.01-158.18-73.22-223.55-198.48-65.37-125.27-2.75-306.53-2.75-306.53-174.38,10.51-221.27,162.03-221.27,291.87s54.31,162.21,87.35,213.61c33.04,51.39,39.92,123.9,39.92,123.9Z"/>
    <path class="cls-2" d="M627.86,335.67c2.28.43,4.52,1.07,6.74,1.73,2.49.74,4.96,1.56,7.41,2.45,1.46.53,2.92,1.08,4.36,1.66.84.33,1.67.68,2.51,1.02-2.42-.98-.88-.37.44.21,8.51,3.78,16.7,8.29,24.48,13.4,2.13,1.4,4.24,2.86,6.31,4.35,1,.72,2,1.46,2.98,2.2,1.84,1.38.52.4.14.1.72.57,1.44,1.14,2.15,1.72,4.82,3.91,9.44,8.07,13.83,12.46,21.67,21.69,35.99,48.92,46.39,78.54,10.42,29.69,16.92,59.57,18.37,89.91.48,10.01.44,20.06-.36,30.05-.13,1.62-.28,3.25-.46,4.87-.07.65-.16,1.3-.23,1.96-.27,2.51.33-2.07.17-1.24-.17.94-.27,1.89-.45,2.82-1.22,6.36,1.79,12.95,8.38,14.76,5.87,1.61,13.53-1.99,14.76-8.38,2.33-12.08,2.67-24.75,2.44-37-.57-30.88-6.1-61.82-15.24-91.28-10.58-34.12-25.33-66.8-49.12-93.78-15.63-17.73-34.9-32.69-56.08-43.21-10.49-5.21-21.95-10.27-33.56-12.48-6.36-1.21-12.95,1.78-14.76,8.38-1.61,5.86,1.98,13.54,8.38,14.76h0Z"/>
    <circle class="cls-2" cx="586.43" cy="321.37" r="14.02"/>
    <path class="cls-2" d="M427.39,900.49c31.57-.02,63.14-.03,94.71-.05,50.27-.03,100.53-.05,150.8-.08,11.47,0,22.94-.01,34.41-.02,6.95,0,11.38-5.53,12-12,.15-1.53.33-3.05.52-4.58.1-.86.22-1.72.33-2.58.21-1.77-.44,3.13-.01.11.36-2.5.72-5,1.11-7.5,2.12-13.42,4.84-26.77,8.32-39.91,4.06-15.36,8.92-30,15.46-43.01,1.74-3.46,3.61-6.87,5.64-10.17.83-1.35,1.69-2.69,2.58-4,.55-.81,1.12-1.6,1.67-2.4.34-.47.68-.94,1.03-1.41-.6.75-.64.81-.13.16,2.86-3.63,5.89-7.13,8.9-10.63,14.68-17,29.57-33.83,41.67-52.84,15.87-24.93,26.75-52.94,32.86-81.82,7.22-34.1,8.45-69.08,7.18-103.81-.91-24.97-3.32-49.95-7.95-74.51-9.25-49.03-28.98-96.99-64.23-133.12-43.45-44.54-104.32-64.01-165-69.51-67.92-6.16-142.42.7-202.31,35.83-45.59,26.73-77.63,69.15-95.98,118.23-17.06,45.63-22.36,95.27-22.81,143.71-.34,36.23,2.8,73.21,14.48,107.72,8.54,25.25,21.52,48.23,37.52,69.46,7.2,9.56,14.77,18.83,22.15,28.25.38.49,2.71,3.49,1.72,2.21s1.31,1.72,1.68,2.22c1.73,2.29,3.44,4.6,5.11,6.94,3.95,5.53,7.68,11.22,11.06,17.12,16.46,28.76,25.65,61.69,31.27,94.34.43,2.48.83,4.97,1.2,7.46.17,1.14.33,2.29.5,3.43.3,2.03-.38-3.13-.04-.32.21,1.69.43,3.38.59,5.08.62,6.45,5.07,12,12,12,6.01,0,12.62-5.51,12-12-5.09-52.99-22.5-106.51-55.06-148.91-7.06-9.19-14.39-18.16-21.48-27.31,1.92,2.49-1.06-1.39-1.43-1.89-.74-.97-1.47-1.95-2.2-2.93-1.85-2.49-3.66-4.99-5.44-7.53-3.41-4.86-6.67-9.83-9.74-14.92-3.25-5.4-6.28-10.93-9.05-16.59-1.42-2.91-2.78-5.85-4.07-8.82-.94-2.15-.28-.65-.09-.2-.29-.69-.57-1.38-.85-2.08-.78-1.94-1.53-3.9-2.26-5.86-5.58-15.14-9.42-30.88-11.93-46.81-4.58-29.08-4.42-60.7-2.6-90.81.36-6,.82-12,1.39-17.99.27-2.85.57-5.71.89-8.56.14-1.27.29-2.54.45-3.81.11-.93.71-5.51.31-2.52,1.62-11.92,3.73-23.78,6.45-35.5,2.72-11.71,6.04-23.29,10.1-34.61.92-2.56,1.87-5.11,2.86-7.64.53-1.34,1.07-2.67,1.61-4.01.24-.59.49-1.18.74-1.77-1.1,2.62.04-.08.3-.66,2.47-5.55,5.06-11.04,7.91-16.4,5.57-10.51,11.97-20.52,19.13-30.01-1.65,2.19.98-1.24,1.42-1.78.92-1.14,1.85-2.27,2.79-3.39,2.1-2.5,4.27-4.95,6.49-7.34,4.06-4.37,8.32-8.56,12.76-12.54,2.26-2.03,4.57-4,6.92-5.92.46-.38,4.37-3.46,2.39-1.94,1.37-1.05,2.75-2.08,4.14-3.09,5.28-3.83,10.74-7.41,16.36-10.72s11.89-6.63,18.04-9.52c1.54-.73,3.09-1.43,4.65-2.12.87-.39,1.75-.77,2.63-1.15-.48.2-1.89.78.33-.13,3.64-1.49,7.31-2.9,11.01-4.22,32-11.41,64.05-16.04,97.47-17.17,36.54-1.24,71.9,1.08,106.84,10.06,27.85,7.15,51.23,16.99,75.02,34.15,1.11.8,2.21,1.63,3.31,2.45,2.65,1.96-1.17-.94.41.31.67.52,1.33,1.05,1.99,1.58,2.36,1.9,4.67,3.85,6.93,5.85,4.69,4.16,9.17,8.54,13.43,13.13,1.99,2.14,3.93,4.33,5.82,6.57.83.99,1.66,1.98,2.48,2.99.51.63,1.01,1.26,1.51,1.89.3.38.6.76.9,1.14-.79-1.03-.93-1.2-.4-.52,3.57,4.72,6.96,9.58,10.12,14.59,6.31,9.99,11.58,20.49,16.42,31.26,1.27,2.84-.65-1.58.1.21.31.74.61,1.47.91,2.21.48,1.18.95,2.37,1.41,3.56,1.16,2.98,2.26,5.98,3.31,8.99,1.95,5.6,3.72,11.26,5.32,16.96,3.27,11.62,5.86,23.43,7.9,35.33.49,2.86.95,5.73,1.38,8.6.19,1.28.37,2.55.56,3.83.09.64.18,1.28.26,1.92-.41-2.99,0-.03.07.65.75,6.07,1.41,12.15,1.95,18.25,2.43,27.74,3.13,55.93,1.21,83.71-1.25,18.09-3.72,35.15-8.22,52.92-1.9,7.5-4.12,14.93-6.7,22.23-1.17,3.31-2.41,6.59-3.73,9.84-.29.7-.57,1.41-.87,2.11.83-1.98-.12.27-.34.75-.82,1.84-1.64,3.69-2.5,5.51-5.3,11.26-11.56,22.05-18.6,32.3-1.57,2.29-3.18,4.54-4.82,6.78-.71.97-1.43,1.94-2.16,2.9-.45.59-.9,1.19-1.35,1.78-.58.77,1.37-1.73-.29.37-3.27,4.12-6.6,8.2-10,12.21-6.25,7.36-12.7,14.53-18.92,21.91-9.33,11.09-16.97,22.86-22.82,36.15-11.73,26.63-18.64,55.17-22.95,83.89-.88,5.89-1.73,11.79-2.3,17.72l12-12c-31.57.02-63.14.03-94.71.05-50.27.03-100.53.05-150.8.08-11.47,0-22.94.01-34.41.02-15.44,0-15.47,24.01,0,24Z"/>
    <g id="Calque_9" data-name="Calque 9">
      <path class="cls-3" d="M146.44,497.21h82.6c15.44,0,15.47-24,0-24h-82.6c-15.44,0-15.47,24,0,24h0Z"/>
      <path class="cls-3" d="M169.54,344.33c25.34,10.77,50.68,21.54,76.02,32.31,5.96,2.53,12.86,1.78,16.42-4.31,2.95-5.04,1.69-13.87-4.31-16.42-25.34-10.77-50.68-21.54-76.02-32.31-5.96-2.53-12.86-1.78-16.42,4.31-2.95,5.04-1.69,13.87,4.31,16.42h0Z"/>
      <path class="cls-3" d="M261.19,211.27c19.47,19.47,38.94,38.94,58.41,58.41,10.94,10.94,27.91-6.03,16.97-16.97-19.47-19.47-38.94-38.94-58.41-58.41-10.94-10.94-27.91,6.03-16.97,16.97h0Z"/>
      <path class="cls-3" d="M414.77,119.64c7.31,26.54,14.62,53.09,21.93,79.63,4.1,14.87,27.26,8.56,23.14-6.38-7.31-26.54-14.62-53.09-21.93-79.63-4.1-14.87-27.26-8.56-23.14,6.38h0Z"/>
      <path class="cls-3" d="M570.6,106.22c-2.83,27.39-5.66,54.77-8.5,82.16-.67,6.46,5.99,12,12,12,7.04,0,11.33-5.53,12-12,2.83-27.39,5.66-54.77,8.5-82.16.67-6.46-5.99-12-12-12-7.04,0-11.33,5.53-12,12h0Z"/>
      <path class="cls-3" d="M761.96,134.29c-10.77,25.34-21.54,50.68-32.31,76.02-2.53,5.96-1.78,12.86,4.31,16.42,5.04,2.95,13.87,1.69,16.42-4.31,10.77-25.34,21.54-50.68,32.31-76.02,2.53-5.96,1.78-12.86-4.31-16.42-5.04-2.95-13.87-1.69-16.42,4.31h0Z"/>
      <path class="cls-3" d="M887.11,230.77c-21.17,17.61-42.33,35.21-63.5,52.82-4.99,4.15-4.29,12.68,0,16.97,4.93,4.93,11.97,4.16,16.97,0,21.17-17.61,42.33-35.21,63.5-52.82,4.99-4.15,4.29-12.68,0-16.97-4.93-4.93-11.97-4.16-16.97,0h0Z"/>
      <path class="cls-3" d="M978.49,342.03c-26.41,7.79-52.81,15.59-79.22,23.38-14.78,4.36-8.49,27.53,6.38,23.14,26.41-7.79,52.81-15.59,79.22-23.38,14.78-4.36,8.49-27.53-6.38-23.14h0Z"/>
      <path class="cls-3" d="M909.72,497.21h82.6c15.44,0,15.47-24,0-24h-82.6c-15.44,0-15.47,24,0,24h0Z"/>
    </g>
  </g>
  <g id="Réseaux">
    <g id="Facebook">
      <g>
        <rect class="cls-3" x="203.14" y="74.13" width="173.7" height="173.7" rx="50" ry="50" transform="translate(-41.11 180.57) rotate(-32.42)"/>
        <path class="cls-2" d="M363.12,206.77c-12.73,8.09-25.46,16.17-38.2,24.26l-20.92,13.28c-6.98,4.43-14.17,7.98-22.62,8.42-13.18.69-26.05-4.67-34.5-14.9-3.42-4.14-6.08-9.09-8.95-13.6-10.05-15.83-20.11-31.66-30.16-47.49-4.05-6.37-7.75-12.6-9.08-20.22-2.15-12.41,1.86-25.79,10.52-34.93,4.4-4.64,9.78-7.75,15.11-11.14l24.06-15.28c7.93-5.03,15.85-10.07,23.78-15.1,5.48-3.48,10.83-7.25,17.12-9.13,12.5-3.75,26.3-1.38,36.79,6.44,5.71,4.26,9.36,9.93,13.09,15.8,10.08,15.88,20.17,31.75,30.25,47.63,3.13,4.92,6.85,9.93,9.16,15.31,5.03,11.68,4.13,25.5-2.14,36.51-3.27,5.74-7.79,10.52-13.32,14.13-9.65,6.32-.64,21.91,9.08,15.54,27.06-17.72,35.69-53.87,18.48-81.56-9.32-14.99-18.94-29.81-28.4-44.71-3.6-5.67-7.16-11.39-10.81-17.03-7.94-12.24-19.63-21.39-33.7-25.49-15.75-4.59-33.18-2.27-47.18,6.27-4.89,2.98-9.69,6.14-14.53,9.22-15.75,10-31.52,19.95-47.24,30-25.43,16.27-35.78,48.2-22.95,75.93,2.74,5.93,6.68,11.4,10.18,16.9l17.37,27.35c10.38,16.35,19.68,35.43,37.58,44.73,14.33,7.44,31.74,9.15,47.04,3.64,7.3-2.63,13.53-6.72,20.01-10.83,16.75-10.64,33.49-21.27,50.24-31.91l3.93-2.5c9.75-6.19.73-21.78-9.08-15.54Z"/>
      </g>
      <path class="cls-1" d="M262.31,149.59c-17.33-25.1,33.5-42.68,33.5-42.68l10.23,16.1s-27.04,10.06-16.85,24.75c10.98,17.8,49.84,79.63,49.84,79.63l-20.47,12.94s-43.04-69.67-56.25-90.75Z"/>
      <polygon class="cls-1" points="328.78 171.79 277.41 204.42 263.21 182.07 317.95 147.3 328.78 171.79"/>
    </g>
    <g id="Insta">
      <g>
        <rect class="cls-3" x="34.16" y="113.88" width="175.56" height="157.89" rx="50" ry="50" transform="translate(-104.84 167.91) rotate(-51.42)"/>
        <path class="cls-3" d="M200.85,206.15c-8.37,10.49-16.74,20.98-25.11,31.48-5.47,6.86-10.94,13.72-16.42,20.58-3.3,4.14-6.48,8.53-10.34,12.17-15.7,14.83-39.08,13.69-55.33.73-13.05-10.41-26.1-20.82-39.14-31.22-6.41-5.11-12.19-10.44-15.8-18.01-5.05-10.57-5.26-23.47-.48-34.17,2.4-5.37,5.97-9.68,9.59-14.2,5.23-6.55,10.46-13.11,15.68-19.66,8.86-11.11,17.59-22.32,26.58-33.32,14.42-17.64,39.55-21.56,58.04-7.65,12.8,9.62,25.09,20.01,37.6,30,5.09,4.06,10.59,7.95,14.65,13.09,7.25,9.17,10.35,21.83,7.98,33.29-1.26,6.06-3.68,12-7.5,16.92-2.97,3.84-3.74,8.99,0,12.73,3.1,3.1,9.73,3.86,12.73,0,9.56-12.34,14.88-27.38,13.17-43.13s-8.94-29.94-21.09-39.87-25.15-20.06-37.73-30.09c-6.15-4.91-12.18-10.27-19.37-13.61-14.08-6.55-30.55-7.89-45.28-2.52-10.71,3.9-19.78,10.44-26.89,19.33-4.49,5.61-8.97,11.24-13.45,16.86-10.66,13.36-21.37,26.69-31.98,40.09-17.79,22.46-18.92,53.3-.62,75.97,4.7,5.82,10.81,10.2,16.61,14.83,7.91,6.31,15.81,12.61,23.72,18.92,4.93,3.93,9.8,7.95,14.82,11.77,12.81,9.75,28.97,13.48,44.8,11.12,14.07-2.1,27.22-9.64,36.2-20.65,3.39-4.15,6.69-8.38,10.03-12.57,11.51-14.43,23.01-28.85,34.52-43.28l2.52-3.16c3.03-3.8,3.71-9.02,0-12.73-3.14-3.14-9.68-3.82-12.73,0Z"/>
      </g>
      <g>
        <rect class="cls-5" x="22.15" y="128.94" width="175.56" height="157.89" rx="50" ry="50" transform="translate(-121.14 164.18) rotate(-51.42)"/>
        <path class="cls-5" d="M188.83,221.21c-8.37,10.49-16.74,20.98-25.11,31.48l-16.42,20.58c-3.3,4.14-6.48,8.53-10.34,12.17-15.7,14.83-39.08,13.69-55.33.73-13.05-10.41-26.1-20.82-39.14-31.22-6.41-5.11-12.19-10.44-15.8-18.01-5.05-10.57-5.26-23.47-.48-34.17,2.4-5.37,5.97-9.68,9.59-14.2l15.68-19.66c8.86-11.11,17.59-22.32,26.58-33.32,14.42-17.64,39.55-21.56,58.04-7.65,12.8,9.62,25.09,20.01,37.6,30,5.09,4.06,10.59,7.95,14.65,13.09,7.25,9.17,10.35,21.83,7.98,33.29-1.26,6.06-3.68,12-7.5,16.92-2.97,3.84-3.74,8.99,0,12.73,3.1,3.1,9.73,3.86,12.73,0,9.56-12.34,14.88-27.38,13.17-43.13s-8.94-29.94-21.09-39.87-25.15-20.06-37.73-30.09c-6.15-4.91-12.18-10.27-19.37-13.61-14.08-6.55-30.55-7.89-45.28-2.52-10.71,3.9-19.78,10.44-26.89,19.33-4.49,5.61-8.97,11.24-13.45,16.86-10.66,13.36-21.37,26.69-31.98,40.09C1.16,203.46.04,234.3,18.33,256.96c4.7,5.82,10.81,10.2,16.61,14.83l23.72,18.92c4.93,3.93,9.8,7.95,14.82,11.77,12.81,9.75,28.97,13.48,44.8,11.12,14.07-2.1,27.22-9.64,36.2-20.65,3.39-4.15,6.69-8.38,10.03-12.57l34.52-43.28,2.52-3.16c3.03-3.8,3.71-9.02,0-12.73-3.14-3.14-9.68-3.82-12.73,0Z"/>
      </g>
      <path class="cls-2" d="M214.78,202.86c-9.5,11.9-18.99,23.81-28.49,35.71-5.27,6.6-10.53,13.21-15.8,19.81s-11.08,12.8-19.2,16.35c-11.9,5.2-26.08,4.26-37.22-2.33-4.73-2.8-8.89-6.51-13.18-9.93-14.85-11.85-29.71-23.7-44.56-35.55-5.68-4.53-11.37-8.93-15.24-15.25-6.88-11.22-8.19-25.48-3.04-37.68,2.54-6.01,6.68-10.82,10.69-15.84l17.96-22.52,17.75-22.26c4.07-5.1,7.98-10.64,13.13-14.71,10.4-8.21,24.55-10.71,37.19-7,7,2.05,12.5,6.11,18.07,10.55,14.83,11.83,29.67,23.66,44.5,35.5,4.42,3.53,9.15,6.9,13.21,10.86,9.5,9.25,14.11,22.92,11.97,36.05-1.06,6.5-3.7,13.01-7.75,18.23-2.97,3.84-3.74,8.99,0,12.73,3.1,3.1,9.73,3.86,12.73,0,10.83-13.98,15.43-30.61,12.49-48.15-2.31-13.76-10.05-26.5-20.87-35.23-14.14-11.39-28.39-22.65-42.59-33.97-5.27-4.2-10.51-8.43-15.8-12.6-11.79-9.3-26.2-14.62-41.36-13.52-16.2,1.17-31.52,8.63-41.86,21.28-3.76,4.6-7.41,9.29-11.12,13.94-11.75,14.73-23.55,29.41-35.24,44.18-8.38,10.58-13.57,22.5-14.19,36.12-.75,16.65,6.05,33.59,18.16,45.04,4.52,4.27,9.69,7.96,14.54,11.83l25.5,20.34c15.45,12.32,30.66,27.62,51.03,30.51,16.94,2.4,33.65-2.42,46.85-13.26,5.55-4.55,9.78-10.51,14.23-16.09,12.46-15.62,24.92-31.24,37.38-46.86l2.83-3.55c3.03-3.8,3.71-9.02,0-12.73-3.14-3.14-9.68-3.82-12.73,0Z"/>
      <g>
        <circle class="cls-2" cx="129.21" cy="183.7" r="27.9"/>
        <path class="cls-2" d="M140.25,168.25c8.14,6.83,10.77,18.32,3.87,27.16-6.42,8.23-18.76,9.52-26.83,3s-9.26-18.63-2.79-26.64c7.16-8.88,19.04-8.58,27.57-2.12,3.88,2.94,10.07.61,12.31-3.23,2.7-4.62.66-9.37-3.23-12.31-11.86-8.98-29.01-9.73-41.57-1.66-13.18,8.47-19.57,24.11-16.35,39.4,3.03,14.41,15.55,25.97,30.02,28.2,15.2,2.34,30.86-4.86,38.28-18.55,8.28-15.27,4.8-34.77-8.55-45.98-3.72-3.12-9.08-3.65-12.73,0-3.21,3.21-3.74,9.59,0,12.73Z"/>
      </g>
    </g>
    <g id="LinkedIn">
      <g>
        <rect class="cls-3" x="64.82" y="255.98" width="166.21" height="166.21" rx="50" ry="50" transform="translate(-222 342.6) rotate(-66.98)"/>
        <path class="cls-2" d="M229.59,336.57c-5.59,13.16-11.19,26.32-16.78,39.48-6.06,14.26-10.89,31.57-24.55,40.46-10.11,6.58-22.47,8.69-34.12,5.38-1.55-.44-3.05-.98-4.56-1.54,1.55.56.94.41.57.26-.65-.26-1.3-.55-1.95-.83l-8.34-3.54c-15.78-6.7-31.55-13.41-47.33-20.11-7.46-3.17-14.24-6.97-19.53-13.3-7.47-8.93-10.98-21.43-8.98-32.93.49-2.82,1.95-7.5,2.43-8.76-.4,1.05.19-.45.28-.67.99-2.37,2.01-4.72,3.01-7.08,3.54-8.34,7.09-16.68,10.63-25.02l9.79-23.04c2.86-6.73,5.85-13.22,11.1-18.49,8.51-8.54,20.27-12.77,32.26-12.06,3.01.18,5.95.8,8.84,1.67.82.25,4.17,1.43,3.49,1.16-.87-.34-.28-.12-.08-.04,1.91.77,3.79,1.61,5.69,2.42,16.08,6.83,32.16,13.67,48.25,20.5,5.66,2.41,11.55,4.62,16.48,8.39,9.6,7.33,15.69,19.11,16.09,31.18.22,6.53-1.15,12.63-3.61,18.67-1.84,4.5,2,9.89,6.29,11.07,5.16,1.42,9.22-1.77,11.07-6.29,11.74-28.72-2.17-63.26-30.61-75.74-14.51-6.37-29.17-12.4-43.76-18.59-5.67-2.41-11.33-4.82-17.01-7.23-13.04-5.53-27.34-6.92-41.04-2.78-14.44,4.37-27.16,14.24-34.57,27.45-2.95,5.25-5.04,11.09-7.39,16.62-6.84,16.1-13.69,32.19-20.52,48.3-11.23,26.47-4.01,56.52,19.74,73.52,5.61,4.02,12.07,6.43,18.38,9.11l27.08,11.51c16.99,7.22,34.87,17.39,53.89,15.57,14.95-1.43,29.4-8.18,39.34-19.61,5.62-6.46,9.07-13.63,12.36-21.36,7.14-16.8,14.28-33.61,21.42-50.41l1.78-4.18c1.9-4.47,1.34-9.64-3.23-12.31-3.78-2.21-10.4-1.27-12.31,3.23Z"/>
      </g>
      <rect class="cls-1" x="134.31" y="355.25" width="24.27" height="61.43" transform="translate(-266.06 369.78) rotate(-66.98)"/>
      <circle class="cls-1" cx="97.79" cy="365.29" r="12.13"/>
      <path class="cls-1" d="M127.33,352.4l9.96-23.43,11.36,4.83s-11.19-21.04,5.51-34.41c3.65-2.92,9.26-5.11,14.73-5.17,19.59-.22,44.72,12.21,44.72,12.21l-7.8,18.35s-39.51-17.1-45.61-1.44,33.08,30.9,33.08,30.9l-9.1,22.31-56.85-24.16Z"/>
    </g>
  </g>
  <g id="Mail">
    <g>
      <rect class="cls-3" x="525.68" y="8.58" width="141.79" height="208.7" rx="12" ry="12" transform="translate(422.89 694.73) rotate(-84.1)"/>
      <path class="cls-2" d="M681.15,183.95c-44.97-4.65-89.94-9.3-134.91-13.95l-34.27-3.54c-4.78-.49-9.78-.62-14.51-1.5,2.32.43-.5-.31-1.1-.99-.9-1.03-.7-1.92-.63-3.19.03-.6.13-1.2.19-1.79.34-3.59.74-7.18,1.11-10.77,1.36-13.19,2.73-26.38,4.09-39.57,1.48-14.35,2.97-28.71,4.45-43.06.75-7.21.94-14.74,2.26-21.87-.39,2.09-.14-.2.54-.67,1.49-1.03,1.78-1.24,3.64-1.13.33.02.67.07,1,.1,2.34.2,4.67.48,7.01.72l29.7,3.07c48.28,4.99,96.58,9.84,144.85,14.98.38.04.77.05,1.14.12-1.94-.37.15.1.85.77,1.14,1.09.96,2.01.88,3.45-.12,2.1-.44,4.21-.65,6.31-1.21,11.69-2.42,23.39-3.63,35.08-2.53,24.45-5.06,48.9-7.59,73.35-.08.74-.1,1.51-.23,2.24.33-1.79.26.15-.55.71-1.5,1.05-1.77,1.22-3.64,1.13-11.58-.52-11.56,17.48,0,18s20.86-8.43,22.2-19.98c.31-2.71.56-5.42.84-8.13,1.34-12.94,2.68-25.88,4.01-38.82,1.57-15.18,3.14-30.36,4.71-45.54.83-8.06,2.08-16.2,2.51-24.3.63-11.94-8.24-20.92-19.7-22.27-1.39-.16-2.79-.29-4.18-.43-9.05-.94-18.11-1.87-27.16-2.81-30.24-3.13-60.49-6.25-90.73-9.38-20.2-2.09-40.41-4.51-60.64-6.27-7.63-.66-14.97,2.55-19.41,8.86-2.94,4.18-3.56,8.88-4.07,13.77-1.13,10.92-2.26,21.84-3.39,32.76-2.72,26.33-5.45,52.66-8.17,78.99-1.4,13.51,7.41,23.22,20.62,24.67,7.16.79,14.33,1.48,21.49,2.22,52.4,5.42,104.8,10.84,157.2,16.26,1.29.13,2.58.27,3.87.4,4.84.5,9-4.49,9-9,0-5.28-4.14-8.5-9-9Z"/>
    </g>
    <g>
      <path class="cls-3" d="M502.82,38.01s75.27,87.67,90.69,89.87c15.43,2.2,110.18-69.1,110.18-69.1l-200.87-20.77Z"/>
      <path class="cls-2" d="M496.46,44.37c9.08,10.58,18.37,20.98,27.75,31.29,15.23,16.73,30.62,33.71,47.76,48.53,5.31,4.59,11.55,10.46,18.6,12.24s14.95-2.15,21.22-5.26c19.75-9.78,38.07-22.87,56.1-35.46,13.61-9.5,27.09-19.2,40.35-29.18,7.28-5.48,4.68-15.82-4.54-16.77-22.55-2.33-45.11-4.66-67.66-7-36.14-3.74-72.28-7.47-108.42-11.21-8.26-.85-16.52-1.71-24.78-2.56-4.84-.5-9,4.49-9,9,0,5.28,4.14,8.5,9,9,22.55,2.33,45.11,4.66,67.66,7,36.14,3.74,72.28,7.47,108.42,11.21,8.26.85,16.52,1.71,24.78,2.56l-4.54-16.77c-28.25,21.25-57.16,42.6-87.93,60.07-3.68,2.09-7.43,4.04-11.24,5.87-.38.18-.77.34-1.14.52-1.12.52,1.62-.64.51-.21-.68.26-1.34.54-2.02.78-1.14.4-2.59.53-3.65,1.03-.81.39,2.51-.08.55-.14-1.64-.04,2.62.51.99.12-1.82-.43.79.47.53.31-.53-.33-1.14-.56-1.68-.87-1.21-.68-2.36-1.46-3.48-2.27-.37-.26-2.53-1.9-1.56-1.15.81.63-1.33-1.08-1.75-1.44-16.76-13.85-31.58-30.26-46.25-46.25-10.79-11.75-21.43-23.65-31.82-35.75-3.17-3.69-9.47-3.25-12.73,0-3.66,3.66-3.18,9.03,0,12.73Z"/>
    </g>
    <path class="cls-5" d="M614.62,66.9c2.57,1.65,4.46,3.8,5.67,6.43,1.21,2.63,1.64,5.57,1.31,8.81-.27,2.62-.98,5.01-2.12,7.17-1.14,2.16-2.67,3.81-4.58,4.97-1.91,1.16-4.09,1.61-6.52,1.36-1.64-.17-2.95-.63-3.95-1.39-1-.76-1.62-1.74-1.87-2.95-.99,1.11-2.19,1.93-3.62,2.45-1.43.52-2.94.7-4.54.54-2.28-.24-4.01-1.11-5.18-2.62-1.17-1.51-1.63-3.45-1.38-5.82.23-2.25.91-4.32,2.05-6.22,1.13-1.89,2.57-3.36,4.33-4.39,1.76-1.03,3.65-1.45,5.69-1.23,2.59.27,4.25,1.37,4.99,3.32l.67-2.41,6.38.66-3.24,11.4c-.15.55-.25,1.03-.29,1.47-.14,1.36.39,2.1,1.59,2.22,1.48.15,2.71-.68,3.69-2.49.98-1.81,1.6-3.96,1.86-6.42.37-3.55-.46-6.44-2.49-8.67-2.03-2.23-5.06-3.56-9.1-3.98-3.45-.36-6.68.15-9.67,1.52-2.99,1.37-5.44,3.42-7.34,6.14-1.9,2.72-3.03,5.8-3.39,9.26-.39,3.73.4,6.74,2.36,9.03,1.96,2.29,4.9,3.64,8.81,4.04,3.05.32,5.84.04,8.36-.82l.73,5.17c-3.16,1.01-6.62,1.33-10.38.94-3.52-.36-6.54-1.36-9.06-2.99-2.53-1.63-4.39-3.77-5.58-6.42-1.19-2.65-1.61-5.64-1.27-8.97.48-4.66,2.01-8.76,4.59-12.31,2.58-3.55,5.9-6.2,9.96-7.94,4.06-1.75,8.46-2.37,13.21-1.88,3.64.38,6.74,1.39,9.31,3.04ZM600.09,88.32s1.48-1.09,2.02-1.92c.54-.83.86-1.76.96-2.78s-.1-1.93-.61-2.66c-.52-.72-1.28-1.14-2.3-1.24-1.36-.14-2.54.33-3.56,1.41-1.02,1.08-1.61,2.42-1.77,4.02-.11,1.02.07,1.86.53,2.53.46.67,1.2,1.06,2.22,1.16.86.09,2.51-.54,2.51-.54Z"/>
    <g>
      <line class="cls-3" x1="487.49" y1="167.21" x2="574.91" y2="122.03"/>
      <path class="cls-2" d="M492.03,174.98c25.44-13.15,50.88-26.29,76.32-39.44,3.7-1.91,7.4-3.82,11.1-5.74,10.29-5.32,1.2-20.86-9.08-15.54-25.44,13.15-50.88,26.29-76.32,39.44-3.7,1.91-7.4,3.82-11.1,5.74-10.29,5.32-1.2,20.86,9.08,15.54h0Z"/>
    </g>
    <g>
      <line class="cls-3" x1="611.03" y1="123.26" x2="684.01" y2="189.27"/>
      <path class="cls-2" d="M604.67,129.63c21.24,19.21,42.48,38.42,63.71,57.63,3.09,2.79,6.18,5.59,9.27,8.38,8.57,7.75,21.34-4.94,12.73-12.73-21.24-19.21-42.48-38.42-63.71-57.63-3.09-2.79-6.18-5.59-9.27-8.38-8.57-7.75-21.34,4.94-12.73,12.73h0Z"/>
    </g>
  </g>
  <g id="Presse">
    <g>
      <path class="cls-3" d="M916.34,84.85l149.86,91.82s-77.32,140.09-100.62,163.49c-23.3,23.4-177.79-86.63-156.95-89.1,20.85-2.46,107.7-166.21,107.7-166.21Z"/>
      <path class="cls-2" d="M911.8,92.62c16.88,10.34,33.76,20.68,50.63,31.02,26.9,16.48,53.8,32.96,80.7,49.45,6.17,3.78,12.35,7.57,18.52,11.35-1.08-4.1-2.15-8.21-3.23-12.31-19.63,35.56-39.85,70.85-61,105.53-6.75,11.06-13.61,22.07-20.79,32.86-2.83,4.26-5.72,8.48-8.72,12.62-.68.94-1.37,1.88-2.07,2.81-.51.68-1.8,2.34-.56.75-1.16,1.49-2.34,2.96-3.58,4.38-.96,1.1-2.04,2.09-3,3.18.73-.82,1.77-1.24.38-.39-2.05,1.25,1.49-.1-.25.12-.49.06-1.09.22-1.56.39-1.54.54,2.38-.12.7-.07-.3,0-.59.07-.89.07-1.65,0-3.27-.03-4.93-.13-2.51-.15,1.68.4-.9-.13-.77-.16-1.56-.29-2.33-.45-2.22-.47-4.4-1.06-6.57-1.71-4.66-1.41-9.22-3.13-13.7-5.01,1.59.67-1.1-.49-1.62-.72-1.29-.57-2.58-1.15-3.86-1.75-2.66-1.23-5.3-2.52-7.93-3.83-5.41-2.72-10.75-5.59-16.03-8.56-10.85-6.12-21.45-12.68-31.83-19.55-9.76-6.46-19.34-13.21-28.62-20.34,1.37,1.05-1.27-.99-1.65-1.29-.91-.71-1.81-1.43-2.71-2.16-1.87-1.5-3.73-3.03-5.56-4.58-2.99-2.54-5.94-5.15-8.72-7.93-1.06-1.06-2.11-2.14-3.1-3.27-.4-.45-.76-.95-1.18-1.39.76.79,1.01,1.44.06.01-.23-.35-.41-.8-.68-1.11-1.09-1.22.48,1.34.36.96-.53-1.76.11,2.19.11,1.32,0,1.53-.69,3.71-2.27,5.32-.29.3-4.72,2.2-2.07,1.61,1.55-.34,3.06-1.02,4.43-1.8,2.82-1.59,5.36-3.83,7.66-6.09,14.56-14.31,25.59-33.01,36.37-50.18,22.48-35.8,43.18-72.78,63.11-110.05.39-.72.77-1.45,1.16-2.18,5.43-10.23-10.11-19.33-15.54-9.08-18,33.92-36.87,67.47-56.86,100.25-6.61,10.83-13.36,21.58-20.48,32.08-3.08,4.54-6.22,9.04-9.5,13.44-.66.89-1.33,1.78-2.01,2.66,1.32-1.73-.83,1.04-1.18,1.49-1.38,1.73-2.8,3.43-4.26,5.08-2.14,2.42-4.41,4.65-6.87,6.74,2.78-2.35-.93.15-1.36.64,1.08-1.23,2.28-.71.66-.38-.35.07-.72.08-1.06.19-8.74,2.79-9.51,11.97-4.9,18.7,4.25,6.22,10.21,11.3,15.92,16.13,8.65,7.31,17.74,14.12,26.97,20.67,20.5,14.55,41.98,28.06,64.55,39.18,9.78,4.82,19.89,9.37,30.38,12.42,7.82,2.27,16.66,4.04,24.7,1.86s12.97-9.56,17.73-15.89c6.72-8.92,12.83-18.31,18.84-27.73,25.74-40.33,49.4-82.06,72.62-123.88.51-.92,1.02-1.83,1.52-2.75,2.39-4.32,1.01-9.72-3.23-12.31-16.88-10.34-33.76-20.68-50.63-31.02-26.9-16.48-53.8-32.96-80.7-49.45-6.17-3.78-12.35-7.57-18.52-11.35-9.9-6.07-18.96,9.49-9.08,15.54Z"/>
    </g>
    <g>
      <path class="cls-6" d="M826.76,130.06l47.93,29.37s-17.24,30.49-34.82,56.96c-14.56,21.92-33.84,37.68-33.84,37.68l20.73-124.01Z"/>
      <path class="cls-2" d="M822.21,137.83c15.98,9.79,31.95,19.58,47.93,29.37l-3.23-12.31c-9.47,16.74-19.44,33.23-29.86,49.39s-22.5,31.21-37.39,43.43l15.04,8.76c6.04-36.12,12.08-72.24,18.11-108.36.87-5.22,1.74-10.43,2.62-15.65.8-4.79-1.26-9.69-6.29-11.07-4.31-1.18-10.27,1.46-11.07,6.29-6.04,36.12-12.08,72.24-18.11,108.36-.87,5.22-1.74,10.43-2.62,15.65-1.51,9.06,7.88,14.63,15.04,8.76,15.54-12.76,28.33-28.76,39.22-45.55,10.79-16.64,21.08-33.65,30.85-50.91,2.43-4.3.97-9.74-3.23-12.31-15.98-9.79-31.95-19.58-47.93-29.37-9.9-6.07-18.96,9.49-9.08,15.54Z"/>
    </g>
    <text class="cls-4" transform="translate(904.08 141.33) rotate(31.5)"><tspan x="0" y="0">PRESSE</tspan></text>
    <path class="cls-5" d="M891.8,166.1c3.89,2.38,7.78,4.77,11.67,7.15,9.31,5.7,18.61,11.4,27.92,17.1,11.25,6.89,22.5,13.79,33.75,20.68,9.75,5.97,19.5,11.95,29.25,17.92,4.7,2.88,9.32,5.97,14.13,8.66.07.04.14.08.2.12,1.65,1.01,3.16-1.58,1.51-2.59-3.89-2.38-7.78-4.77-11.67-7.15-9.31-5.7-18.61-11.4-27.92-17.1-11.25-6.89-22.5-13.79-33.75-20.68-9.75-5.97-19.5-11.95-29.25-17.92-4.7-2.88-9.32-5.97-14.13-8.66-.07-.04-.14-.08-.2-.12-1.65-1.01-3.16,1.58-1.51,2.59h0Z"/>
    <path class="cls-5" d="M882.85,180.71c3.89,2.38,7.78,4.77,11.67,7.15,9.31,5.7,18.61,11.4,27.92,17.1,11.25,6.89,22.5,13.79,33.75,20.68,9.75,5.97,19.5,11.95,29.25,17.92,4.7,2.88,9.32,5.97,14.13,8.66.07.04.14.08.2.12,1.65,1.01,3.16-1.58,1.51-2.59-3.89-2.38-7.78-4.77-11.67-7.15-9.31-5.7-18.61-11.4-27.92-17.1-11.25-6.89-22.5-13.79-33.75-20.68-9.75-5.97-19.5-11.95-29.25-17.92-4.7-2.88-9.32-5.97-14.13-8.66-.07-.04-.14-.08-.2-.12-1.65-1.01-3.16,1.58-1.51,2.59h0Z"/>
    <path class="cls-5" d="M873.9,195.32c3.89,2.38,7.78,4.77,11.67,7.15l27.92,17.1c11.25,6.89,22.5,13.79,33.75,20.68,9.75,5.97,19.5,11.95,29.25,17.92,4.7,2.88,9.32,5.97,14.13,8.66.07.04.14.08.2.12,1.65,1.01,3.16-1.58,1.51-2.59-3.89-2.38-7.78-4.77-11.67-7.15l-27.92-17.1c-11.25-6.89-22.5-13.79-33.75-20.68l-29.25-17.92c-4.7-2.88-9.32-5.97-14.13-8.66-.07-.04-.14-.08-.2-.12-1.65-1.01-3.16,1.58-1.51,2.59h0Z"/>
    <path class="cls-5" d="M966.09,306.05c-9.12-5.59-18.25-11.18-27.37-16.77-1.31-.8-2.62-1.61-3.93-2.41l.54,2.05c4.56-7.45,9.12-14.89,13.69-22.34.66-1.08,1.32-2.15,1.98-3.23l-2.05.54c9.12,5.59,18.25,11.18,27.37,16.77,1.31.8,2.62,1.61,3.93,2.41l-.54-2.05c-4.56,7.45-9.12,14.89-13.69,22.34-.66,1.08-1.32,2.15-1.98,3.23-1.01,1.65,1.58,3.16,2.59,1.51,4.56-7.45,9.12-14.89,13.69-22.34.66-1.08,1.32-2.15,1.98-3.23.43-.7.14-1.64-.54-2.05-9.12-5.59-18.25-11.18-27.37-16.77-1.31-.8-2.62-1.61-3.93-2.41-.7-.43-1.64-.14-2.05.54-4.56,7.45-9.12,14.89-13.69,22.34-.66,1.08-1.32,2.15-1.98,3.23-.43.7-.14,1.64.54,2.05,9.12,5.59,18.25,11.18,27.37,16.77,1.31.8,2.62,1.61,3.93,2.41,1.65,1.01,3.16-1.58,1.51-2.59Z"/>
    <path class="cls-5" d="M838.1,253.75c3.89,2.38,7.78,4.77,11.67,7.15l27.92,17.1,33.75,20.68,29.25,17.92c4.7,2.88,9.32,5.97,14.13,8.66.07.04.14.08.2.12,1.65,1.01,3.16-1.58,1.51-2.59-3.89-2.38-7.78-4.77-11.67-7.15l-27.92-17.1c-11.25-6.89-22.5-13.79-33.75-20.68l-29.25-17.92c-4.7-2.88-9.32-5.97-14.13-8.66-.07-.04-.14-.08-.2-.12-1.65-1.01-3.16,1.58-1.51,2.59h0Z"/>
    <path class="cls-5" d="M864.95,209.93c2.53,1.55,5.07,3.11,7.6,4.66,6.05,3.71,12.1,7.41,18.15,11.12,7.35,4.51,14.71,9.01,22.06,13.52l18.99,11.64c3.08,1.89,6.12,3.96,9.29,5.69.05.02.09.05.13.08,1.65,1.01,3.16-1.58,1.51-2.59-2.53-1.55-5.07-3.11-7.6-4.66-6.05-3.71-12.1-7.41-18.15-11.12-7.35-4.51-14.71-9.01-22.06-13.52-6.33-3.88-12.66-7.76-18.99-11.64-3.08-1.89-6.12-3.96-9.29-5.69-.05-.02-.09-.05-.13-.08-1.65-1.01-3.16,1.58-1.51,2.59h0Z"/>
    <path class="cls-5" d="M856,224.54c2.53,1.55,5.07,3.11,7.6,4.66,6.05,3.71,12.1,7.41,18.15,11.12l22.06,13.52c6.33,3.88,12.66,7.76,18.99,11.64,3.08,1.89,6.12,3.96,9.29,5.69.05.02.09.05.13.08,1.65,1.01,3.16-1.58,1.51-2.59-2.53-1.55-5.07-3.11-7.6-4.66-6.05-3.71-12.1-7.41-18.15-11.12-7.35-4.51-14.71-9.01-22.06-13.52-6.33-3.88-12.66-7.76-18.99-11.64-3.08-1.89-6.12-3.96-9.29-5.69-.05-.02-.09-.05-.13-.08-1.65-1.01-3.16,1.58-1.51,2.59h0Z"/>
    <path class="cls-5" d="M847.05,239.14c2.53,1.55,5.07,3.11,7.6,4.66,6.05,3.71,12.1,7.41,18.15,11.12,7.35,4.51,14.71,9.01,22.06,13.52,6.33,3.88,12.66,7.76,18.99,11.64,3.08,1.89,6.12,3.96,9.29,5.69.05.02.09.05.13.08,1.65,1.01,3.16-1.58,1.51-2.59-2.53-1.55-5.07-3.11-7.6-4.66l-18.15-11.12c-7.35-4.51-14.71-9.01-22.06-13.52-6.33-3.88-12.66-7.76-18.99-11.64-3.08-1.89-6.12-3.96-9.29-5.69-.05-.02-.09-.05-.13-.08-1.65-1.01-3.16,1.58-1.51,2.59h0Z"/>
  </g>
</svg>